<?xml version="1.0" encoding="UTF-8"?>
<svg version="1.1" xmlns="http://www.w3.org/2000/svg" width="1024" height="1024">
<path d="M0 0 C10.56 0 21.12 0 32 0 C32 52.8 32 105.6 32 160 C42.56 160 53.12 160 64 160 C64 170.56 64 181.12 64 192 C74.56 192 85.12 192 96 192 C96 223.68 96 255.36 96 288 C106.56 288 117.12 288 128 288 C128 319.68 128 351.36 128 384 C149.12 384 170.24 384 192 384 C192 394.56 192 405.12 192 416 C181.44 416 170.88 416 160 416 C160 437.12 160 458.24 160 480 C170.56 480 181.12 480 192 480 C192 490.56 192 501.12 192 512 C202.56 512 213.12 512 224 512 C224 522.56 224 533.12 224 544 C234.56 544 245.12 544 256 544 C256 596.8 256 649.6 256 704 C245.44 704 234.88 704 224 704 C224 735.68 224 767.36 224 800 C213.44 800 202.88 800 192 800 C192 810.56 192 821.12 192 832 C181.44 832 170.88 832 160 832 C160 853.12 160 874.24 160 896 C149.44 896 138.88 896 128 896 C128 906.56 128 917.12 128 928 C32.96 928 -62.08 928 -160 928 C-160 896.32 -160 864.64 -160 832 C-170.56 832 -181.12 832 -192 832 C-192 810.88 -192 789.76 -192 768 C-202.56 768 -213.12 768 -224 768 C-224 715.2 -224 662.4 -224 608 C-213.44 608 -202.88 608 -192 608 C-192 597.44 -192 586.88 -192 576 C-202.56 576 -213.12 576 -224 576 C-224 565.44 -224 554.88 -224 544 C-213.44 544 -202.88 544 -192 544 C-192 533.44 -192 522.88 -192 512 C-181.44 512 -170.88 512 -160 512 C-160 501.44 -160 490.88 -160 480 C-149.44 480 -138.88 480 -128 480 C-128 437.76 -128 395.52 -128 352 C-117.44 352 -106.88 352 -96 352 C-96 341.44 -96 330.88 -96 320 C-85.44 320 -74.88 320 -64 320 C-64 298.88 -64 277.76 -64 256 C-74.56 256 -85.12 256 -96 256 C-96 245.44 -96 234.88 -96 224 C-74.88 224 -53.76 224 -32 224 C-32 202.88 -32 181.76 -32 160 C-42.56 160 -53.12 160 -64 160 C-64 149.44 -64 138.88 -64 128 C-42.88 128 -21.76 128 0 128 C0 85.76 0 43.52 0 0 Z " fill="#88F71E" transform="translate(560,96)"/>
<path d="M0 0 C10.56 0 21.12 0 32 0 C32 10.56 32 21.12 32 32 C63.68 32 95.36 32 128 32 C128 42.56 128 53.12 128 64 C117.44 64 106.88 64 96 64 C96 85.12 96 106.24 96 128 C106.56 128 117.12 128 128 128 C128 138.56 128 149.12 128 160 C138.56 160 149.12 160 160 160 C160 170.56 160 181.12 160 192 C170.56 192 181.12 192 192 192 C192 244.8 192 297.6 192 352 C181.44 352 170.88 352 160 352 C160 383.68 160 415.36 160 448 C149.44 448 138.88 448 128 448 C128 458.56 128 469.12 128 480 C117.44 480 106.88 480 96 480 C96 501.12 96 522.24 96 544 C74.88 544 53.76 544 32 544 C32 522.88 32 501.76 32 480 C42.56 480 53.12 480 64 480 C64 469.44 64 458.88 64 448 C74.56 448 85.12 448 96 448 C96 416.32 96 384.64 96 352 C74.88 352 53.76 352 32 352 C32 330.88 32 309.76 32 288 C21.44 288 10.88 288 0 288 C0 277.44 0 266.88 0 256 C-42.24 256 -84.48 256 -128 256 C-128 234.88 -128 213.76 -128 192 C-117.44 192 -106.88 192 -96 192 C-96 181.44 -96 170.88 -96 160 C-85.44 160 -74.88 160 -64 160 C-64 149.44 -64 138.88 -64 128 C-42.88 128 -21.76 128 0 128 C0 149.12 0 170.24 0 192 C-10.56 192 -21.12 192 -32 192 C-32 202.56 -32 213.12 -32 224 C-10.88 224 10.24 224 32 224 C32 192.32 32 160.64 32 128 C42.56 128 53.12 128 64 128 C64 117.44 64 106.88 64 96 C53.44 96 42.88 96 32 96 C32 85.44 32 74.88 32 64 C21.44 64 10.88 64 0 64 C0 42.88 0 21.76 0 0 Z " fill="#88F71E" transform="translate(624,448)"/>
<path d="M0 0 C10.56 0 21.12 0 32 0 C32 21.12 32 42.24 32 64 C42.56 64 53.12 64 64 64 C64 85.12 64 106.24 64 128 C74.56 128 85.12 128 96 128 C96 138.56 96 149.12 96 160 C106.56 160 117.12 160 128 160 C128 170.56 128 181.12 128 192 C117.44 192 106.88 192 96 192 C96 223.68 96 255.36 96 288 C74.88 288 53.76 288 32 288 C32 277.44 32 266.88 32 256 C42.56 256 53.12 256 64 256 C64 234.88 64 213.76 64 192 C42.88 192 21.76 192 0 192 C0 202.56 0 213.12 0 224 C-10.56 224 -21.12 224 -32 224 C-32 234.56 -32 245.12 -32 256 C-42.56 256 -53.12 256 -64 256 C-64 277.12 -64 298.24 -64 320 C-21.76 320 20.48 320 64 320 C64 330.56 64 341.12 64 352 C32.32 352 0.64 352 -32 352 C-32 383.68 -32 415.36 -32 448 C-10.88 448 10.24 448 32 448 C32 458.56 32 469.12 32 480 C42.56 480 53.12 480 64 480 C64 490.56 64 501.12 64 512 C21.76 512 -20.48 512 -64 512 C-64 501.44 -64 490.88 -64 480 C-74.56 480 -85.12 480 -96 480 C-96 437.76 -96 395.52 -96 352 C-106.56 352 -117.12 352 -128 352 C-128 341.44 -128 330.88 -128 320 C-138.56 320 -149.12 320 -160 320 C-160 309.44 -160 298.88 -160 288 C-149.44 288 -138.88 288 -128 288 C-128 277.44 -128 266.88 -128 256 C-117.44 256 -106.88 256 -96 256 C-96 245.44 -96 234.88 -96 224 C-85.44 224 -74.88 224 -64 224 C-64 202.88 -64 181.76 -64 160 C-53.44 160 -42.88 160 -32 160 C-32 128.32 -32 96.64 -32 64 C-21.44 64 -10.88 64 0 64 C0 42.88 0 21.76 0 0 Z " fill="#5FB310" transform="translate(560,384)"/>
<path d="M0 0 C42.24 0 84.48 0 128 0 C128 21.12 128 42.24 128 64 C149.12 64 170.24 64 192 64 C192 95.68 192 127.36 192 160 C181.44 160 170.88 160 160 160 C160 170.56 160 181.12 160 192 C149.44 192 138.88 192 128 192 C128 170.88 128 149.76 128 128 C106.88 128 85.76 128 64 128 C64 117.44 64 106.88 64 96 C42.88 96 21.76 96 0 96 C0 64.32 0 32.64 0 0 Z " fill="#5FB310" transform="translate(528,736)"/>
<path d="M0 0 C10.56 0 21.12 0 32 0 C32 10.56 32 21.12 32 32 C42.56 32 53.12 32 64 32 C64 21.44 64 10.88 64 0 C95.68 0 127.36 0 160 0 C160 21.12 160 42.24 160 64 C170.56 64 181.12 64 192 64 C192 74.56 192 85.12 192 96 C96.96 96 1.92 96 -96 96 C-96 85.44 -96 74.88 -96 64 C-74.88 64 -53.76 64 -32 64 C-32 53.44 -32 42.88 -32 32 C-21.44 32 -10.88 32 0 32 C0 21.44 0 10.88 0 0 Z " fill="#509112" transform="translate(496,928)"/>
<path d="M0 0 C42.24 0 84.48 0 128 0 C128 10.56 128 21.12 128 32 C96.32 32 64.64 32 32 32 C32 63.68 32 95.36 32 128 C53.12 128 74.24 128 96 128 C96 138.56 96 149.12 96 160 C106.56 160 117.12 160 128 160 C128 170.56 128 181.12 128 192 C85.76 192 43.52 192 0 192 C0 181.44 0 170.88 0 160 C-10.56 160 -21.12 160 -32 160 C-32 117.76 -32 75.52 -32 32 C-21.44 32 -10.88 32 0 32 C0 21.44 0 10.88 0 0 Z " fill="#509112" transform="translate(496,704)"/>
<path d="M0 0 C10.56 0 21.12 0 32 0 C32 21.12 32 42.24 32 64 C0.32 64 -31.36 64 -64 64 C-64 74.56 -64 85.12 -64 96 C-74.56 96 -85.12 96 -96 96 C-96 85.44 -96 74.88 -96 64 C-106.56 64 -117.12 64 -128 64 C-128 74.56 -128 85.12 -128 96 C-138.56 96 -149.12 96 -160 96 C-160 106.56 -160 117.12 -160 128 C-181.12 128 -202.24 128 -224 128 C-224 96.32 -224 64.64 -224 32 C-150.08 32 -76.16 32 0 32 C0 21.44 0 10.88 0 0 Z " fill="#95E14B" transform="translate(624,864)"/>
<path d="M0 0 C21.12 0 42.24 0 64 0 C64 21.12 64 42.24 64 64 C53.44 64 42.88 64 32 64 C32 74.56 32 85.12 32 96 C53.12 96 74.24 96 96 96 C96 117.12 96 138.24 96 160 C85.44 160 74.88 160 64 160 C64 149.44 64 138.88 64 128 C21.76 128 -20.48 128 -64 128 C-64 106.88 -64 85.76 -64 64 C-53.44 64 -42.88 64 -32 64 C-32 53.44 -32 42.88 -32 32 C-21.44 32 -10.88 32 0 32 C0 21.44 0 10.88 0 0 Z " fill="#95E14B" transform="translate(560,576)"/>
<path d="M0 0 C10.56 0 21.12 0 32 0 C32 31.68 32 63.36 32 96 C42.56 96 53.12 96 64 96 C64 106.56 64 117.12 64 128 C74.56 128 85.12 128 96 128 C96 117.44 96 106.88 96 96 C106.56 96 117.12 96 128 96 C128 106.56 128 117.12 128 128 C138.56 128 149.12 128 160 128 C160 138.56 160 149.12 160 160 C128.32 160 96.64 160 64 160 C64 170.56 64 181.12 64 192 C53.44 192 42.88 192 32 192 C32 170.88 32 149.76 32 128 C21.44 128 10.88 128 0 128 C0 85.76 0 43.52 0 0 Z " fill="#509112" transform="translate(336,736)"/>
<path d="M0 0 C10.56 0 21.12 0 32 0 C32 10.56 32 21.12 32 32 C42.56 32 53.12 32 64 32 C64 63.68 64 95.36 64 128 C53.44 128 42.88 128 32 128 C32 138.56 32 149.12 32 160 C21.44 160 10.88 160 0 160 C0 149.44 0 138.88 0 128 C-10.56 128 -21.12 128 -32 128 C-32 96.32 -32 64.64 -32 32 C-21.44 32 -10.88 32 0 32 C0 21.44 0 10.88 0 0 Z " fill="#88F71E" transform="translate(400,704)"/>
<path d="M0 0 C31.68 0 63.36 0 96 0 C96 42.24 96 84.48 96 128 C85.44 128 74.88 128 64 128 C64 117.44 64 106.88 64 96 C42.88 96 21.76 96 0 96 C0 64.32 0 32.64 0 0 Z " fill="#88F71E" transform="translate(528,736)"/>
<path d="M0 0 C10.56 0 21.12 0 32 0 C32 21.12 32 42.24 32 64 C42.56 64 53.12 64 64 64 C64 85.12 64 106.24 64 128 C42.88 128 21.76 128 0 128 C0 138.56 0 149.12 0 160 C-10.56 160 -21.12 160 -32 160 C-32 128.32 -32 96.64 -32 64 C-21.44 64 -10.88 64 0 64 C0 42.88 0 21.76 0 0 Z " fill="#509112" transform="translate(560,384)"/>
<path d="M0 0 C10.56 0 21.12 0 32 0 C32 10.56 32 21.12 32 32 C42.56 32 53.12 32 64 32 C64 84.8 64 137.6 64 192 C53.44 192 42.88 192 32 192 C32 149.76 32 107.52 32 64 C21.44 64 10.88 64 0 64 C0 42.88 0 21.76 0 0 Z " fill="#509112" transform="translate(752,608)"/>
<path d="M0 0 C10.56 0 21.12 0 32 0 C32 21.12 32 42.24 32 64 C21.44 64 10.88 64 0 64 C0 74.56 0 85.12 0 96 C-31.68 96 -63.36 96 -96 96 C-96 85.44 -96 74.88 -96 64 C-74.88 64 -53.76 64 -32 64 C-32 53.44 -32 42.88 -32 32 C-21.44 32 -10.88 32 0 32 C0 21.44 0 10.88 0 0 Z " fill="#5FB310" transform="translate(496,928)"/>
<path d="M0 0 C10.56 0 21.12 0 32 0 C32 21.12 32 42.24 32 64 C0.32 64 -31.36 64 -64 64 C-64 74.56 -64 85.12 -64 96 C-74.56 96 -85.12 96 -96 96 C-96 74.88 -96 53.76 -96 32 C-64.32 32 -32.64 32 0 32 C0 21.44 0 10.88 0 0 Z " fill="#95E14B" transform="translate(624,864)"/>
<path d="M0 0 C10.56 0 21.12 0 32 0 C32 10.56 32 21.12 32 32 C42.56 32 53.12 32 64 32 C64 53.12 64 74.24 64 96 C42.88 96 21.76 96 0 96 C0 85.44 0 74.88 0 64 C-10.56 64 -21.12 64 -32 64 C-32 53.44 -32 42.88 -32 32 C-21.44 32 -10.88 32 0 32 C0 21.44 0 10.88 0 0 Z " fill="#5FB310" transform="translate(432,640)"/>
<path d="M0 0 C10.56 0 21.12 0 32 0 C32 31.68 32 63.36 32 96 C21.44 96 10.88 96 0 96 C0 106.56 0 117.12 0 128 C-10.56 128 -21.12 128 -32 128 C-32 106.88 -32 85.76 -32 64 C-21.44 64 -10.88 64 0 64 C0 42.88 0 21.76 0 0 Z " fill="#95E14B" transform="translate(432,736)"/>
<path d="M0 0 C21.12 0 42.24 0 64 0 C64 21.12 64 42.24 64 64 C32.32 64 0.64 64 -32 64 C-32 53.44 -32 42.88 -32 32 C-21.44 32 -10.88 32 0 32 C0 21.44 0 10.88 0 0 Z " fill="#88F71E" transform="translate(560,576)"/>
<path d="M0 0 C10.56 0 21.12 0 32 0 C32 31.68 32 63.36 32 96 C21.44 96 10.88 96 0 96 C0 106.56 0 117.12 0 128 C-10.56 128 -21.12 128 -32 128 C-32 106.88 -32 85.76 -32 64 C-21.44 64 -10.88 64 0 64 C0 42.88 0 21.76 0 0 Z " fill="#509112" transform="translate(496,544)"/>
<path d="M0 0 C31.68 0 63.36 0 96 0 C96 10.56 96 21.12 96 32 C74.88 32 53.76 32 32 32 C32 42.56 32 53.12 32 64 C21.44 64 10.88 64 0 64 C0 42.88 0 21.76 0 0 Z " fill="#5FB310" transform="translate(560,928)"/>
<path d="M0 0 C42.24 0 84.48 0 128 0 C128 10.56 128 21.12 128 32 C85.76 32 43.52 32 0 32 C0 21.44 0 10.88 0 0 Z " fill="#000000" transform="translate(496,864)"/>
<path d="M0 0 C10.56 0 21.12 0 32 0 C32 10.56 32 21.12 32 32 C42.56 32 53.12 32 64 32 C64 42.56 64 53.12 64 64 C32.32 64 0.64 64 -32 64 C-32 53.44 -32 42.88 -32 32 C-21.44 32 -10.88 32 0 32 C0 21.44 0 10.88 0 0 Z " fill="#5FB310" transform="translate(432,832)"/>
<path d="M0 0 C10.56 0 21.12 0 32 0 C32 42.24 32 84.48 32 128 C21.44 128 10.88 128 0 128 C0 85.76 0 43.52 0 0 Z " fill="#000000" transform="translate(624,736)"/>
<path d="M0 0 C10.56 0 21.12 0 32 0 C32 42.24 32 84.48 32 128 C21.44 128 10.88 128 0 128 C0 85.76 0 43.52 0 0 Z " fill="#000000" transform="translate(464,736)"/>
<path d="M0 0 C42.24 0 84.48 0 128 0 C128 10.56 128 21.12 128 32 C85.76 32 43.52 32 0 32 C0 21.44 0 10.88 0 0 Z " fill="#000000" transform="translate(496,704)"/>
<path d="M0 0 C10.56 0 21.12 0 32 0 C32 21.12 32 42.24 32 64 C21.44 64 10.88 64 0 64 C0 74.56 0 85.12 0 96 C-10.56 96 -21.12 96 -32 96 C-32 74.88 -32 53.76 -32 32 C-21.44 32 -10.88 32 0 32 C0 21.44 0 10.88 0 0 Z " fill="#5FB310" transform="translate(688,640)"/>
<path d="M0 0 C21.12 0 42.24 0 64 0 C64 31.68 64 63.36 64 96 C53.44 96 42.88 96 32 96 C32 74.88 32 53.76 32 32 C21.44 32 10.88 32 0 32 C0 21.44 0 10.88 0 0 Z " fill="#509112" transform="translate(496,224)"/>
<path d="M0 0 C21.12 0 42.24 0 64 0 C64 10.56 64 21.12 64 32 C53.44 32 42.88 32 32 32 C32 42.56 32 53.12 32 64 C21.44 64 10.88 64 0 64 C0 42.88 0 21.76 0 0 Z " fill="#88F71E" transform="translate(432,928)"/>
<path d="M0 0 C10.56 0 21.12 0 32 0 C32 31.68 32 63.36 32 96 C21.44 96 10.88 96 0 96 C0 64.32 0 32.64 0 0 Z " fill="#509112" transform="translate(752,800)"/>
<path d="M0 0 C21.12 0 42.24 0 64 0 C64 21.12 64 42.24 64 64 C53.44 64 42.88 64 32 64 C32 53.44 32 42.88 32 32 C21.44 32 10.88 32 0 32 C0 21.44 0 10.88 0 0 Z " fill="#95E14B" transform="translate(560,736)"/>
<path d="M0 0 C10.56 0 21.12 0 32 0 C32 21.12 32 42.24 32 64 C10.88 64 -10.24 64 -32 64 C-32 53.44 -32 42.88 -32 32 C-21.44 32 -10.88 32 0 32 C0 21.44 0 10.88 0 0 Z " fill="#509112" transform="translate(624,608)"/>
<path d="M0 0 C10.56 0 21.12 0 32 0 C32 31.68 32 63.36 32 96 C21.44 96 10.88 96 0 96 C0 64.32 0 32.64 0 0 Z " fill="#509112" transform="translate(432,448)"/>
<path d="M0 0 C10.56 0 21.12 0 32 0 C32 31.68 32 63.36 32 96 C21.44 96 10.88 96 0 96 C0 64.32 0 32.64 0 0 Z " fill="#509112" transform="translate(624,288)"/>
<path d="M0 0 C21.12 0 42.24 0 64 0 C64 10.56 64 21.12 64 32 C42.88 32 21.76 32 0 32 C0 21.44 0 10.88 0 0 Z " fill="#5FB310" transform="translate(624,992)"/>
<path d="M0 0 C10.56 0 21.12 0 32 0 C32 21.12 32 42.24 32 64 C21.44 64 10.88 64 0 64 C0 42.88 0 21.76 0 0 Z " fill="#88F71E" transform="translate(624,864)"/>
<path d="M0 0 C21.12 0 42.24 0 64 0 C64 10.56 64 21.12 64 32 C42.88 32 21.76 32 0 32 C0 21.44 0 10.88 0 0 Z " fill="#509112" transform="translate(656,800)"/>
<path d="M0 0 C10.56 0 21.12 0 32 0 C32 21.12 32 42.24 32 64 C21.44 64 10.88 64 0 64 C0 42.88 0 21.76 0 0 Z " fill="#5FB310" transform="translate(784,736)"/>
<path d="M0 0 C10.56 0 21.12 0 32 0 C32 21.12 32 42.24 32 64 C21.44 64 10.88 64 0 64 C0 42.88 0 21.76 0 0 Z " fill="#95E14B" transform="translate(656,736)"/>
<path d="M0 0 C21.12 0 42.24 0 64 0 C64 10.56 64 21.12 64 32 C42.88 32 21.76 32 0 32 C0 21.44 0 10.88 0 0 Z " fill="#5FB310" transform="translate(336,704)"/>
<path d="M0 0 C10.56 0 21.12 0 32 0 C32 21.12 32 42.24 32 64 C21.44 64 10.88 64 0 64 C0 42.88 0 21.76 0 0 Z " fill="#509112" transform="translate(464,608)"/>
<path d="M0 0 C21.12 0 42.24 0 64 0 C64 10.56 64 21.12 64 32 C42.88 32 21.76 32 0 32 C0 21.44 0 10.88 0 0 Z " fill="#5FB310" transform="translate(688,480)"/>
<path d="M0 0 C21.12 0 42.24 0 64 0 C64 10.56 64 21.12 64 32 C42.88 32 21.76 32 0 32 C0 21.44 0 10.88 0 0 Z " fill="#509112" transform="translate(464,320)"/>
<path d="M0 0 C10.56 0 21.12 0 32 0 C32 10.56 32 21.12 32 32 C21.44 32 10.88 32 0 32 C0 21.44 0 10.88 0 0 Z " fill="#88F71E" transform="translate(496,896)"/>
<path d="M0 0 C10.56 0 21.12 0 32 0 C32 10.56 32 21.12 32 32 C21.44 32 10.88 32 0 32 C0 21.44 0 10.88 0 0 Z " fill="#95E14B" transform="translate(624,864)"/>
<path d="M0 0 C10.56 0 21.12 0 32 0 C32 10.56 32 21.12 32 32 C21.44 32 10.88 32 0 32 C0 21.44 0 10.88 0 0 Z " fill="#88F71E" transform="translate(400,832)"/>
<path d="M0 0 C10.56 0 21.12 0 32 0 C32 10.56 32 21.12 32 32 C21.44 32 10.88 32 0 32 C0 21.44 0 10.88 0 0 Z " fill="#5FB310" transform="translate(336,736)"/>
<path d="M0 0 C10.56 0 21.12 0 32 0 C32 10.56 32 21.12 32 32 C21.44 32 10.88 32 0 32 C0 21.44 0 10.88 0 0 Z " fill="#95E14B" transform="translate(464,704)"/>
<path d="M0 0 C10.56 0 21.12 0 32 0 C32 10.56 32 21.12 32 32 C21.44 32 10.88 32 0 32 C0 21.44 0 10.88 0 0 Z " fill="#88F71E" transform="translate(336,704)"/>
<path d="M0 0 C10.56 0 21.12 0 32 0 C32 10.56 32 21.12 32 32 C21.44 32 10.88 32 0 32 C0 21.44 0 10.88 0 0 Z " fill="#5FB310" transform="translate(592,640)"/>
<path d="M0 0 C10.56 0 21.12 0 32 0 C32 10.56 32 21.12 32 32 C21.44 32 10.88 32 0 32 C0 21.44 0 10.88 0 0 Z " fill="#88F71E" transform="translate(496,640)"/>
<path d="M0 0 C10.56 0 21.12 0 32 0 C32 10.56 32 21.12 32 32 C21.44 32 10.88 32 0 32 C0 21.44 0 10.88 0 0 Z " fill="#5FB310" transform="translate(336,640)"/>
<path d="M0 0 C10.56 0 21.12 0 32 0 C32 10.56 32 21.12 32 32 C21.44 32 10.88 32 0 32 C0 21.44 0 10.88 0 0 Z " fill="#88F71E" transform="translate(240,640)"/>
<path d="M0 0 C10.56 0 21.12 0 32 0 C32 10.56 32 21.12 32 32 C21.44 32 10.88 32 0 32 C0 21.44 0 10.88 0 0 Z " fill="#5FB310" transform="translate(496,608)"/>
<path d="M0 0 C10.56 0 21.12 0 32 0 C32 10.56 32 21.12 32 32 C21.44 32 10.88 32 0 32 C0 21.44 0 10.88 0 0 Z " fill="#5FB310" transform="translate(368,608)"/>
<path d="M0 0 C10.56 0 21.12 0 32 0 C32 10.56 32 21.12 32 32 C21.44 32 10.88 32 0 32 C0 21.44 0 10.88 0 0 Z " fill="#5FB310" transform="translate(208,608)"/>
<path d="M0 0 C10.56 0 21.12 0 32 0 C32 10.56 32 21.12 32 32 C21.44 32 10.88 32 0 32 C0 21.44 0 10.88 0 0 Z " fill="#509112" transform="translate(720,576)"/>
<path d="M0 0 C10.56 0 21.12 0 32 0 C32 10.56 32 21.12 32 32 C21.44 32 10.88 32 0 32 C0 21.44 0 10.88 0 0 Z " fill="#509112" transform="translate(400,576)"/>
<path d="M0 0 C10.56 0 21.12 0 32 0 C32 10.56 32 21.12 32 32 C21.44 32 10.88 32 0 32 C0 21.44 0 10.88 0 0 Z " fill="#88F71E" transform="translate(336,576)"/>
<path d="M0 0 C10.56 0 21.12 0 32 0 C32 10.56 32 21.12 32 32 C21.44 32 10.88 32 0 32 C0 21.44 0 10.88 0 0 Z " fill="#5FB310" transform="translate(752,544)"/>
<path d="M0 0 C10.56 0 21.12 0 32 0 C32 10.56 32 21.12 32 32 C21.44 32 10.88 32 0 32 C0 21.44 0 10.88 0 0 Z " fill="#88F71E" transform="translate(304,544)"/>
<path d="M0 0 C10.56 0 21.12 0 32 0 C32 10.56 32 21.12 32 32 C21.44 32 10.88 32 0 32 C0 21.44 0 10.88 0 0 Z " fill="#5FB310" transform="translate(176,512)"/>
<path d="M0 0 C10.56 0 21.12 0 32 0 C32 10.56 32 21.12 32 32 C21.44 32 10.88 32 0 32 C0 21.44 0 10.88 0 0 Z " fill="#5FB310" transform="translate(368,480)"/>
<path d="M0 0 C10.56 0 21.12 0 32 0 C32 10.56 32 21.12 32 32 C21.44 32 10.88 32 0 32 C0 21.44 0 10.88 0 0 Z " fill="#88F71E" transform="translate(304,480)"/>
<path d="M0 0 C10.56 0 21.12 0 32 0 C32 10.56 32 21.12 32 32 C21.44 32 10.88 32 0 32 C0 21.44 0 10.88 0 0 Z " fill="#5FB310" transform="translate(656,448)"/>
<path d="M0 0 C10.56 0 21.12 0 32 0 C32 10.56 32 21.12 32 32 C21.44 32 10.88 32 0 32 C0 21.44 0 10.88 0 0 Z " fill="#88F71E" transform="translate(656,416)"/>
<path d="M0 0 C10.56 0 21.12 0 32 0 C32 10.56 32 21.12 32 32 C21.44 32 10.88 32 0 32 C0 21.44 0 10.88 0 0 Z " fill="#5FB310" transform="translate(624,416)"/>
<path d="M0 0 C10.56 0 21.12 0 32 0 C32 10.56 32 21.12 32 32 C21.44 32 10.88 32 0 32 C0 21.44 0 10.88 0 0 Z " fill="#509112" transform="translate(464,416)"/>
<path d="M0 0 C10.56 0 21.12 0 32 0 C32 10.56 32 21.12 32 32 C21.44 32 10.88 32 0 32 C0 21.44 0 10.88 0 0 Z " fill="#509112" transform="translate(656,384)"/>
<path d="M0 0 C10.56 0 21.12 0 32 0 C32 10.56 32 21.12 32 32 C21.44 32 10.88 32 0 32 C0 21.44 0 10.88 0 0 Z " fill="#88F71E" transform="translate(784,352)"/>
<path d="M0 0 C10.56 0 21.12 0 32 0 C32 10.56 32 21.12 32 32 C21.44 32 10.88 32 0 32 C0 21.44 0 10.88 0 0 Z " fill="#88F71E" transform="translate(720,352)"/>
<path d="M0 0 C10.56 0 21.12 0 32 0 C32 10.56 32 21.12 32 32 C21.44 32 10.88 32 0 32 C0 21.44 0 10.88 0 0 Z " fill="#88F71E" transform="translate(432,352)"/>
<path d="M0 0 C10.56 0 21.12 0 32 0 C32 10.56 32 21.12 32 32 C21.44 32 10.88 32 0 32 C0 21.44 0 10.88 0 0 Z " fill="#5FB310" transform="translate(464,320)"/>
<path d="M0 0 C10.56 0 21.12 0 32 0 C32 10.56 32 21.12 32 32 C21.44 32 10.88 32 0 32 C0 21.44 0 10.88 0 0 Z " fill="#5FB310" transform="translate(688,256)"/>
<path d="M0 0 C10.56 0 21.12 0 32 0 C32 10.56 32 21.12 32 32 C21.44 32 10.88 32 0 32 C0 21.44 0 10.88 0 0 Z " fill="#509112" transform="translate(592,256)"/>
<path d="M0 0 C10.56 0 21.12 0 32 0 C32 10.56 32 21.12 32 32 C21.44 32 10.88 32 0 32 C0 21.44 0 10.88 0 0 Z " fill="#88F71E" transform="translate(816,224)"/>
<path d="M0 0 C10.56 0 21.12 0 32 0 C32 10.56 32 21.12 32 32 C21.44 32 10.88 32 0 32 C0 21.44 0 10.88 0 0 Z " fill="#88F71E" transform="translate(624,224)"/>
<path d="M0 0 C10.56 0 21.12 0 32 0 C32 10.56 32 21.12 32 32 C21.44 32 10.88 32 0 32 C0 21.44 0 10.88 0 0 Z " fill="#5FB310" transform="translate(496,224)"/>
<path d="M0 0 C10.56 0 21.12 0 32 0 C32 10.56 32 21.12 32 32 C21.44 32 10.88 32 0 32 C0 21.44 0 10.88 0 0 Z " fill="#5FB310" transform="translate(720,192)"/>
<path d="M0 0 C10.56 0 21.12 0 32 0 C32 10.56 32 21.12 32 32 C21.44 32 10.88 32 0 32 C0 21.44 0 10.88 0 0 Z " fill="#88F71E" transform="translate(432,160)"/>
<path d="M0 0 C10.56 0 21.12 0 32 0 C32 10.56 32 21.12 32 32 C21.44 32 10.88 32 0 32 C0 21.44 0 10.88 0 0 Z " fill="#88F71E" transform="translate(624,128)"/>
<path d="M0 0 C10.56 0 21.12 0 32 0 C32 10.56 32 21.12 32 32 C21.44 32 10.88 32 0 32 C0 21.44 0 10.88 0 0 Z " fill="#5FB310" transform="translate(784,96)"/>
<path d="M0 0 C10.56 0 21.12 0 32 0 C32 10.56 32 21.12 32 32 C21.44 32 10.88 32 0 32 C0 21.44 0 10.88 0 0 Z " fill="#88F71E" transform="translate(688,96)"/>
<path d="M0 0 C10.56 0 21.12 0 32 0 C32 10.56 32 21.12 32 32 C21.44 32 10.88 32 0 32 C0 21.44 0 10.88 0 0 Z " fill="#88F71E" transform="translate(400,96)"/>
<path d="M0 0 C10.56 0 21.12 0 32 0 C32 10.56 32 21.12 32 32 C21.44 32 10.88 32 0 32 C0 21.44 0 10.88 0 0 Z " fill="#5FB310" transform="translate(496,32)"/>
<path d="M0 0 C10.56 0 21.12 0 32 0 C32 10.56 32 21.12 32 32 C21.44 32 10.88 32 0 32 C0 21.44 0 10.88 0 0 Z " fill="#88F71E" transform="translate(656,0)"/>
</svg>
