<?xml version="1.0" encoding="UTF-8"?>
<svg version="1.1" xmlns="http://www.w3.org/2000/svg" width="1024" height="1024">
<path d="M0 0 C50.49 0 100.98 0 153 0 C153 33.66 153 67.32 153 102 C169.83 102 186.66 102 204 102 C204 118.83 204 135.66 204 153 C221.16 153 238.32 153 256 153 C256 186.99 256 220.98 256 256 C272.83 256 289.66 256 307 256 C307 289.66 307 323.32 307 358 C323.83 358 340.66 358 358 358 C358 374.83 358 391.66 358 409 C374.83 409 391.66 409 409 409 C409 425.83 409 442.66 409 460 C425.83 460 442.66 460 460 460 C460 493.99 460 527.98 460 563 C477.16 563 494.32 563 512 563 C512 613.49 512 663.98 512 716 C494.84 716 477.68 716 460 716 C460 733.16 460 750.32 460 768 C443.17 768 426.34 768 409 768 C409 784.83 409 801.66 409 819 C375.34 819 341.68 819 307 819 C307 835.83 307 852.66 307 870 C222.52 870 138.04 870 51 870 C51 853.17 51 836.34 51 819 C34.17 819 17.34 819 0 819 C0 802.17 0 785.34 0 768 C-17.16 768 -34.32 768 -52 768 C-52 750.84 -52 733.68 -52 716 C-68.83 716 -85.66 716 -103 716 C-103 682.34 -103 648.68 -103 614 C-119.83 614 -136.66 614 -154 614 C-154 580.34 -154 546.68 -154 512 C-170.83 512 -187.66 512 -205 512 C-205 494.84 -205 477.68 -205 460 C-221.83 460 -238.66 460 -256 460 C-256 392.68 -256 325.36 -256 256 C-239.17 256 -222.34 256 -205 256 C-205 238.84 -205 221.68 -205 204 C-188.17 204 -171.34 204 -154 204 C-154 170.34 -154 136.68 -154 102 C-137.17 102 -120.34 102 -103 102 C-103 85.17 -103 68.34 -103 51 C-69.01 51 -35.02 51 0 51 C0 34.17 0 17.34 0 0 Z " fill="#322522" transform="translate(410,154)"/>
<path d="M0 0 C33.66 0 67.32 0 102 0 C102 33.99 102 67.98 102 103 C119.16 103 136.32 103 154 103 C154 136.66 154 170.32 154 205 C170.83 205 187.66 205 205 205 C205 221.83 205 238.66 205 256 C255.49 256 305.98 256 358 256 C358 289.99 358 323.98 358 359 C375.16 359 392.32 359 410 359 C410 409.49 410 459.98 410 512 C359.18 512 308.36 512 256 512 C256 529.16 256 546.32 256 564 C188.35 564 120.7 564 51 564 C51 479.52 51 395.04 51 308 C67.83 308 84.66 308 102 308 C102 290.84 102 273.68 102 256 C68.34 256 34.68 256 0 256 C0 239.17 0 222.34 0 205 C-33.66 205 -67.32 205 -102 205 C-102 188.17 -102 171.34 -102 154 C-85.17 154 -68.34 154 -51 154 C-51 120.34 -51 86.68 -51 52 C-34.17 52 -17.34 52 0 52 C0 34.84 0 17.68 0 0 Z " fill="#503631" transform="translate(512,358)"/>
<path d="M0 0 C50.49 0 100.98 0 153 0 C153 33.66 153 67.32 153 102 C169.83 102 186.66 102 204 102 C204 118.83 204 135.66 204 153 C221.16 153 238.32 153 256 153 C256 186.99 256 220.98 256 256 C272.83 256 289.66 256 307 256 C307 289.66 307 323.32 307 358 C323.83 358 340.66 358 358 358 C358 374.83 358 391.66 358 409 C374.83 409 391.66 409 409 409 C409 425.83 409 442.66 409 460 C375.34 460 341.68 460 307 460 C307 443.17 307 426.34 307 409 C290.17 409 273.34 409 256 409 C256 375.34 256 341.68 256 307 C238.84 307 221.68 307 204 307 C204 273.01 204 239.02 204 204 C170.34 204 136.68 204 102 204 C102 221.16 102 238.32 102 256 C85.17 256 68.34 256 51 256 C51 289.66 51 323.32 51 358 C34.17 358 17.34 358 0 358 C0 374.83 0 391.66 0 409 C-17.16 409 -34.32 409 -52 409 C-52 375.34 -52 341.68 -52 307 C-68.83 307 -85.66 307 -103 307 C-103 290.17 -103 273.34 -103 256 C-119.83 256 -136.66 256 -154 256 C-154 205.18 -154 154.36 -154 102 C-137.17 102 -120.34 102 -103 102 C-103 85.17 -103 68.34 -103 51 C-69.01 51 -35.02 51 0 51 C0 34.17 0 17.34 0 0 Z " fill="#5B3F3A" transform="translate(410,154)"/>
<path d="M0 0 C16.83 0 33.66 0 51 0 C51 16.83 51 33.66 51 51 C67.83 51 84.66 51 102 51 C102 84.66 102 118.32 102 153 C119.16 153 136.32 153 154 153 C154 169.83 154 186.66 154 204 C170.83 204 187.66 204 205 204 C205 187.17 205 170.34 205 153 C238.66 153 272.32 153 307 153 C307 186.99 307 220.98 307 256 C374.65 256 442.3 256 512 256 C512 238.84 512 221.68 512 204 C545.66 204 579.32 204 614 204 C614 221.16 614 238.32 614 256 C597.17 256 580.34 256 563 256 C563 272.83 563 289.66 563 307 C529.34 307 495.68 307 461 307 C461 323.83 461 340.66 461 358 C376.52 358 292.04 358 205 358 C205 341.17 205 324.34 205 307 C188.17 307 171.34 307 154 307 C154 290.17 154 273.34 154 256 C136.84 256 119.68 256 102 256 C102 238.84 102 221.68 102 204 C85.17 204 68.34 204 51 204 C51 170.34 51 136.68 51 102 C34.17 102 17.34 102 0 102 C0 68.34 0 34.68 0 0 Z " fill="#322522" transform="translate(256,666)"/>
<path d="M0 0 C33.66 0 67.32 0 102 0 C102 33.99 102 67.98 102 103 C119.16 103 136.32 103 154 103 C154 136.66 154 170.32 154 205 C170.83 205 187.66 205 205 205 C205 221.83 205 238.66 205 256 C238.66 256 272.32 256 307 256 C307 289.99 307 323.98 307 359 C273.34 359 239.68 359 205 359 C205 342.17 205 325.34 205 308 C171.01 308 137.02 308 102 308 C102 290.84 102 273.68 102 256 C68.34 256 34.68 256 0 256 C0 239.17 0 222.34 0 205 C-33.66 205 -67.32 205 -102 205 C-102 188.17 -102 171.34 -102 154 C-85.17 154 -68.34 154 -51 154 C-51 120.34 -51 86.68 -51 52 C-34.17 52 -17.34 52 0 52 C0 34.84 0 17.68 0 0 Z " fill="#5B3F3A" transform="translate(512,358)"/>
<path d="M0 0 C16.83 0 33.66 0 51 0 C51 16.83 51 33.66 51 51 C68.16 51 85.32 51 103 51 C103 84.99 103 118.98 103 154 C119.83 154 136.66 154 154 154 C154 187.66 154 221.32 154 256 C170.83 256 187.66 256 205 256 C205 272.83 205 289.66 205 307 C221.83 307 238.66 307 256 307 C256 323.83 256 340.66 256 358 C222.34 358 188.68 358 154 358 C154 341.17 154 324.34 154 307 C137.17 307 120.34 307 103 307 C103 273.34 103 239.68 103 205 C85.84 205 68.68 205 51 205 C51 171.01 51 137.02 51 102 C34.17 102 17.34 102 0 102 C0 68.34 0 34.68 0 0 Z " fill="#000000" transform="translate(563,256)"/>
<path d="M0 0 C67.65 0 135.3 0 205 0 C205 50.82 205 101.64 205 154 C188.17 154 171.34 154 154 154 C154 170.83 154 187.66 154 205 C136.84 205 119.68 205 102 205 C102 171.34 102 137.68 102 103 C85.17 103 68.34 103 51 103 C51 86.17 51 69.34 51 52 C34.17 52 17.34 52 0 52 C0 34.84 0 17.68 0 0 Z " fill="#503631" transform="translate(256,358)"/>
<path d="M0 0 C16.83 0 33.66 0 51 0 C51 16.83 51 33.66 51 51 C67.83 51 84.66 51 102 51 C102 84.66 102 118.32 102 153 C119.16 153 136.32 153 154 153 C154 169.83 154 186.66 154 204 C170.83 204 187.66 204 205 204 C205 237.99 205 271.98 205 307 C188.17 307 171.34 307 154 307 C154 290.17 154 273.34 154 256 C136.84 256 119.68 256 102 256 C102 238.84 102 221.68 102 204 C85.17 204 68.34 204 51 204 C51 170.34 51 136.68 51 102 C34.17 102 17.34 102 0 102 C0 68.34 0 34.68 0 0 Z " fill="#000000" transform="translate(256,666)"/>
<path d="M0 0 C16.83 0 33.66 0 51 0 C51 33.99 51 67.98 51 103 C68.16 103 85.32 103 103 103 C103 153.49 103 203.98 103 256 C85.84 256 68.68 256 51 256 C51 239.17 51 222.34 51 205 C34.17 205 17.34 205 0 205 C0 188.17 0 171.34 0 154 C-33.66 154 -67.32 154 -102 154 C-102 137.17 -102 120.34 -102 103 C-68.34 103 -34.68 103 0 103 C0 69.01 0 35.02 0 0 Z " fill="#861400" transform="translate(819,614)"/>
<path d="M0 0 C50.49 0 100.98 0 153 0 C153 50.49 153 100.98 153 153 C119.34 153 85.68 153 51 153 C51 136.17 51 119.34 51 102 C34.17 102 17.34 102 0 102 C0 68.34 0 34.68 0 0 Z " fill="#6D5752" transform="translate(410,154)"/>
<path d="M0 0 C16.83 0 33.66 0 51 0 C51 16.83 51 33.66 51 51 C84.66 51 118.32 51 153 51 C153 84.99 153 118.98 153 154 C119.34 154 85.68 154 51 154 C51 137.17 51 120.34 51 103 C34.17 103 17.34 103 0 103 C0 69.01 0 35.02 0 0 Z " fill="#6D5752" transform="translate(666,563)"/>
<path d="M0 0 C16.83 0 33.66 0 51 0 C51 33.99 51 67.98 51 103 C68.16 103 85.32 103 103 103 C103 136.66 103 170.32 103 205 C85.84 205 68.68 205 51 205 C51 188.17 51 171.34 51 154 C34.17 154 17.34 154 0 154 C0 103.18 0 52.36 0 0 Z " fill="#6D5752" transform="translate(563,358)"/>
<path d="M0 0 C33.66 0 67.32 0 102 0 C102 50.82 102 101.64 102 154 C85.17 154 68.34 154 51 154 C51 137.17 51 120.34 51 103 C34.17 103 17.34 103 0 103 C0 69.01 0 35.02 0 0 Z " fill="#3D2D29" transform="translate(410,614)"/>
<path d="M0 0 C84.48 0 168.96 0 256 0 C256 16.83 256 33.66 256 51 C171.52 51 87.04 51 0 51 C0 34.17 0 17.34 0 0 Z " fill="#000000" transform="translate(461,973)"/>
<path d="M0 0 C16.83 0 33.66 0 51 0 C51 16.83 51 33.66 51 51 C84.99 51 118.98 51 154 51 C154 68.16 154 85.32 154 103 C103.18 103 52.36 103 0 103 C0 69.01 0 35.02 0 0 Z " fill="#3D2D29" transform="translate(563,819)"/>
<path d="M0 0 C33.66 0 67.32 0 102 0 C102 17.16 102 34.32 102 52 C85.17 52 68.34 52 51 52 C51 68.83 51 85.66 51 103 C17.34 103 -16.32 103 -51 103 C-51 86.17 -51 69.34 -51 52 C-34.17 52 -17.34 52 0 52 C0 34.84 0 17.68 0 0 Z " fill="#000000" transform="translate(768,870)"/>
<path d="M0 0 C33.66 0 67.32 0 102 0 C102 17.16 102 34.32 102 52 C85.17 52 68.34 52 51 52 C51 85.66 51 119.32 51 154 C34.17 154 17.34 154 0 154 C0 103.18 0 52.36 0 0 Z " fill="#861400" transform="translate(512,614)"/>
<path d="M0 0 C33.66 0 67.32 0 102 0 C102 16.83 102 33.66 102 51 C118.83 51 135.66 51 153 51 C153 67.83 153 84.66 153 102 C119.34 102 85.68 102 51 102 C51 85.17 51 68.34 51 51 C34.17 51 17.34 51 0 51 C0 34.17 0 17.34 0 0 Z " fill="#5B3F3A" transform="translate(717,768)"/>
<path d="M0 0 C16.83 0 33.66 0 51 0 C51 67.32 51 134.64 51 204 C34.17 204 17.34 204 0 204 C0 136.68 0 69.36 0 0 Z " fill="#000000" transform="translate(154,410)"/>
<path d="M0 0 C50.49 0 100.98 0 153 0 C153 33.66 153 67.32 153 102 C136.17 102 119.34 102 102 102 C102 85.17 102 68.34 102 51 C68.34 51 34.68 51 0 51 C0 34.17 0 17.34 0 0 Z " fill="#000000" transform="translate(410,154)"/>
<path d="M0 0 C17.16 0 34.32 0 52 0 C52 50.49 52 100.98 52 153 C34.84 153 17.68 153 0 153 C0 102.51 0 52.02 0 0 Z " fill="#000000" transform="translate(870,717)"/>
<path d="M0 0 C33.99 0 67.98 0 103 0 C103 16.83 103 33.66 103 51 C69.01 51 35.02 51 0 51 C0 34.17 0 17.34 0 0 Z " fill="#861400" transform="translate(614,666)"/>
<path d="M0 0 C16.83 0 33.66 0 51 0 C51 33.99 51 67.98 51 103 C34.17 103 17.34 103 0 103 C0 69.01 0 35.02 0 0 Z " fill="#000000" transform="translate(819,614)"/>
<path d="M0 0 C33.99 0 67.98 0 103 0 C103 16.83 103 33.66 103 51 C69.01 51 35.02 51 0 51 C0 34.17 0 17.34 0 0 Z " fill="#000000" transform="translate(307,205)"/>
<path d="M0 0 C33.66 0 67.32 0 102 0 C102 16.83 102 33.66 102 51 C68.34 51 34.68 51 0 51 C0 34.17 0 17.34 0 0 Z " fill="#861400" transform="translate(410,563)"/>
<path d="M0 0 C16.83 0 33.66 0 51 0 C51 33.66 51 67.32 51 102 C34.17 102 17.34 102 0 102 C0 68.34 0 34.68 0 0 Z " fill="#3D2D29" transform="translate(307,461)"/>
<path d="M0 0 C16.83 0 33.66 0 51 0 C51 33.66 51 67.32 51 102 C34.17 102 17.34 102 0 102 C0 68.34 0 34.68 0 0 Z " fill="#861400" transform="translate(410,410)"/>
<path d="M0 0 C17.16 0 34.32 0 52 0 C52 16.83 52 33.66 52 51 C34.84 51 17.68 51 0 51 C0 34.17 0 17.34 0 0 Z " fill="#861400" transform="translate(870,973)"/>
<path d="M0 0 C16.83 0 33.66 0 51 0 C51 17.16 51 34.32 51 52 C34.17 52 17.34 52 0 52 C0 34.84 0 17.68 0 0 Z " fill="#503631" transform="translate(922,614)"/>
<path d="M0 0 C16.83 0 33.66 0 51 0 C51 17.16 51 34.32 51 52 C34.17 52 17.34 52 0 52 C0 34.84 0 17.68 0 0 Z " fill="#503631" transform="translate(461,614)"/>
<path d="M0 0 C16.83 0 33.66 0 51 0 C51 17.16 51 34.32 51 52 C34.17 52 17.34 52 0 52 C0 34.84 0 17.68 0 0 Z " fill="#000000" transform="translate(205,614)"/>
<path d="M0 0 C17.16 0 34.32 0 52 0 C52 16.83 52 33.66 52 51 C34.84 51 17.68 51 0 51 C0 34.17 0 17.34 0 0 Z " fill="#861400" transform="translate(870,563)"/>
<path d="M0 0 C17.16 0 34.32 0 52 0 C52 16.83 52 33.66 52 51 C34.84 51 17.68 51 0 51 C0 34.17 0 17.34 0 0 Z " fill="#3D2D29" transform="translate(358,563)"/>
<path d="M0 0 C17.16 0 34.32 0 52 0 C52 16.83 52 33.66 52 51 C34.84 51 17.68 51 0 51 C0 34.17 0 17.34 0 0 Z " fill="#861400" transform="translate(358,512)"/>
<path d="M0 0 C16.83 0 33.66 0 51 0 C51 17.16 51 34.32 51 52 C34.17 52 17.34 52 0 52 C0 34.84 0 17.68 0 0 Z " fill="#861400" transform="translate(461,358)"/>
<path d="M0 0 C16.83 0 33.66 0 51 0 C51 17.16 51 34.32 51 52 C34.17 52 17.34 52 0 52 C0 34.84 0 17.68 0 0 Z " fill="#000000" transform="translate(205,358)"/>
<path d="M0 0 C16.83 0 33.66 0 51 0 C51 17.16 51 34.32 51 52 C34.17 52 17.34 52 0 52 C0 34.84 0 17.68 0 0 Z " fill="#322522" transform="translate(51,358)"/>
<path d="M0 0 C17.16 0 34.32 0 52 0 C52 16.83 52 33.66 52 51 C34.84 51 17.68 51 0 51 C0 34.17 0 17.34 0 0 Z " fill="#503631" transform="translate(870,307)"/>
<path d="M0 0 C17.16 0 34.32 0 52 0 C52 16.83 52 33.66 52 51 C34.84 51 17.68 51 0 51 C0 34.17 0 17.34 0 0 Z " fill="#503631" transform="translate(870,154)"/>
<path d="M0 0 C17.16 0 34.32 0 52 0 C52 16.83 52 33.66 52 51 C34.84 51 17.68 51 0 51 C0 34.17 0 17.34 0 0 Z " fill="#861400" transform="translate(870,0)"/>
<path d="M0 0 C16.83 0 33.66 0 51 0 C51 16.83 51 33.66 51 51 C34.17 51 17.34 51 0 51 C0 34.17 0 17.34 0 0 Z " fill="#861400" transform="translate(307,922)"/>
<path d="M0 0 C16.83 0 33.66 0 51 0 C51 16.83 51 33.66 51 51 C34.17 51 17.34 51 0 51 C0 34.17 0 17.34 0 0 Z " fill="#861400" transform="translate(410,819)"/>
<path d="M0 0 C16.83 0 33.66 0 51 0 C51 16.83 51 33.66 51 51 C34.17 51 17.34 51 0 51 C0 34.17 0 17.34 0 0 Z " fill="#861400" transform="translate(205,819)"/>
<path d="M0 0 C16.83 0 33.66 0 51 0 C51 16.83 51 33.66 51 51 C34.17 51 17.34 51 0 51 C0 34.17 0 17.34 0 0 Z " fill="#861400" transform="translate(819,768)"/>
<path d="M0 0 C16.83 0 33.66 0 51 0 C51 16.83 51 33.66 51 51 C34.17 51 17.34 51 0 51 C0 34.17 0 17.34 0 0 Z " fill="#3D2D29" transform="translate(512,768)"/>
<path d="M0 0 C16.83 0 33.66 0 51 0 C51 16.83 51 33.66 51 51 C34.17 51 17.34 51 0 51 C0 34.17 0 17.34 0 0 Z " fill="#861400" transform="translate(461,768)"/>
<path d="M0 0 C16.83 0 33.66 0 51 0 C51 16.83 51 33.66 51 51 C34.17 51 17.34 51 0 51 C0 34.17 0 17.34 0 0 Z " fill="#6D5752" transform="translate(819,717)"/>
<path d="M0 0 C16.83 0 33.66 0 51 0 C51 16.83 51 33.66 51 51 C34.17 51 17.34 51 0 51 C0 34.17 0 17.34 0 0 Z " fill="#5B3F3A" transform="translate(666,717)"/>
<path d="M0 0 C16.83 0 33.66 0 51 0 C51 16.83 51 33.66 51 51 C34.17 51 17.34 51 0 51 C0 34.17 0 17.34 0 0 Z " fill="#861400" transform="translate(154,717)"/>
<path d="M0 0 C16.83 0 33.66 0 51 0 C51 16.83 51 33.66 51 51 C34.17 51 17.34 51 0 51 C0 34.17 0 17.34 0 0 Z " fill="#503631" transform="translate(410,512)"/>
<path d="M0 0 C16.83 0 33.66 0 51 0 C51 16.83 51 33.66 51 51 C34.17 51 17.34 51 0 51 C0 34.17 0 17.34 0 0 Z " fill="#322522" transform="translate(51,512)"/>
<path d="M0 0 C16.83 0 33.66 0 51 0 C51 16.83 51 33.66 51 51 C34.17 51 17.34 51 0 51 C0 34.17 0 17.34 0 0 Z " fill="#322522" transform="translate(819,461)"/>
<path d="M0 0 C16.83 0 33.66 0 51 0 C51 16.83 51 33.66 51 51 C34.17 51 17.34 51 0 51 C0 34.17 0 17.34 0 0 Z " fill="#503631" transform="translate(922,410)"/>
<path d="M0 0 C16.83 0 33.66 0 51 0 C51 16.83 51 33.66 51 51 C34.17 51 17.34 51 0 51 C0 34.17 0 17.34 0 0 Z " fill="#322522" transform="translate(768,410)"/>
<path d="M0 0 C16.83 0 33.66 0 51 0 C51 16.83 51 33.66 51 51 C34.17 51 17.34 51 0 51 C0 34.17 0 17.34 0 0 Z " fill="#3D2D29" transform="translate(256,410)"/>
<path d="M0 0 C16.83 0 33.66 0 51 0 C51 16.83 51 33.66 51 51 C34.17 51 17.34 51 0 51 C0 34.17 0 17.34 0 0 Z " fill="#322522" transform="translate(717,307)"/>
<path d="M0 0 C16.83 0 33.66 0 51 0 C51 16.83 51 33.66 51 51 C34.17 51 17.34 51 0 51 C0 34.17 0 17.34 0 0 Z " fill="#861400" transform="translate(512,307)"/>
<path d="M0 0 C16.83 0 33.66 0 51 0 C51 16.83 51 33.66 51 51 C34.17 51 17.34 51 0 51 C0 34.17 0 17.34 0 0 Z " fill="#000000" transform="translate(256,256)"/>
<path d="M0 0 C16.83 0 33.66 0 51 0 C51 16.83 51 33.66 51 51 C34.17 51 17.34 51 0 51 C0 34.17 0 17.34 0 0 Z " fill="#861400" transform="translate(768,205)"/>
<path d="M0 0 C16.83 0 33.66 0 51 0 C51 16.83 51 33.66 51 51 C34.17 51 17.34 51 0 51 C0 34.17 0 17.34 0 0 Z " fill="#861400" transform="translate(666,154)"/>
<path d="M0 0 C16.83 0 33.66 0 51 0 C51 16.83 51 33.66 51 51 C34.17 51 17.34 51 0 51 C0 34.17 0 17.34 0 0 Z " fill="#503631" transform="translate(819,51)"/>
<path d="M0 0 C16.83 0 33.66 0 51 0 C51 16.83 51 33.66 51 51 C34.17 51 17.34 51 0 51 C0 34.17 0 17.34 0 0 Z " fill="#503631" transform="translate(410,51)"/>
<path d="M0 0 C16.83 0 33.66 0 51 0 C51 16.83 51 33.66 51 51 C34.17 51 17.34 51 0 51 C0 34.17 0 17.34 0 0 Z " fill="#861400" transform="translate(666,0)"/>
<path d="M0 0 C16.83 0 33.66 0 51 0 C51 16.83 51 33.66 51 51 C34.17 51 17.34 51 0 51 C0 34.17 0 17.34 0 0 Z " fill="#503631" transform="translate(563,0)"/>
<path d="M0 0 C16.83 0 33.66 0 51 0 C51 16.83 51 33.66 51 51 C34.17 51 17.34 51 0 51 C0 34.17 0 17.34 0 0 Z " fill="#861400" transform="translate(461,0)"/>
</svg>
