<?xml version="1.0" encoding="utf-8"?>
<svg version="1.1" width="1024" height="1024" xmlns="http://www.w3.org/2000/svg">
  <path d="M0 0 C16.17 0 32.34 0 49 0 C49 7.92 49 15.84 49 24 C51.64 24 54.28 24 57 24 C57 26.64 57 29.28 57 32 C54.36 32 51.72 32 49 32 C49 37.61 49 43.22 49 49 C81.01 49 113.02 49 146 49 C146 64.84 146 80.68 146 97 C162.17 97 178.34 97 195 97 C195 129.34 195 161.68 195 195 C211.17 195 227.34 195 244 195 C244 227.01 244 259.02 244 292 C227.83 292 211.66 292 195 292 C195 340.51 195 389.02 195 439 C178.83 439 162.66 439 146 439 C146 454.84 146 470.68 146 487 C129.83 487 113.66 487 97 487 C97 519.34 97 551.68 97 585 C81.16 585 65.32 585 49 585 C49 568.83 49 552.66 49 536 C32.83 536 16.66 536 0 536 C0 552.17 0 568.34 0 585 C-16.17 585 -32.34 585 -49 585 C-49 552.66 -49 520.32 -49 487 C-65.17 487 -81.34 487 -98 487 C-98 471.16 -98 455.32 -98 439 C-114.17 439 -130.34 439 -147 439 C-147 390.49 -147 341.98 -147 292 C-162.84 292 -178.68 292 -195 292 C-195 259.99 -195 227.98 -195 195 C-179.16 195 -163.32 195 -147 195 C-147 162.66 -147 130.32 -147 97 C-130.83 97 -114.66 97 -98 97 C-98 81.16 -98 65.32 -98 49 C-65.66 49 -33.32 49 0 49 C0 32.83 0 16.66 0 0 Z " fill="#DB0707" transform="translate(561,439)"/>
  <path d="M0 0 C16.17 0 32.34 0 49 0 C49 7.92 49 15.84 49 24 C51.64 24 54.28 24 57 24 C57 26.64 57 29.28 57 32 C54.36 32 51.72 32 49 32 C49 37.61 49 43.22 49 49 C81.01 49 113.02 49 146 49 C146 97.18 146 145.36 146 195 C129.83 195 113.66 195 97 195 C97 211.17 97 227.34 97 244 C81.16 244 65.32 244 49 244 C49 259.84 49 275.68 49 292 C81.01 292 113.02 292 146 292 C146 324.34 146 356.68 146 390 C129.83 390 113.66 390 97 390 C97 406.17 97 422.34 97 439 C48.82 439 0.64 439 -49 439 C-49 422.83 -49 406.66 -49 390 C-65.17 390 -81.34 390 -98 390 C-98 357.66 -98 325.32 -98 292 C-65.66 292 -33.32 292 0 292 C0 276.16 0 260.32 0 244 C-16.17 244 -32.34 244 -49 244 C-49 227.83 -49 211.66 -49 195 C-65.17 195 -81.34 195 -98 195 C-98 146.82 -98 98.64 -98 49 C-65.66 49 -33.32 49 0 49 C0 32.83 0 16.66 0 0 Z " fill="#969696" transform="translate(561,439)"/>
  <path d="M0 0 C16.17 0 32.34 0 49 0 C49 32.34 49 64.68 49 98 C65.17 98 81.34 98 98 98 C98 114.17 98 130.34 98 147 C114.17 147 130.34 147 147 147 C147 162.84 147 178.68 147 195 C82.65 195 18.3 195 -48 195 C-48 162.99 -48 130.98 -48 98 C-32.16 98 -16.32 98 0 98 C0 65.66 0 33.32 0 0 Z " fill="#969696" transform="translate(414,536)"/>
  <path d="M 0 0 C 16.17 0 32.34 0 49 0 C 49 7.92 49 43.22 49 49 C 81.01 49 113.02 49 146 49 C 146 64.84 146 80.68 146 97 C 113.99 97 81.98 97 49 97 C 49 113.17 49 129.34 49 146 C 32.83 146 16.66 146 0 146 C 0 129.83 0 113.66 0 97 C -32.34 97 -64.68 97 -98 97 C -98 81.16 -98 65.32 -98 49 C -65.66 49 -33.32 49 0 49 C 0 32.83 0 16.66 0 0 Z" fill="#DB0707" transform="translate(561,439)"/>
  <path d="M0 0 C16.17 0 32.34 0 49 0 C49 16.17 49 32.34 49 49 C65.17 49 81.34 49 98 49 C98 64.84 98 80.68 98 97 C65.66 97 33.32 97 0 97 C0 64.99 0 32.98 0 0 Z " fill="#DB0707" transform="translate(463,634)"/>
  <path d="M0 0 C16.17 0 32.34 0 49 0 C49 32.01 49 64.02 49 97 C16.99 97 -15.02 97 -48 97 C-48 81.16 -48 65.32 -48 49 C-32.16 49 -16.32 49 0 49 C0 32.83 0 16.66 0 0 Z " fill="#DB0707" transform="translate(658,634)"/>
  <path d="M 0 0 C 16.17 0 32.34 0 49 0 C 49 32.34 49 64.68 49 98 C 32.83 98 16.66 98 0 98 C 0 76.55 0 5.44 0 0 Z" fill="#940606" transform="translate(707,390)"/>
  <path d="M0 0 C16.17 0 32.34 0 49 0 C49 32.34 49 64.68 49 98 C32.83 98 16.66 98 0 98 C0 65.66 0 33.32 0 0 Z " fill="#DB0707" transform="translate(707,536)"/>
  <path d="M0 0 C16.17 0 32.34 0 49 0 C49 32.34 49 64.68 49 98 C32.83 98 16.66 98 0 98 C0 65.66 0 33.32 0 0 Z " fill="#DB0707" transform="translate(414,536)"/>
  <path d="M0 0 C16.17 0 32.34 0 49 0 C49 32.01 49 64.02 49 97 C32.83 97 16.66 97 0 97 C0 64.99 0 32.98 0 0 Z " fill="#DB0707" transform="translate(756,634)"/>
  <path d="M0 0 C16.17 0 32.34 0 49 0 C49 32.01 49 64.02 49 97 C32.83 97 16.66 97 0 97 C0 64.99 0 32.98 0 0 Z " fill="#969696" transform="translate(707,634)"/>
  <path d="M0 0 C32.01 0 64.02 0 97 0 C97 16.17 97 32.34 97 49 C64.99 49 32.98 49 0 49 C0 32.83 0 16.66 0 0 Z " fill="#DB0707" transform="translate(366,439)"/>
  <path d="M0 0 C15.84 0 31.68 0 48 0 C48 32.01 48 64.02 48 97 C32.16 97 16.32 97 0 97 C0 64.99 0 32.98 0 0 Z " fill="#DB0707" transform="translate(366,634)"/>
  <path d="M 0 0 C 16.17 0 32.34 0 49 0 C 49 16.17 49 32.34 49 49 C 46.36 49 2.72 49 0 49 C 0 32.83 0 16.66 0 0 Z" fill="#940606" transform="translate(658,341)"/>
  <path d="M 0 0 C 15.84 0 31.68 0 48 0 C 48 2.64 48 40.5 48 49 C 45.36 49 10.88 49 0 49 C 0 32.83 0 16.66 0 0 Z" fill="#DB0707" transform="translate(610,390)"/>
  <path d="M0 0 C16.17 0 32.34 0 49 0 C49 16.17 49 32.34 49 49 C32.83 49 16.66 49 0 49 C0 32.83 0 16.66 0 0 Z " fill="#DB0707" transform="translate(756,975)"/>
  <path d="M0 0 C16.17 0 32.34 0 49 0 C49 16.17 49 32.34 49 49 C32.83 49 16.66 49 0 49 C0 32.83 0 16.66 0 0 Z " fill="#960303" transform="translate(853,829)"/>
  <path d="M0 0 C16.17 0 32.34 0 49 0 C49 16.17 49 32.34 49 49 C32.83 49 16.66 49 0 49 C0 32.83 0 16.66 0 0 Z " fill="#DB0707" transform="translate(561,780)"/>
  <path d="M0 0 C16.17 0 32.34 0 49 0 C49 16.17 49 32.34 49 49 C32.83 49 16.66 49 0 49 C0 32.83 0 16.66 0 0 Z " fill="#DB0707" transform="translate(902,731)"/>
  <path d="M0 0 C16.17 0 32.34 0 49 0 C49 16.17 49 32.34 49 49 C32.83 49 16.66 49 0 49 C0 32.83 0 16.66 0 0 Z " fill="#960303" transform="translate(268,731)"/>
  <path d="M0 0 C16.17 0 32.34 0 49 0 C49 16.17 49 32.34 49 49 C32.83 49 16.66 49 0 49 C0 32.83 0 16.66 0 0 Z " fill="#960303" transform="translate(219,634)"/>
  <path d="M0 0 C16.17 0 32.34 0 49 0 C49 16.17 49 32.34 49 49 C32.83 49 16.66 49 0 49 C0 32.83 0 16.66 0 0 Z " fill="#690303" transform="translate(853,585)"/>
  <path d="M0 0 C16.17 0 32.34 0 49 0 C49 16.17 49 32.34 49 49 C32.83 49 16.66 49 0 49 C0 32.83 0 16.66 0 0 Z " fill="#690303" transform="translate(317,585)"/>
  <path d="M0 0 C16.17 0 32.34 0 49 0 C49 16.17 49 32.34 49 49 C32.83 49 16.66 49 0 49 C0 32.83 0 16.66 0 0 Z " fill="#DB0707" transform="translate(707,439)"/>
  <path d="M0 0 C16.17 0 32.34 0 49 0 C49 16.17 49 32.34 49 49 C32.83 49 16.66 49 0 49 C0 32.83 0 16.66 0 0 Z " fill="#DB0707" transform="translate(463,390)"/>
  <path d="M0 0 C16.17 0 32.34 0 49 0 C49 16.17 49 32.34 49 49 C32.83 49 16.66 49 0 49 C0 32.83 0 16.66 0 0 Z " fill="#6B0505" transform="translate(561,341)"/>
  <path d="M0 0 C16.17 0 32.34 0 49 0 C49 16.17 49 32.34 49 49 C32.83 49 16.66 49 0 49 C0 32.83 0 16.66 0 0 Z " fill="#DB0707" transform="translate(268,341)"/>
  <path d="M0 0 C16.17 0 32.34 0 49 0 C49 16.17 49 32.34 49 49 C32.83 49 16.66 49 0 49 C0 32.83 0 16.66 0 0 Z " fill="#940606" transform="translate(707,244)"/>
  <path d="M0 0 C16.17 0 32.34 0 49 0 C49 16.17 49 32.34 49 49 C32.83 49 16.66 49 0 49 C0 32.83 0 16.66 0 0 Z " fill="#DB0707" transform="translate(463,244)"/>
  <path d="M0 0 C16.17 0 32.34 0 49 0 C49 16.17 49 32.34 49 49 C32.83 49 16.66 49 0 49 C0 32.83 0 16.66 0 0 Z " fill="#940606" transform="translate(317,244)"/>
  <path d="M0 0 C16.17 0 32.34 0 49 0 C49 16.17 49 32.34 49 49 C32.83 49 16.66 49 0 49 C0 32.83 0 16.66 0 0 Z " fill="#940606" transform="translate(853,195)"/>
  <path d="M0 0 C16.17 0 32.34 0 49 0 C49 16.17 49 32.34 49 49 C32.83 49 16.66 49 0 49 C0 32.83 0 16.66 0 0 Z " fill="#940606" transform="translate(561,195)"/>
  <path d="M0 0 C16.17 0 32.34 0 49 0 C49 16.17 49 32.34 49 49 C32.83 49 16.66 49 0 49 C0 32.83 0 16.66 0 0 Z " fill="#DB0707" transform="translate(268,195)"/>
  <path d="M0 0 C16.17 0 32.34 0 49 0 C49 16.17 49 32.34 49 49 C32.83 49 16.66 49 0 49 C0 32.83 0 16.66 0 0 Z " fill="#940606" transform="translate(707,146)"/>
  <path d="M0 0 C16.17 0 32.34 0 49 0 C49 16.17 49 32.34 49 49 C32.83 49 16.66 49 0 49 C0 32.83 0 16.66 0 0 Z " fill="#DB0707" transform="translate(463,146)"/>
  <path d="M0 0 C16.17 0 32.34 0 49 0 C49 16.17 49 32.34 49 49 C32.83 49 16.66 49 0 49 C0 32.83 0 16.66 0 0 Z " fill="#DB0707" transform="translate(658,49)"/>
  <path d="M0 0 C16.17 0 32.34 0 49 0 C49 16.17 49 32.34 49 49 C32.83 49 16.66 49 0 49 C0 32.83 0 16.66 0 0 Z " fill="#DB0707" transform="translate(561,49)"/>
  <path d="M0 0 C16.17 0 32.34 0 49 0 C49 16.17 49 32.34 49 49 C32.83 49 16.66 49 0 49 C0 32.83 0 16.66 0 0 Z " fill="#940606" transform="translate(414,49)"/>
  <path d="M0 0 C16.17 0 32.34 0 49 0 C49 16.17 49 32.34 49 49 C32.83 49 16.66 49 0 49 C0 32.83 0 16.66 0 0 Z " fill="#DB0707" transform="translate(317,49)"/>
  <path d="M0 0 C16.17 0 32.34 0 49 0 C49 16.17 49 32.34 49 49 C32.83 49 16.66 49 0 49 C0 32.83 0 16.66 0 0 Z " fill="#940606" transform="translate(73,49)"/>
  <path d="M0 0 C16.17 0 32.34 0 49 0 C49 16.17 49 32.34 49 49 C32.83 49 16.66 49 0 49 C0 32.83 0 16.66 0 0 Z " fill="#940606" transform="translate(853,0)"/>
  <path d="M0 0 C16.17 0 32.34 0 49 0 C49 16.17 49 32.34 49 49 C32.83 49 16.66 49 0 49 C0 32.83 0 16.66 0 0 Z " fill="#6B0505" transform="translate(707,0)"/>
  <path d="M0 0 C16.17 0 32.34 0 49 0 C49 16.17 49 32.34 49 49 C32.83 49 16.66 49 0 49 C0 32.83 0 16.66 0 0 Z " fill="#DB0707" transform="translate(463,0)"/>
  <path d="M0 0 C16.17 0 32.34 0 49 0 C49 15.84 49 31.68 49 48 C32.83 48 16.66 48 0 48 C0 32.16 0 16.32 0 0 Z " fill="#7B0707" transform="translate(561,878)"/>
  <path d="M0 0 C16.17 0 32.34 0 49 0 C49 15.84 49 31.68 49 48 C32.83 48 16.66 48 0 48 C0 32.16 0 16.32 0 0 Z " fill="#960303" transform="translate(853,683)"/>
  <path d="M0 0 C15.84 0 31.68 0 48 0 C48 16.17 48 32.34 48 49 C32.16 49 16.32 49 0 49 C0 32.83 0 16.66 0 0 Z " fill="#960303" transform="translate(171,536)"/>
  <path d="M0 0 C16.17 0 32.34 0 49 0 C49 15.84 49 31.68 49 48 C32.83 48 16.66 48 0 48 C0 32.16 0 16.32 0 0 Z " fill="#960303" transform="translate(902,488)"/>
  <path d="M0 0 C16.17 0 32.34 0 49 0 C49 15.84 49 31.68 49 48 C32.83 48 16.66 48 0 48 C0 32.16 0 16.32 0 0 Z " fill="#960303" transform="translate(268,488)"/>
  <path d="M0 0 C15.84 0 31.68 0 48 0 C48 16.17 48 32.34 48 49 C32.16 49 16.32 49 0 49 C0 32.83 0 16.66 0 0 Z " fill="#960303" transform="translate(366,439)"/>
  <path d="M0 0 C15.84 0 31.68 0 48 0 C48 16.17 48 32.34 48 49 C32.16 49 16.32 49 0 49 C0 32.83 0 16.66 0 0 Z " fill="#DB0707" transform="translate(366,341)"/>
  <path d="M0 0 C16.17 0 32.34 0 49 0 C49 15.84 49 31.68 49 48 C32.83 48 16.66 48 0 48 C0 32.16 0 16.32 0 0 Z " fill="#940606" transform="translate(414,293)"/>
  <path d="M0 0 C15.84 0 31.68 0 48 0 C48 16.17 48 32.34 48 49 C32.16 49 16.32 49 0 49 C0 32.83 0 16.66 0 0 Z " fill="#DB0707" transform="translate(610,244)"/>
  <path d="M0 0 C15.84 0 31.68 0 48 0 C48 16.17 48 32.34 48 49 C32.16 49 16.32 49 0 49 C0 32.83 0 16.66 0 0 Z " fill="#6B0505" transform="translate(366,146)"/>
  <path d="M0 0 C16.17 0 32.34 0 49 0 C49 15.84 49 31.68 49 48 C32.83 48 16.66 48 0 48 C0 32.16 0 16.32 0 0 Z " fill="#DB0707" transform="translate(902,98)"/>
  <path d="M0 0 C16.17 0 32.34 0 49 0 C49 15.84 49 31.68 49 48 C32.83 48 16.66 48 0 48 C0 32.16 0 16.32 0 0 Z " fill="#DB0707" transform="translate(756,98)"/>
  <path d="M0 0 C15.84 0 31.68 0 48 0 C48 15.84 48 31.68 48 48 C32.16 48 16.32 48 0 48 C0 32.16 0 16.32 0 0 Z " fill="#960303" transform="translate(366,878)"/>
  <path d="M0 0 C15.84 0 31.68 0 48 0 C48 15.84 48 31.68 48 48 C32.16 48 16.32 48 0 48 C0 32.16 0 16.32 0 0 Z " fill="#DB0707" transform="translate(805,293)"/>
  <path d="M0 0 C15.84 0 31.68 0 48 0 C48 15.84 48 31.68 48 48 C32.16 48 16.32 48 0 48 C0 32.16 0 16.32 0 0 Z " fill="#940606" transform="translate(610,98)"/>
  <path d="M0 0 C15.84 0 31.68 0 48 0 C48 15.84 48 31.68 48 48 C32.16 48 16.32 48 0 48 C0 32.16 0 16.32 0 0 Z " fill="#DB0707" transform="translate(171,98)"/>
</svg>