<?xml version="1.0" encoding="UTF-8"?>
<svg version="1.1" xmlns="http://www.w3.org/2000/svg" width="1024" height="1024">
<path d="M0 0 C10.89 0 21.78 0 33 0 C33 43.56 33 87.12 33 132 C43.89 132 54.78 132 66 132 C66 142.89 66 153.78 66 165 C76.89 165 87.78 165 99 165 C99 186.78 99 208.56 99 231 C109.89 231 120.78 231 132 231 C132 274.56 132 318.12 132 363 C153.78 363 175.56 363 198 363 C198 373.89 198 384.78 198 396 C187.11 396 176.22 396 165 396 C165 418.11 165 440.22 165 463 C175.89 463 186.78 463 198 463 C198 473.89 198 484.78 198 496 C208.89 496 219.78 496 231 496 C231 506.89 231 517.78 231 529 C241.89 529 252.78 529 264 529 C264 583.45 264 637.9 264 694 C253.11 694 242.22 694 231 694 C231 726.67 231 759.34 231 793 C220.11 793 209.22 793 198 793 C198 803.89 198 814.78 198 826 C187.11 826 176.22 826 165 826 C165 847.78 165 869.56 165 892 C154.11 892 143.22 892 132 892 C132 902.89 132 913.78 132 925 C33.99 925 -64.02 925 -165 925 C-165 903.22 -165 881.44 -165 859 C-175.89 859 -186.78 859 -198 859 C-198 837.22 -198 815.44 -198 793 C-208.89 793 -219.78 793 -231 793 C-231 727.66 -231 662.32 -231 595 C-220.11 595 -209.22 595 -198 595 C-198 584.11 -198 573.22 -198 562 C-208.89 562 -219.78 562 -231 562 C-231 551.11 -231 540.22 -231 529 C-220.11 529 -209.22 529 -198 529 C-198 518.11 -198 507.22 -198 496 C-187.11 496 -176.22 496 -165 496 C-165 485.11 -165 474.22 -165 463 C-154.11 463 -143.22 463 -132 463 C-132 430 -132 397 -132 363 C-121.11 363 -110.22 363 -99 363 C-99 341.22 -99 319.44 -99 297 C-88.11 297 -77.22 297 -66 297 C-66 275.22 -66 253.44 -66 231 C-76.89 231 -87.78 231 -99 231 C-99 220.11 -99 209.22 -99 198 C-77.22 198 -55.44 198 -33 198 C-33 154.44 -33 110.88 -33 66 C-22.11 66 -11.22 66 0 66 C0 44.22 0 22.44 0 0 Z " fill="#4E24AA" transform="translate(578,99)"/>
<path d="M0 0 C10.89 0 21.78 0 33 0 C33 32.67 33 65.34 33 99 C43.89 99 54.78 99 66 99 C66 109.89 66 120.78 66 132 C76.89 132 87.78 132 99 132 C99 110.22 99 88.44 99 66 C109.89 66 120.78 66 132 66 C132 98.67 132 131.34 132 165 C121.11 165 110.22 165 99 165 C99 197.67 99 230.34 99 264 C88.11 264 77.22 264 66 264 C66 274.89 66 285.78 66 297 C55.11 297 44.22 297 33 297 C33 318.78 33 340.56 33 363 C22.11 363 11.22 363 0 363 C0 373.89 0 384.78 0 396 C-98.01 396 -196.02 396 -297 396 C-297 374.22 -297 352.44 -297 330 C-275.22 330 -253.44 330 -231 330 C-231 340.89 -231 351.78 -231 363 C-198.33 363 -165.66 363 -132 363 C-132 341.22 -132 319.44 -132 297 C-121.11 297 -110.22 297 -99 297 C-99 286.11 -99 275.22 -99 264 C-131.67 264 -164.34 264 -198 264 C-198 253.11 -198 242.22 -198 231 C-208.89 231 -219.78 231 -231 231 C-231 187.44 -231 143.88 -231 99 C-220.11 99 -209.22 99 -198 99 C-198 88.11 -198 77.22 -198 66 C-154.44 66 -110.88 66 -66 66 C-66 76.89 -66 87.78 -66 99 C-55.11 99 -44.22 99 -33 99 C-33 131.67 -33 164.34 -33 198 C-22.11 198 -11.22 198 0 198 C0 208.89 0 219.78 0 231 C10.89 231 21.78 231 33 231 C33 198.33 33 165.66 33 132 C22.11 132 11.22 132 0 132 C0 110.22 0 88.44 0 66 C-10.89 66 -21.78 66 -33 66 C-33 55.11 -33 44.22 -33 33 C-22.11 33 -11.22 33 0 33 C0 22.11 0 11.22 0 0 Z " fill="#441A9C" transform="translate(710,628)"/>
<path d="M0 0 C10.89 0 21.78 0 33 0 C33 21.78 33 43.56 33 66 C43.89 66 54.78 66 66 66 C66 98.67 66 131.34 66 165 C76.89 165 87.78 165 99 165 C99 186.78 99 208.56 99 231 C109.89 231 120.78 231 132 231 C132 285.78 132 340.56 132 397 C121.11 397 110.22 397 99 397 C99 407.89 99 418.78 99 430 C109.89 430 120.78 430 132 430 C132 451.78 132 473.56 132 496 C142.89 496 153.78 496 165 496 C165 528.67 165 561.34 165 595 C154.11 595 143.22 595 132 595 C132 584.11 132 573.22 132 562 C121.11 562 110.22 562 99 562 C99 529.33 99 496.66 99 463 C88.11 463 77.22 463 66 463 C66 452.11 66 441.22 66 430 C22.44 430 -21.12 430 -66 430 C-66 440.89 -66 451.78 -66 463 C-98.67 463 -131.34 463 -165 463 C-165 441.22 -165 419.44 -165 397 C-154.11 397 -143.22 397 -132 397 C-132 375.22 -132 353.44 -132 331 C-121.11 331 -110.22 331 -99 331 C-99 309.22 -99 287.44 -99 265 C-88.11 265 -77.22 265 -66 265 C-66 232 -66 199 -66 165 C-55.11 165 -44.22 165 -33 165 C-33 143.22 -33 121.44 -33 99 C-22.11 99 -11.22 99 0 99 C0 66.33 0 33.66 0 0 Z " fill="#3B1B80" transform="translate(578,264)"/>
<path d="M0 0 C10.89 0 21.78 0 33 0 C33 33 33 66 33 100 C43.89 100 54.78 100 66 100 C66 110.89 66 121.78 66 133 C76.89 133 87.78 133 99 133 C99 165.67 99 198.34 99 232 C109.89 232 120.78 232 132 232 C132 253.78 132 275.56 132 298 C142.89 298 153.78 298 165 298 C165 330.67 165 363.34 165 397 C154.11 397 143.22 397 132 397 C132 386.11 132 375.22 132 364 C121.11 364 110.22 364 99 364 C99 331.33 99 298.66 99 265 C88.11 265 77.22 265 66 265 C66 254.11 66 243.22 66 232 C22.44 232 -21.12 232 -66 232 C-66 242.89 -66 253.78 -66 265 C-76.89 265 -87.78 265 -99 265 C-99 232.33 -99 199.66 -99 166 C-88.11 166 -77.22 166 -66 166 C-66 155.11 -66 144.22 -66 133 C-55.11 133 -44.22 133 -33 133 C-33 111.22 -33 89.44 -33 67 C-22.11 67 -11.22 67 0 67 C0 44.89 0 22.78 0 0 Z " fill="#4E24AA" transform="translate(578,462)"/>
<path d="M0 0 C43.56 0 87.12 0 132 0 C132 10.89 132 21.78 132 33 C142.89 33 153.78 33 165 33 C165 76.56 165 120.12 165 165 C154.11 165 143.22 165 132 165 C132 175.89 132 186.78 132 198 C88.44 198 44.88 198 0 198 C0 187.11 0 176.22 0 165 C-10.89 165 -21.78 165 -33 165 C-33 121.44 -33 77.88 -33 33 C-22.11 33 -11.22 33 0 33 C0 22.11 0 11.22 0 0 Z " fill="#280B66" transform="translate(512,694)"/>
<path d="M0 0 C32.67 0 65.34 0 99 0 C99 10.89 99 21.78 99 33 C120.78 33 142.56 33 165 33 C165 43.89 165 54.78 165 66 C197.67 66 230.34 66 264 66 C264 76.89 264 87.78 264 99 C253.11 99 242.22 99 231 99 C231 120.78 231 142.56 231 165 C198.33 165 165.66 165 132 165 C132 154.11 132 143.22 132 132 C99.33 132 66.66 132 33 132 C33 110.22 33 88.44 33 66 C22.11 66 11.22 66 0 66 C0 44.22 0 22.44 0 0 Z " fill="#4E24AA" transform="translate(347,826)"/>
<path d="M0 0 C21.78 0 43.56 0 66 0 C66 10.89 66 21.78 66 33 C98.67 33 131.34 33 165 33 C165 22.11 165 11.22 165 0 C175.89 0 186.78 0 198 0 C198 10.89 198 21.78 198 33 C208.89 33 219.78 33 231 33 C231 43.89 231 54.78 231 66 C154.77 66 78.54 66 0 66 C0 44.22 0 22.44 0 0 Z " fill="#280B66" transform="translate(413,958)"/>
<path d="M0 0 C21.78 0 43.56 0 66 0 C66 43.56 66 87.12 66 132 C55.11 132 44.22 132 33 132 C33 121.11 33 110.22 33 99 C11.22 99 -10.56 99 -33 99 C-33 77.22 -33 55.44 -33 33 C-22.11 33 -11.22 33 0 33 C0 22.11 0 11.22 0 0 Z " fill="#7C54D0" transform="translate(413,727)"/>
<path d="M0 0 C21.78 0 43.56 0 66 0 C66 21.78 66 43.56 66 66 C76.89 66 87.78 66 99 66 C99 98.67 99 131.34 99 165 C88.11 165 77.22 165 66 165 C66 154.11 66 143.22 66 132 C55.11 132 44.22 132 33 132 C33 99.33 33 66.66 33 33 C22.11 33 11.22 33 0 33 C0 22.11 0 11.22 0 0 Z " fill="#7C54D0" transform="translate(644,694)"/>
<path d="M0 0 C43.56 0 87.12 0 132 0 C132 10.89 132 21.78 132 33 C153.78 33 175.56 33 198 33 C198 43.89 198 54.78 198 66 C165.33 66 132.66 66 99 66 C99 55.11 99 44.22 99 33 C66.33 33 33.66 33 0 33 C0 22.11 0 11.22 0 0 Z " fill="#3E1595" transform="translate(380,925)"/>
<path d="M0 0 C10.89 0 21.78 0 33 0 C33 21.78 33 43.56 33 66 C43.89 66 54.78 66 66 66 C66 76.89 66 87.78 66 99 C22.44 99 -21.12 99 -66 99 C-66 88.11 -66 77.22 -66 66 C-55.11 66 -44.22 66 -33 66 C-33 55.11 -33 44.22 -33 33 C-22.11 33 -11.22 33 0 33 C0 22.11 0 11.22 0 0 Z " fill="#7C54D0" transform="translate(578,595)"/>
<path d="M0 0 C32.67 0 65.34 0 99 0 C99 32.67 99 65.34 99 99 C88.11 99 77.22 99 66 99 C66 88.11 66 77.22 66 66 C55.11 66 44.22 66 33 66 C33 55.11 33 44.22 33 33 C22.11 33 11.22 33 0 33 C0 22.11 0 11.22 0 0 Z " fill="#4A19B3" transform="translate(545,727)"/>
<path d="M0 0 C21.78 0 43.56 0 66 0 C66 10.89 66 21.78 66 33 C55.11 33 44.22 33 33 33 C33 43.89 33 54.78 33 66 C22.11 66 11.22 66 0 66 C0 87.78 0 109.56 0 132 C-10.89 132 -21.78 132 -33 132 C-33 99.33 -33 66.66 -33 33 C-22.11 33 -11.22 33 0 33 C0 22.11 0 11.22 0 0 Z " fill="#5B30B7" transform="translate(512,595)"/>
<path d="M0 0 C32.67 0 65.34 0 99 0 C99 10.89 99 21.78 99 33 C88.11 33 77.22 33 66 33 C66 43.89 66 54.78 66 66 C44.22 66 22.44 66 0 66 C0 44.22 0 22.44 0 0 Z " fill="#5B30B7" transform="translate(512,892)"/>
<path d="M0 0 C21.78 0 43.56 0 66 0 C66 10.89 66 21.78 66 33 C76.89 33 87.78 33 99 33 C99 43.89 99 54.78 99 66 C77.22 66 55.44 66 33 66 C33 55.11 33 44.22 33 33 C22.11 33 11.22 33 0 33 C0 22.11 0 11.22 0 0 Z " fill="#3E1595" transform="translate(611,958)"/>
<path d="M0 0 C43.56 0 87.12 0 132 0 C132 10.89 132 21.78 132 33 C88.44 33 44.88 33 0 33 C0 22.11 0 11.22 0 0 Z " fill="#000000" transform="translate(512,859)"/>
<path d="M0 0 C10.89 0 21.78 0 33 0 C33 43.56 33 87.12 33 132 C22.11 132 11.22 132 0 132 C0 88.44 0 44.88 0 0 Z " fill="#000000" transform="translate(644,727)"/>
<path d="M0 0 C10.89 0 21.78 0 33 0 C33 43.56 33 87.12 33 132 C22.11 132 11.22 132 0 132 C0 88.44 0 44.88 0 0 Z " fill="#000000" transform="translate(479,727)"/>
<path d="M0 0 C43.56 0 87.12 0 132 0 C132 10.89 132 21.78 132 33 C88.44 33 44.88 33 0 33 C0 22.11 0 11.22 0 0 Z " fill="#000000" transform="translate(512,694)"/>
<path d="M0 0 C10.89 0 21.78 0 33 0 C33 21.78 33 43.56 33 66 C22.11 66 11.22 66 0 66 C0 44.22 0 22.44 0 0 Z " fill="#3E1595" transform="translate(347,760)"/>
<path d="M0 0 C10.89 0 21.78 0 33 0 C33 21.78 33 43.56 33 66 C22.11 66 11.22 66 0 66 C0 44.22 0 22.44 0 0 Z " fill="#3E1595" transform="translate(413,661)"/>
<path d="M0 0 C10.89 0 21.78 0 33 0 C33 11.22 33 22.44 33 34 C22.11 34 11.22 34 0 34 C0 22.78 0 11.56 0 0 Z " fill="#4E24AA" transform="translate(281,495)"/>
<path d="M0 0 C10.89 0 21.78 0 33 0 C33 10.89 33 21.78 33 33 C22.11 33 11.22 33 0 33 C0 22.11 0 11.22 0 0 Z " fill="#4E24AA" transform="translate(776,991)"/>
<path d="M0 0 C10.89 0 21.78 0 33 0 C33 10.89 33 21.78 33 33 C22.11 33 11.22 33 0 33 C0 22.11 0 11.22 0 0 Z " fill="#4E24AA" transform="translate(809,925)"/>
<path d="M0 0 C10.89 0 21.78 0 33 0 C33 10.89 33 21.78 33 33 C22.11 33 11.22 33 0 33 C0 22.11 0 11.22 0 0 Z " fill="#3E1595" transform="translate(578,925)"/>
<path d="M0 0 C10.89 0 21.78 0 33 0 C33 10.89 33 21.78 33 33 C22.11 33 11.22 33 0 33 C0 22.11 0 11.22 0 0 Z " fill="#3B1B80" transform="translate(611,892)"/>
<path d="M0 0 C10.89 0 21.78 0 33 0 C33 10.89 33 21.78 33 33 C22.11 33 11.22 33 0 33 C0 22.11 0 11.22 0 0 Z " fill="#4E24AA" transform="translate(578,892)"/>
<path d="M0 0 C10.89 0 21.78 0 33 0 C33 10.89 33 21.78 33 33 C22.11 33 11.22 33 0 33 C0 22.11 0 11.22 0 0 Z " fill="#3B1B80" transform="translate(644,859)"/>
<path d="M0 0 C10.89 0 21.78 0 33 0 C33 10.89 33 21.78 33 33 C22.11 33 11.22 33 0 33 C0 22.11 0 11.22 0 0 Z " fill="#7C54D0" transform="translate(479,859)"/>
<path d="M0 0 C10.89 0 21.78 0 33 0 C33 10.89 33 21.78 33 33 C22.11 33 11.22 33 0 33 C0 22.11 0 11.22 0 0 Z " fill="#3E1595" transform="translate(347,859)"/>
<path d="M0 0 C10.89 0 21.78 0 33 0 C33 10.89 33 21.78 33 33 C22.11 33 11.22 33 0 33 C0 22.11 0 11.22 0 0 Z " fill="#4E24AA" transform="translate(842,826)"/>
<path d="M0 0 C10.89 0 21.78 0 33 0 C33 10.89 33 21.78 33 33 C22.11 33 11.22 33 0 33 C0 22.11 0 11.22 0 0 Z " fill="#3B1B80" transform="translate(677,826)"/>
<path d="M0 0 C10.89 0 21.78 0 33 0 C33 10.89 33 21.78 33 33 C22.11 33 11.22 33 0 33 C0 22.11 0 11.22 0 0 Z " fill="#3E1595" transform="translate(380,727)"/>
<path d="M0 0 C10.89 0 21.78 0 33 0 C33 10.89 33 21.78 33 33 C22.11 33 11.22 33 0 33 C0 22.11 0 11.22 0 0 Z " fill="#7C54D0" transform="translate(479,694)"/>
<path d="M0 0 C10.89 0 21.78 0 33 0 C33 10.89 33 21.78 33 33 C22.11 33 11.22 33 0 33 C0 22.11 0 11.22 0 0 Z " fill="#5B30B7" transform="translate(644,661)"/>
<path d="M0 0 C10.89 0 21.78 0 33 0 C33 10.89 33 21.78 33 33 C22.11 33 11.22 33 0 33 C0 22.11 0 11.22 0 0 Z " fill="#4E24AA" transform="translate(479,661)"/>
<path d="M0 0 C10.89 0 21.78 0 33 0 C33 10.89 33 21.78 33 33 C22.11 33 11.22 33 0 33 C0 22.11 0 11.22 0 0 Z " fill="#3B1B80" transform="translate(809,628)"/>
<path d="M0 0 C10.89 0 21.78 0 33 0 C33 10.89 33 21.78 33 33 C22.11 33 11.22 33 0 33 C0 22.11 0 11.22 0 0 Z " fill="#7C54D0" transform="translate(347,628)"/>
<path d="M0 0 C10.89 0 21.78 0 33 0 C33 10.89 33 21.78 33 33 C22.11 33 11.22 33 0 33 C0 22.11 0 11.22 0 0 Z " fill="#4E24AA" transform="translate(215,628)"/>
<path d="M0 0 C10.89 0 21.78 0 33 0 C33 10.89 33 21.78 33 33 C22.11 33 11.22 33 0 33 C0 22.11 0 11.22 0 0 Z " fill="#3E1595" transform="translate(776,595)"/>
<path d="M0 0 C10.89 0 21.78 0 33 0 C33 10.89 33 21.78 33 33 C22.11 33 11.22 33 0 33 C0 22.11 0 11.22 0 0 Z " fill="#3E1595" transform="translate(446,595)"/>
<path d="M0 0 C10.89 0 21.78 0 33 0 C33 10.89 33 21.78 33 33 C22.11 33 11.22 33 0 33 C0 22.11 0 11.22 0 0 Z " fill="#3E1595" transform="translate(281,595)"/>
<path d="M0 0 C10.89 0 21.78 0 33 0 C33 10.89 33 21.78 33 33 C22.11 33 11.22 33 0 33 C0 22.11 0 11.22 0 0 Z " fill="#3E1595" transform="translate(809,529)"/>
<path d="M0 0 C10.89 0 21.78 0 33 0 C33 10.89 33 21.78 33 33 C22.11 33 11.22 33 0 33 C0 22.11 0 11.22 0 0 Z " fill="#3B1B80" transform="translate(347,529)"/>
<path d="M0 0 C10.89 0 21.78 0 33 0 C33 10.89 33 21.78 33 33 C22.11 33 11.22 33 0 33 C0 22.11 0 11.22 0 0 Z " fill="#4E24AA" transform="translate(149,529)"/>
<path d="M0 0 C10.89 0 21.78 0 33 0 C33 10.89 33 21.78 33 33 C22.11 33 11.22 33 0 33 C0 22.11 0 11.22 0 0 Z " fill="#7C54D0" transform="translate(380,462)"/>
<path d="M0 0 C10.89 0 21.78 0 33 0 C33 10.89 33 21.78 33 33 C22.11 33 11.22 33 0 33 C0 22.11 0 11.22 0 0 Z " fill="#4E24AA" transform="translate(215,462)"/>
<path d="M0 0 C10.89 0 21.78 0 33 0 C33 10.89 33 21.78 33 33 C22.11 33 11.22 33 0 33 C0 22.11 0 11.22 0 0 Z " fill="#7C54D0" transform="translate(809,429)"/>
<path d="M0 0 C10.89 0 21.78 0 33 0 C33 10.89 33 21.78 33 33 C22.11 33 11.22 33 0 33 C0 22.11 0 11.22 0 0 Z " fill="#4E24AA" transform="translate(281,429)"/>
<path d="M0 0 C10.89 0 21.78 0 33 0 C33 10.89 33 21.78 33 33 C22.11 33 11.22 33 0 33 C0 22.11 0 11.22 0 0 Z " fill="#4E24AA" transform="translate(380,396)"/>
<path d="M0 0 C10.89 0 21.78 0 33 0 C33 10.89 33 21.78 33 33 C22.11 33 11.22 33 0 33 C0 22.11 0 11.22 0 0 Z " fill="#7C54D0" transform="translate(743,363)"/>
<path d="M0 0 C10.89 0 21.78 0 33 0 C33 10.89 33 21.78 33 33 C22.11 33 11.22 33 0 33 C0 22.11 0 11.22 0 0 Z " fill="#4E24AA" transform="translate(809,297)"/>
<path d="M0 0 C10.89 0 21.78 0 33 0 C33 10.89 33 21.78 33 33 C22.11 33 11.22 33 0 33 C0 22.11 0 11.22 0 0 Z " fill="#7C54D0" transform="translate(479,297)"/>
<path d="M0 0 C10.89 0 21.78 0 33 0 C33 10.89 33 21.78 33 33 C22.11 33 11.22 33 0 33 C0 22.11 0 11.22 0 0 Z " fill="#4E24AA" transform="translate(776,231)"/>
<path d="M0 0 C10.89 0 21.78 0 33 0 C33 10.89 33 21.78 33 33 C22.11 33 11.22 33 0 33 C0 22.11 0 11.22 0 0 Z " fill="#7C54D0" transform="translate(644,198)"/>
<path d="M0 0 C10.89 0 21.78 0 33 0 C33 10.89 33 21.78 33 33 C22.11 33 11.22 33 0 33 C0 22.11 0 11.22 0 0 Z " fill="#3E1595" transform="translate(479,198)"/>
<path d="M0 0 C10.89 0 21.78 0 33 0 C33 10.89 33 21.78 33 33 C22.11 33 11.22 33 0 33 C0 22.11 0 11.22 0 0 Z " fill="#7C54D0" transform="translate(842,165)"/>
<path d="M0 0 C10.89 0 21.78 0 33 0 C33 10.89 33 21.78 33 33 C22.11 33 11.22 33 0 33 C0 22.11 0 11.22 0 0 Z " fill="#3E1595" transform="translate(479,132)"/>
<path d="M0 0 C10.89 0 21.78 0 33 0 C33 10.89 33 21.78 33 33 C22.11 33 11.22 33 0 33 C0 22.11 0 11.22 0 0 Z " fill="#3B1B80" transform="translate(776,99)"/>
<path d="M0 0 C10.89 0 21.78 0 33 0 C33 10.89 33 21.78 33 33 C22.11 33 11.22 33 0 33 C0 22.11 0 11.22 0 0 Z " fill="#4E24AA" transform="translate(644,99)"/>
<path d="M0 0 C10.89 0 21.78 0 33 0 C33 10.89 33 21.78 33 33 C22.11 33 11.22 33 0 33 C0 22.11 0 11.22 0 0 Z " fill="#3E1595" transform="translate(380,99)"/>
<path d="M0 0 C10.89 0 21.78 0 33 0 C33 10.89 33 21.78 33 33 C22.11 33 11.22 33 0 33 C0 22.11 0 11.22 0 0 Z " fill="#7C54D0" transform="translate(710,66)"/>
<path d="M0 0 C10.89 0 21.78 0 33 0 C33 10.89 33 21.78 33 33 C22.11 33 11.22 33 0 33 C0 22.11 0 11.22 0 0 Z " fill="#4E24AA" transform="translate(479,66)"/>
<path d="M0 0 C10.89 0 21.78 0 33 0 C33 10.89 33 21.78 33 33 C22.11 33 11.22 33 0 33 C0 22.11 0 11.22 0 0 Z " fill="#4E24AA" transform="translate(314,66)"/>
<path d="M0 0 C10.89 0 21.78 0 33 0 C33 10.89 33 21.78 33 33 C22.11 33 11.22 33 0 33 C0 22.11 0 11.22 0 0 Z " fill="#3E1595" transform="translate(611,0)"/>
<path d="M0 0 C10.89 0 21.78 0 33 0 C33 10.89 33 21.78 33 33 C22.11 33 11.22 33 0 33 C0 22.11 0 11.22 0 0 Z " fill="#4E24AA" transform="translate(281,0)"/>
</svg>
