<?xml version="1.0" encoding="UTF-8"?>
<svg version="1.1" xmlns="http://www.w3.org/2000/svg" width="1024" height="1024">
<path d="M0 0 C10.56 0 21.12 0 32 0 C32 43.89 32 87.78 32 133 C43.22 133 54.44 133 66 133 C66 144.22 66 155.44 66 167 C76.89 167 87.78 167 99 167 C99 199.34 99 231.68 99 265 C110.22 265 121.44 265 133 265 C133 297.67 133 330.34 133 364 C154.78 364 176.56 364 199 364 C199 375.22 199 386.44 199 398 C187.78 398 176.56 398 165 398 C165 419.78 165 441.56 165 464 C176.22 464 187.44 464 199 464 C199 485.78 199 507.56 199 530 C220.78 530 242.56 530 265 530 C265 584.45 265 638.9 265 695 C253.78 695 242.56 695 231 695 C231 727.34 231 759.68 231 793 C220.44 793 209.88 793 199 793 C199 804.55 199 816.1 199 828 C187.78 828 176.56 828 165 828 C165 849.78 165 871.56 165 894 C154.44 894 143.88 894 133 894 C133 904.56 133 915.12 133 926 C34.99 926 -63.02 926 -164 926 C-164 915.44 -164 904.88 -164 894 C-175.55 894 -187.1 894 -199 894 C-199 860.67 -199 827.34 -199 793 C-209.56 793 -220.12 793 -231 793 C-231 727.66 -231 662.32 -231 595 C-220.44 595 -209.88 595 -199 595 C-199 584.44 -199 573.88 -199 563 C-209.56 563 -220.12 563 -231 563 C-231 552.11 -231 541.22 -231 530 C-220.44 530 -209.88 530 -199 530 C-199 518.78 -199 507.56 -199 496 C-187.45 496 -175.9 496 -164 496 C-164 485.44 -164 474.88 -164 464 C-153.44 464 -142.88 464 -132 464 C-132 431 -132 398 -132 364 C-120.78 364 -109.56 364 -98 364 C-98 342.22 -98 320.44 -98 298 C-87.44 298 -76.88 298 -66 298 C-66 276.55 -66 255.1 -66 233 C-76.56 233 -87.12 233 -98 233 C-98 221.78 -98 210.56 -98 199 C-76.22 199 -54.44 199 -32 199 C-32 166.66 -32 134.32 -32 101 C-21.44 101 -10.88 101 0 101 C0 67.67 0 34.34 0 0 Z " fill="#CC1919" transform="translate(561,98)"/>
<path d="M0 0 C10.56 0 21.12 0 32 0 C32 21.78 32 43.56 32 66 C43.22 66 54.44 66 66 66 C66 109.23 66 152.46 66 197 C76.89 197 87.78 197 99 197 C99 240.56 99 284.12 99 329 C110.22 329 121.44 329 133 329 C133 351.11 133 373.22 133 396 C154.78 396 176.56 396 199 396 C199 439.56 199 483.12 199 528 C187.78 528 176.56 528 165 528 C165 516.78 165 505.56 165 494 C154.44 494 143.88 494 133 494 C133 472.22 133 450.44 133 428 C121.78 428 110.56 428 99 428 C99 417.44 99 406.88 99 396 C88.11 396 77.22 396 66 396 C66 352.11 66 308.22 66 263 C54.78 263 43.56 263 32 263 C32 241.22 32 219.44 32 197 C21.44 197 10.88 197 0 197 C0 218.78 0 240.56 0 263 C-10.56 263 -21.12 263 -32 263 C-32 284.78 -32 306.56 -32 329 C-43.22 329 -54.44 329 -66 329 C-66 351.11 -66 373.22 -66 396 C-76.56 396 -87.12 396 -98 396 C-98 406.56 -98 417.12 -98 428 C-109.22 428 -120.44 428 -132 428 C-132 449.78 -132 471.56 -132 494 C-142.56 494 -153.12 494 -164 494 C-164 461.66 -164 429.32 -164 396 C-153.44 396 -142.88 396 -132 396 C-132 373.89 -132 351.78 -132 329 C-120.78 329 -109.56 329 -98 329 C-98 318.44 -98 307.88 -98 297 C-87.44 297 -76.88 297 -66 297 C-66 285.78 -66 274.56 -66 263 C-76.56 263 -87.12 263 -98 263 C-98 252.44 -98 241.88 -98 231 C-87.44 231 -76.88 231 -66 231 C-66 219.78 -66 208.56 -66 197 C-54.78 197 -43.56 197 -32 197 C-32 164.33 -32 131.66 -32 98 C-21.44 98 -10.88 98 0 98 C0 65.66 0 33.32 0 0 Z " fill="#7B1111" transform="translate(561,265)"/>
<path d="M0 0 C11.22 0 22.44 0 34 0 C34 11.22 34 22.44 34 34 C55.78 34 77.56 34 100 34 C100 88.45 100 142.9 100 199 C88.78 199 77.56 199 66 199 C66 231.34 66 263.68 66 297 C55.44 297 44.88 297 34 297 C34 308.55 34 320.1 34 332 C22.78 332 11.56 332 0 332 C0 309.89 0 287.78 0 265 C11.22 265 22.44 265 34 265 C34 199.66 34 134.32 34 67 C22.78 67 11.56 67 0 67 C0 44.89 0 22.78 0 0 Z " fill="#CB1919" transform="translate(726,594)"/>
<path d="M0 0 C43.56 0 87.12 0 132 0 C132 11.22 132 22.44 132 34 C99.66 34 67.32 34 34 34 C34 66.34 34 98.68 34 132 C44.56 132 55.12 132 66 132 C66 143.22 66 154.44 66 166 C87.78 166 109.56 166 132 166 C132 176.56 132 187.12 132 198 C88.44 198 44.88 198 0 198 C0 187.44 0 176.88 0 166 C-10.56 166 -21.12 166 -32 166 C-32 122.44 -32 78.88 -32 34 C-21.44 34 -10.88 34 0 34 C0 22.78 0 11.56 0 0 Z " fill="#7B1111" transform="translate(495,693)"/>
<path d="M0 0 C21.78 0 43.56 0 66 0 C66 10.56 66 21.12 66 32 C87.78 32 109.56 32 132 32 C132 21.44 132 10.88 132 0 C164.67 0 197.34 0 231 0 C231 10.56 231 21.12 231 32 C220.11 32 209.22 32 198 32 C198 53.78 198 75.56 198 98 C132.66 98 67.32 98 0 98 C0 65.66 0 33.32 0 0 Z " fill="#7B1111" transform="translate(429,926)"/>
<path d="M0 0 C32.34 0 64.68 0 98 0 C98 43.56 98 87.12 98 132 C76.22 132 54.44 132 32 132 C32 120.78 32 109.56 32 98 C21.44 98 10.88 98 0 98 C0 65.66 0 33.32 0 0 Z " fill="#992B2B" transform="translate(529,727)"/>
<path d="M0 0 C11.22 0 22.44 0 34 0 C34 11.22 34 22.44 34 34 C55.78 34 77.56 34 100 34 C100 66.67 100 99.34 100 133 C88.78 133 77.56 133 66 133 C66 121.78 66 110.56 66 99 C55.44 99 44.88 99 34 99 C34 88.44 34 77.88 34 67 C22.78 67 11.56 67 0 67 C0 44.89 0 22.78 0 0 Z " fill="#B74343" transform="translate(726,594)"/>
<path d="M0 0 C10.56 0 21.12 0 32 0 C32 21.78 32 43.56 32 66 C43.22 66 54.44 66 66 66 C66 77.22 66 88.44 66 100 C44.22 100 22.44 100 0 100 C0 110.56 0 121.12 0 132 C-10.56 132 -21.12 132 -32 132 C-32 110.22 -32 88.44 -32 66 C-21.44 66 -10.88 66 0 66 C0 44.22 0 22.44 0 0 Z " fill="#992B2B" transform="translate(561,462)"/>
<path d="M0 0 C10.56 0 21.12 0 32 0 C32 32.34 32 64.68 32 98 C21.44 98 10.88 98 0 98 C0 109.55 0 121.1 0 133 C-11.22 133 -22.44 133 -34 133 C-34 110.89 -34 88.78 -34 66 C-22.78 66 -11.56 66 0 66 C0 44.22 0 22.44 0 0 Z " fill="#B74343" transform="translate(760,793)"/>
<path d="M0 0 C43.56 0 87.12 0 132 0 C132 11.22 132 22.44 132 34 C88.44 34 44.88 34 0 34 C0 22.78 0 11.56 0 0 Z " fill="#000000" transform="translate(495,693)"/>
<path d="M0 0 C10.89 0 21.78 0 33 0 C33 43.56 33 87.12 33 132 C22.11 132 11.22 132 0 132 C0 88.44 0 44.88 0 0 Z " fill="#000000" transform="translate(627,727)"/>
<path d="M0 0 C43.56 0 87.12 0 132 0 C132 10.56 132 21.12 132 32 C88.44 32 44.88 32 0 32 C0 21.44 0 10.88 0 0 Z " fill="#000000" transform="translate(495,859)"/>
<path d="M0 0 C10.56 0 21.12 0 32 0 C32 43.56 32 87.12 32 132 C21.44 132 10.88 132 0 132 C0 88.44 0 44.88 0 0 Z " fill="#000000" transform="translate(463,727)"/>
<path d="M0 0 C22.11 0 44.22 0 67 0 C67 21.78 67 43.56 67 66 C56.44 66 45.88 66 35 66 C35 55.44 35 44.88 35 34 C23.45 34 11.9 34 0 34 C0 22.78 0 11.56 0 0 Z " fill="#CC1919" transform="translate(362,958)"/>
<path d="M0 0 C21.78 0 43.56 0 66 0 C66 21.78 66 43.56 66 66 C54.78 66 43.56 66 32 66 C32 54.78 32 43.56 32 32 C21.44 32 10.88 32 0 32 C0 21.44 0 10.88 0 0 Z " fill="#CC5959" transform="translate(561,727)"/>
<path d="M0 0 C11.22 0 22.44 0 34 0 C34 21.78 34 43.56 34 66 C22.78 66 11.56 66 0 66 C0 44.22 0 22.44 0 0 Z " fill="#CC1919" transform="translate(593,793)"/>
<path d="M0 0 C10.56 0 21.12 0 32 0 C32 21.78 32 43.56 32 66 C21.44 66 10.88 66 0 66 C0 44.22 0 22.44 0 0 Z " fill="#B74343" transform="translate(694,926)"/>
<path d="M0 0 C11.55 0 23.1 0 35 0 C35 11.22 35 22.44 35 34 C23.45 34 11.9 34 0 34 C0 22.78 0 11.56 0 0 Z " fill="#731414" transform="translate(362,958)"/>
<path d="M0 0 C11.22 0 22.44 0 34 0 C34 11.55 34 23.1 34 35 C22.78 35 11.56 35 0 35 C0 23.45 0 11.9 0 0 Z " fill="#CC1919" transform="translate(495,98)"/>
<path d="M0 0 C11.22 0 22.44 0 34 0 C34 11.22 34 22.44 34 34 C22.78 34 11.56 34 0 34 C0 22.78 0 11.56 0 0 Z " fill="#832F2F" transform="translate(429,958)"/>
<path d="M0 0 C11.22 0 22.44 0 34 0 C34 11.22 34 22.44 34 34 C22.78 34 11.56 34 0 34 C0 22.78 0 11.56 0 0 Z " fill="#B74343" transform="translate(792,759)"/>
<path d="M0 0 C11.22 0 22.44 0 34 0 C34 11.22 34 22.44 34 34 C22.78 34 11.56 34 0 34 C0 22.78 0 11.56 0 0 Z " fill="#CC5959" transform="translate(593,594)"/>
<path d="M0 0 C11.22 0 22.44 0 34 0 C34 11.22 34 22.44 34 34 C22.78 34 11.56 34 0 34 C0 22.78 0 11.56 0 0 Z " fill="#992B2B" transform="translate(495,594)"/>
<path d="M0 0 C11.22 0 22.44 0 34 0 C34 11.22 34 22.44 34 34 C22.78 34 11.56 34 0 34 C0 22.78 0 11.56 0 0 Z " fill="#7B1111" transform="translate(230,528)"/>
<path d="M0 0 C11.22 0 22.44 0 34 0 C34 11.22 34 22.44 34 34 C22.78 34 11.56 34 0 34 C0 22.78 0 11.56 0 0 Z " fill="#CC5959" transform="translate(726,462)"/>
<path d="M0 0 C11.22 0 22.44 0 34 0 C34 11.22 34 22.44 34 34 C22.78 34 11.56 34 0 34 C0 22.78 0 11.56 0 0 Z " fill="#CB1919" transform="translate(792,396)"/>
<path d="M0 0 C11.22 0 22.44 0 34 0 C34 10.89 34 21.78 34 33 C22.78 33 11.56 33 0 33 C0 22.11 0 11.22 0 0 Z " fill="#A63A3A" transform="translate(429,363)"/>
<path d="M0 0 C10.89 0 21.78 0 33 0 C33 11.22 33 22.44 33 34 C22.11 34 11.22 34 0 34 C0 22.78 0 11.56 0 0 Z " fill="#7B1111" transform="translate(627,165)"/>
<path d="M0 0 C11.55 0 23.1 0 35 0 C35 10.56 35 21.12 35 32 C23.45 32 11.9 32 0 32 C0 21.44 0 10.88 0 0 Z " fill="#CC1919" transform="translate(362,496)"/>
<path d="M0 0 C11.55 0 23.1 0 35 0 C35 10.56 35 21.12 35 32 C23.45 32 11.9 32 0 32 C0 21.44 0 10.88 0 0 Z " fill="#CC1919" transform="translate(362,430)"/>
<path d="M0 0 C11.22 0 22.44 0 34 0 C34 10.56 34 21.12 34 32 C22.78 32 11.56 32 0 32 C0 21.44 0 10.88 0 0 Z " fill="#B74343" transform="translate(660,992)"/>
<path d="M0 0 C10.56 0 21.12 0 32 0 C32 11.22 32 22.44 32 34 C21.44 34 10.88 34 0 34 C0 22.78 0 11.56 0 0 Z " fill="#D97D7D" transform="translate(694,759)"/>
<path d="M0 0 C10.56 0 21.12 0 32 0 C32 11.22 32 22.44 32 34 C21.44 34 10.88 34 0 34 C0 22.78 0 11.56 0 0 Z " fill="#CC1919" transform="translate(561,759)"/>
<path d="M0 0 C11.22 0 22.44 0 34 0 C34 10.56 34 21.12 34 32 C22.78 32 11.56 32 0 32 C0 21.44 0 10.88 0 0 Z " fill="#CC1919" transform="translate(726,661)"/>
<path d="M0 0 C10.56 0 21.12 0 32 0 C32 11.22 32 22.44 32 34 C21.44 34 10.88 34 0 34 C0 22.78 0 11.56 0 0 Z " fill="#7B1111" transform="translate(264,594)"/>
<path d="M0 0 C10.56 0 21.12 0 32 0 C32 11.22 32 22.44 32 34 C21.44 34 10.88 34 0 34 C0 22.78 0 11.56 0 0 Z " fill="#CC1919" transform="translate(760,528)"/>
<path d="M0 0 C10.56 0 21.12 0 32 0 C32 11.22 32 22.44 32 34 C21.44 34 10.88 34 0 34 C0 22.78 0 11.56 0 0 Z " fill="#D97D7D" transform="translate(463,528)"/>
<path d="M0 0 C11.22 0 22.44 0 34 0 C34 10.56 34 21.12 34 32 C22.78 32 11.56 32 0 32 C0 21.44 0 10.88 0 0 Z " fill="#7B1111" transform="translate(792,496)"/>
<path d="M0 0 C10.56 0 21.12 0 32 0 C32 11.22 32 22.44 32 34 C21.44 34 10.88 34 0 34 C0 22.78 0 11.56 0 0 Z " fill="#A63A3A" transform="translate(264,462)"/>
<path d="M0 0 C10.56 0 21.12 0 32 0 C32 11.22 32 22.44 32 34 C21.44 34 10.88 34 0 34 C0 22.78 0 11.56 0 0 Z " fill="#CC1919" transform="translate(694,297)"/>
<path d="M0 0 C10.56 0 21.12 0 32 0 C32 11.22 32 22.44 32 34 C21.44 34 10.88 34 0 34 C0 22.78 0 11.56 0 0 Z " fill="#CC5959" transform="translate(463,297)"/>
<path d="M0 0 C10.56 0 21.12 0 32 0 C32 11.22 32 22.44 32 34 C21.44 34 10.88 34 0 34 C0 22.78 0 11.56 0 0 Z " fill="#A63A3A" transform="translate(760,231)"/>
<path d="M0 0 C10.56 0 21.12 0 32 0 C32 11.22 32 22.44 32 34 C21.44 34 10.88 34 0 34 C0 22.78 0 11.56 0 0 Z " fill="#CC1919" transform="translate(694,165)"/>
<path d="M0 0 C11.22 0 22.44 0 34 0 C34 10.56 34 21.12 34 32 C22.78 32 11.56 32 0 32 C0 21.44 0 10.88 0 0 Z " fill="#7B1111" transform="translate(429,133)"/>
<path d="M0 0 C11.22 0 22.44 0 34 0 C34 10.56 34 21.12 34 32 C22.78 32 11.56 32 0 32 C0 21.44 0 10.88 0 0 Z " fill="#7B1111" transform="translate(726,66)"/>
<path d="M0 0 C10.56 0 21.12 0 32 0 C32 10.89 32 21.78 32 33 C21.44 33 10.88 33 0 33 C0 22.11 0 11.22 0 0 Z " fill="#CC5959" transform="translate(561,628)"/>
<path d="M0 0 C10.56 0 21.12 0 32 0 C32 10.89 32 21.78 32 33 C21.44 33 10.88 33 0 33 C0 22.11 0 11.22 0 0 Z " fill="#CC5959" transform="translate(330,628)"/>
<path d="M0 0 C10.89 0 21.78 0 33 0 C33 10.56 33 21.12 33 32 C22.11 32 11.22 32 0 32 C0 21.44 0 10.88 0 0 Z " fill="#7B1111" transform="translate(627,0)"/>
<path d="M0 0 C10.56 0 21.12 0 32 0 C32 10.56 32 21.12 32 32 C21.44 32 10.88 32 0 32 C0 21.44 0 10.88 0 0 Z " fill="#CC5959" transform="translate(397,926)"/>
<path d="M0 0 C10.56 0 21.12 0 32 0 C32 10.56 32 21.12 32 32 C21.44 32 10.88 32 0 32 C0 21.44 0 10.88 0 0 Z " fill="#CC5959" transform="translate(463,859)"/>
<path d="M0 0 C10.56 0 21.12 0 32 0 C32 10.56 32 21.12 32 32 C21.44 32 10.88 32 0 32 C0 21.44 0 10.88 0 0 Z " fill="#D97D7D" transform="translate(397,859)"/>
<path d="M0 0 C10.56 0 21.12 0 32 0 C32 10.56 32 21.12 32 32 C21.44 32 10.88 32 0 32 C0 21.44 0 10.88 0 0 Z " fill="#7B1111" transform="translate(694,793)"/>
<path d="M0 0 C10.56 0 21.12 0 32 0 C32 10.56 32 21.12 32 32 C21.44 32 10.88 32 0 32 C0 21.44 0 10.88 0 0 Z " fill="#CC5959" transform="translate(397,793)"/>
<path d="M0 0 C10.56 0 21.12 0 32 0 C32 10.56 32 21.12 32 32 C21.44 32 10.88 32 0 32 C0 21.44 0 10.88 0 0 Z " fill="#CC1919" transform="translate(529,727)"/>
<path d="M0 0 C10.56 0 21.12 0 32 0 C32 10.56 32 21.12 32 32 C21.44 32 10.88 32 0 32 C0 21.44 0 10.88 0 0 Z " fill="#CC5959" transform="translate(561,562)"/>
<path d="M0 0 C10.56 0 21.12 0 32 0 C32 10.56 32 21.12 32 32 C21.44 32 10.88 32 0 32 C0 21.44 0 10.88 0 0 Z " fill="#7B1111" transform="translate(198,496)"/>
<path d="M0 0 C10.56 0 21.12 0 32 0 C32 10.56 32 21.12 32 32 C21.44 32 10.88 32 0 32 C0 21.44 0 10.88 0 0 Z " fill="#7B1111" transform="translate(760,133)"/>
<path d="M0 0 C10.56 0 21.12 0 32 0 C32 10.56 32 21.12 32 32 C21.44 32 10.88 32 0 32 C0 21.44 0 10.88 0 0 Z " fill="#7B1111" transform="translate(397,66)"/>
<path d="M0 0 C10.56 0 21.12 0 32 0 C32 10.56 32 21.12 32 32 C21.44 32 10.88 32 0 32 C0 21.44 0 10.88 0 0 Z " fill="#CC1919" transform="translate(561,0)"/>
</svg>
