<?xml version="1.0" encoding="UTF-8"?>
<svg version="1.1" xmlns="http://www.w3.org/2000/svg" width="1024" height="1024">
<path d="M0 0 C11.22 0 22.44 0 34 0 C34 10.89 34 21.78 34 33 C99.34 33 164.68 33 232 33 C232 43.89 232 54.78 232 66 C242.89 66 253.78 66 265 66 C265 87.78 265 109.56 265 132 C275.89 132 286.78 132 298 132 C298 142.89 298 153.78 298 165 C308.89 165 319.78 165 331 165 C331 186.78 331 208.56 331 231 C341.89 231 352.78 231 364 231 C364 318.45 364 405.9 364 496 C353.11 496 342.22 496 331 496 C331 517.78 331 539.56 331 562 C320.11 562 309.22 562 298 562 C298 583.78 298 605.56 298 628 C287.11 628 276.22 628 265 628 C265 638.89 265 649.78 265 661 C254.11 661 243.22 661 232 661 C232 650.11 232 639.22 232 628 C221.11 628 210.22 628 199 628 C199 638.89 199 649.78 199 661 C177.22 661 155.44 661 133 661 C133 671.89 133 682.78 133 694 C122.11 694 111.22 694 100 694 C100 683.11 100 672.22 100 661 C78.22 661 56.44 661 34 661 C34 671.89 34 682.78 34 694 C22.78 694 11.56 694 0 694 C0 683.11 0 672.22 0 661 C-32.67 661 -65.34 661 -99 661 C-99 650.11 -99 639.22 -99 628 C-109.89 628 -120.78 628 -132 628 C-132 638.89 -132 649.78 -132 661 C-142.89 661 -153.78 661 -165 661 C-165 650.11 -165 639.22 -165 628 C-175.89 628 -186.78 628 -198 628 C-198 617.11 -198 606.22 -198 595 C-208.89 595 -219.78 595 -231 595 C-231 573.22 -231 551.44 -231 529 C-241.89 529 -252.78 529 -264 529 C-264 518.11 -264 507.22 -264 496 C-274.89 496 -285.78 496 -297 496 C-297 485.11 -297 474.22 -297 463 C-286.11 463 -275.22 463 -264 463 C-264 419.44 -264 375.88 -264 331 C-274.89 331 -285.78 331 -297 331 C-297 319.78 -297 308.56 -297 297 C-286.11 297 -275.22 297 -264 297 C-264 286.11 -264 275.22 -264 264 C-253.11 264 -242.22 264 -231 264 C-231 242.22 -231 220.44 -231 198 C-241.89 198 -252.78 198 -264 198 C-264 187.11 -264 176.22 -264 165 C-253.11 165 -242.22 165 -231 165 C-231 154.11 -231 143.22 -231 132 C-209.22 132 -187.44 132 -165 132 C-165 121.11 -165 110.22 -165 99 C-154.11 99 -143.22 99 -132 99 C-132 88.11 -132 77.22 -132 66 C-110.22 66 -88.44 66 -66 66 C-66 55.11 -66 44.22 -66 33 C-44.22 33 -22.44 33 0 33 C0 22.11 0 11.22 0 0 Z " fill="#079CBB" transform="translate(495,198)"/>
<path d="M0 0 C76.56 0 153.12 0 232 0 C232 10.89 232 21.78 232 33 C242.89 33 253.78 33 265 33 C265 43.89 265 54.78 265 66 C275.89 66 286.78 66 298 66 C298 87.78 298 109.56 298 132 C308.89 132 319.78 132 331 132 C331 197.67 331 263.34 331 331 C320.11 331 309.22 331 298 331 C298 341.89 298 352.78 298 364 C287.11 364 276.22 364 265 364 C265 374.89 265 385.78 265 397 C243.22 397 221.44 397 199 397 C199 407.89 199 418.78 199 430 C155.11 430 111.22 430 66 430 C66 419.11 66 408.22 66 397 C44.22 397 22.44 397 0 397 C0 386.11 0 375.22 0 364 C-10.89 364 -21.78 364 -33 364 C-33 353.11 -33 342.22 -33 331 C-54.78 331 -76.56 331 -99 331 C-99 320.11 -99 309.22 -99 298 C-109.89 298 -120.78 298 -132 298 C-132 265.33 -132 232.66 -132 199 C-121.11 199 -110.22 199 -99 199 C-99 166 -99 133 -99 99 C-88.11 99 -77.22 99 -66 99 C-66 88.11 -66 77.22 -66 66 C-55.11 66 -44.22 66 -33 66 C-33 55.11 -33 44.22 -33 33 C-22.11 33 -11.22 33 0 33 C0 22.11 0 11.22 0 0 Z " fill="#11C8EE" transform="translate(429,330)"/>
<path d="M0 0 C21.78 0 43.56 0 66 0 C66 10.89 66 21.78 66 33 C55.11 33 44.22 33 33 33 C33 76.56 33 120.12 33 165 C22.11 165 11.22 165 0 165 C0 230.67 0 296.34 0 364 C10.89 364 21.78 364 33 364 C33 385.78 33 407.56 33 430 C43.89 430 54.78 430 66 430 C66 440.89 66 451.78 66 463 C87.78 463 109.56 463 132 463 C132 473.89 132 484.78 132 496 C121.11 496 110.22 496 99 496 C99 506.89 99 517.78 99 529 C88.11 529 77.22 529 66 529 C66 518.11 66 507.22 66 496 C55.11 496 44.22 496 33 496 C33 485.11 33 474.22 33 463 C22.11 463 11.22 463 0 463 C0 441.22 0 419.44 0 397 C-10.89 397 -21.78 397 -33 397 C-33 386.11 -33 375.22 -33 364 C-43.89 364 -54.78 364 -66 364 C-66 353.11 -66 342.22 -66 331 C-55.11 331 -44.22 331 -33 331 C-33 287.44 -33 243.88 -33 199 C-43.89 199 -54.78 199 -66 199 C-66 187.78 -66 176.56 -66 165 C-55.11 165 -44.22 165 -33 165 C-33 154.11 -33 143.22 -33 132 C-22.11 132 -11.22 132 0 132 C0 110.22 0 88.44 0 66 C-10.89 66 -21.78 66 -33 66 C-33 55.11 -33 44.22 -33 33 C-22.11 33 -11.22 33 0 33 C0 22.11 0 11.22 0 0 Z " fill="#077288" transform="translate(264,330)"/>
<path d="M0 0 C10.89 0 21.78 0 33 0 C33 21.78 33 43.56 33 66 C43.89 66 54.78 66 66 66 C66 153.45 66 240.9 66 331 C55.11 331 44.22 331 33 331 C33 352.78 33 374.56 33 397 C22.11 397 11.22 397 0 397 C0 418.78 0 440.56 0 463 C-10.89 463 -21.78 463 -33 463 C-33 473.89 -33 484.78 -33 496 C-43.89 496 -54.78 496 -66 496 C-66 485.11 -66 474.22 -66 463 C-76.89 463 -87.78 463 -99 463 C-99 452.11 -99 441.22 -99 430 C-77.22 430 -55.44 430 -33 430 C-33 408.22 -33 386.44 -33 364 C-22.11 364 -11.22 364 0 364 C0 342.22 0 320.44 0 298 C10.89 298 21.78 298 33 298 C33 254.44 33 210.88 33 166 C22.11 166 11.22 166 0 166 C0 111.22 0 56.44 0 0 Z " fill="#077288" transform="translate(793,363)"/>
<path d="M0 0 C11.22 0 22.44 0 34 0 C34 10.89 34 21.78 34 33 C99.34 33 164.68 33 232 33 C232 43.89 232 54.78 232 66 C242.89 66 253.78 66 265 66 C265 87.78 265 109.56 265 132 C254.11 132 243.22 132 232 132 C232 121.11 232 110.22 232 99 C188.44 99 144.88 99 100 99 C100 88.11 100 77.22 100 66 C56.11 66 12.22 66 -33 66 C-33 76.89 -33 87.78 -33 99 C-54.78 99 -76.56 99 -99 99 C-99 109.89 -99 120.78 -99 132 C-120.78 132 -142.56 132 -165 132 C-165 121.11 -165 110.22 -165 99 C-154.11 99 -143.22 99 -132 99 C-132 88.11 -132 77.22 -132 66 C-110.22 66 -88.44 66 -66 66 C-66 55.11 -66 44.22 -66 33 C-44.22 33 -22.44 33 0 33 C0 22.11 0 11.22 0 0 Z " fill="#077288" transform="translate(495,198)"/>
<path d="M0 0 C43.89 0 87.78 0 133 0 C133 43.89 133 87.78 133 133 C89.11 133 45.22 133 0 133 C0 89.11 0 45.22 0 0 Z " fill="#4ED9F7" transform="translate(495,462)"/>
<path d="M0 0 C98.34 0 196.68 0 298 0 C298 10.89 298 21.78 298 33 C276.22 33 254.44 33 232 33 C232 43.89 232 54.78 232 66 C221.11 66 210.22 66 199 66 C199 55.11 199 44.22 199 33 C177.22 33 155.44 33 133 33 C133 43.89 133 54.78 133 66 C121.78 66 110.56 66 99 66 C99 55.11 99 44.22 99 33 C66.33 33 33.66 33 0 33 C0 22.11 0 11.22 0 0 Z " fill="#077288" transform="translate(396,826)"/>
<path d="M0 0 C43.89 0 87.78 0 133 0 C133 10.89 133 21.78 133 33 C89.11 33 45.22 33 0 33 C0 22.11 0 11.22 0 0 Z " fill="#000000" transform="translate(495,595)"/>
<path d="M0 0 C10.89 0 21.78 0 33 0 C33 43.89 33 87.78 33 133 C22.11 133 11.22 133 0 133 C0 89.11 0 45.22 0 0 Z " fill="#000000" transform="translate(628,462)"/>
<path d="M0 0 C10.89 0 21.78 0 33 0 C33 43.89 33 87.78 33 133 C22.11 133 11.22 133 0 133 C0 89.11 0 45.22 0 0 Z " fill="#000000" transform="translate(462,462)"/>
<path d="M0 0 C43.89 0 87.78 0 133 0 C133 10.89 133 21.78 133 33 C89.11 33 45.22 33 0 33 C0 22.11 0 11.22 0 0 Z " fill="#000000" transform="translate(495,429)"/>
<path d="M0 0 C11.22 0 22.44 0 34 0 C34 21.78 34 43.56 34 66 C22.78 66 11.56 66 0 66 C0 44.22 0 22.44 0 0 Z " fill="#11C8EE" transform="translate(495,925)"/>
<path d="M0 0 C10.89 0 21.78 0 33 0 C33 22.11 33 44.22 33 67 C22.11 67 11.22 67 0 67 C0 44.89 0 22.78 0 0 Z " fill="#11C8EE" transform="translate(595,495)"/>
<path d="M0 0 C11.22 0 22.44 0 34 0 C34 10.89 34 21.78 34 33 C22.78 33 11.56 33 0 33 C0 22.11 0 11.22 0 0 Z " fill="#079CBB" transform="translate(495,925)"/>
<path d="M0 0 C11.22 0 22.44 0 34 0 C34 10.89 34 21.78 34 33 C22.78 33 11.56 33 0 33 C0 22.11 0 11.22 0 0 Z " fill="#11C8EE" transform="translate(495,859)"/>
<path d="M0 0 C10.89 0 21.78 0 33 0 C33 11.22 33 22.44 33 34 C22.11 34 11.22 34 0 34 C0 22.78 0 11.56 0 0 Z " fill="#079CBB" transform="translate(198,495)"/>
<path d="M0 0 C11.22 0 22.44 0 34 0 C34 10.89 34 21.78 34 33 C22.78 33 11.56 33 0 33 C0 22.11 0 11.22 0 0 Z " fill="#079CBB" transform="translate(495,198)"/>
<path d="M0 0 C11.22 0 22.44 0 34 0 C34 10.89 34 21.78 34 33 C22.78 33 11.56 33 0 33 C0 22.11 0 11.22 0 0 Z " fill="#15C4EA" transform="translate(495,132)"/>
<path d="M0 0 C10.89 0 21.78 0 33 0 C33 10.89 33 21.78 33 33 C22.11 33 11.22 33 0 33 C0 22.11 0 11.22 0 0 Z " fill="#11C8EE" transform="translate(694,991)"/>
<path d="M0 0 C10.89 0 21.78 0 33 0 C33 10.89 33 21.78 33 33 C22.11 33 11.22 33 0 33 C0 22.11 0 11.22 0 0 Z " fill="#11C8EE" transform="translate(760,958)"/>
<path d="M0 0 C10.89 0 21.78 0 33 0 C33 10.89 33 21.78 33 33 C22.11 33 11.22 33 0 33 C0 22.11 0 11.22 0 0 Z " fill="#079CBB" transform="translate(595,958)"/>
<path d="M0 0 C10.89 0 21.78 0 33 0 C33 10.89 33 21.78 33 33 C22.11 33 11.22 33 0 33 C0 22.11 0 11.22 0 0 Z " fill="#079CBB" transform="translate(661,925)"/>
<path d="M0 0 C10.89 0 21.78 0 33 0 C33 10.89 33 21.78 33 33 C22.11 33 11.22 33 0 33 C0 22.11 0 11.22 0 0 Z " fill="#11C8EE" transform="translate(396,925)"/>
<path d="M0 0 C10.89 0 21.78 0 33 0 C33 10.89 33 21.78 33 33 C22.11 33 11.22 33 0 33 C0 22.11 0 11.22 0 0 Z " fill="#11C8EE" transform="translate(826,892)"/>
<path d="M0 0 C10.89 0 21.78 0 33 0 C33 10.89 33 21.78 33 33 C22.11 33 11.22 33 0 33 C0 22.11 0 11.22 0 0 Z " fill="#079CBB" transform="translate(760,892)"/>
<path d="M0 0 C10.89 0 21.78 0 33 0 C33 10.89 33 21.78 33 33 C22.11 33 11.22 33 0 33 C0 22.11 0 11.22 0 0 Z " fill="#079CBB" transform="translate(363,892)"/>
<path d="M0 0 C10.89 0 21.78 0 33 0 C33 10.89 33 21.78 33 33 C22.11 33 11.22 33 0 33 C0 22.11 0 11.22 0 0 Z " fill="#079CBB" transform="translate(595,859)"/>
<path d="M0 0 C10.89 0 21.78 0 33 0 C33 10.89 33 21.78 33 33 C22.11 33 11.22 33 0 33 C0 22.11 0 11.22 0 0 Z " fill="#079CBB" transform="translate(264,859)"/>
<path d="M0 0 C10.89 0 21.78 0 33 0 C33 10.89 33 21.78 33 33 C22.11 33 11.22 33 0 33 C0 22.11 0 11.22 0 0 Z " fill="#15C4EA" transform="translate(727,826)"/>
<path d="M0 0 C10.89 0 21.78 0 33 0 C33 10.89 33 21.78 33 33 C22.11 33 11.22 33 0 33 C0 22.11 0 11.22 0 0 Z " fill="#11C8EE" transform="translate(330,826)"/>
<path d="M0 0 C10.89 0 21.78 0 33 0 C33 10.89 33 21.78 33 33 C22.11 33 11.22 33 0 33 C0 22.11 0 11.22 0 0 Z " fill="#11C8EE" transform="translate(826,793)"/>
<path d="M0 0 C10.89 0 21.78 0 33 0 C33 10.89 33 21.78 33 33 C22.11 33 11.22 33 0 33 C0 22.11 0 11.22 0 0 Z " fill="#11C8EE" transform="translate(231,793)"/>
<path d="M0 0 C10.89 0 21.78 0 33 0 C33 10.89 33 21.78 33 33 C22.11 33 11.22 33 0 33 C0 22.11 0 11.22 0 0 Z " fill="#079CBB" transform="translate(198,760)"/>
<path d="M0 0 C10.89 0 21.78 0 33 0 C33 10.89 33 21.78 33 33 C22.11 33 11.22 33 0 33 C0 22.11 0 11.22 0 0 Z " fill="#11C8EE" transform="translate(198,661)"/>
<path d="M0 0 C10.89 0 21.78 0 33 0 C33 10.89 33 21.78 33 33 C22.11 33 11.22 33 0 33 C0 22.11 0 11.22 0 0 Z " fill="#4ED9F7" transform="translate(231,363)"/>
<path d="M0 0 C10.89 0 21.78 0 33 0 C33 10.89 33 21.78 33 33 C22.11 33 11.22 33 0 33 C0 22.11 0 11.22 0 0 Z " fill="#079CBB" transform="translate(165,363)"/>
<path d="M0 0 C10.89 0 21.78 0 33 0 C33 10.89 33 21.78 33 33 C22.11 33 11.22 33 0 33 C0 22.11 0 11.22 0 0 Z " fill="#11C8EE" transform="translate(826,297)"/>
<path d="M0 0 C10.89 0 21.78 0 33 0 C33 10.89 33 21.78 33 33 C22.11 33 11.22 33 0 33 C0 22.11 0 11.22 0 0 Z " fill="#079CBB" transform="translate(198,297)"/>
<path d="M0 0 C10.89 0 21.78 0 33 0 C33 10.89 33 21.78 33 33 C22.11 33 11.22 33 0 33 C0 22.11 0 11.22 0 0 Z " fill="#4ED9F7" transform="translate(297,264)"/>
<path d="M0 0 C10.89 0 21.78 0 33 0 C33 10.89 33 21.78 33 33 C22.11 33 11.22 33 0 33 C0 22.11 0 11.22 0 0 Z " fill="#079CBB" transform="translate(165,264)"/>
<path d="M0 0 C10.89 0 21.78 0 33 0 C33 10.89 33 21.78 33 33 C22.11 33 11.22 33 0 33 C0 22.11 0 11.22 0 0 Z " fill="#079CBB" transform="translate(760,231)"/>
<path d="M0 0 C10.89 0 21.78 0 33 0 C33 10.89 33 21.78 33 33 C22.11 33 11.22 33 0 33 C0 22.11 0 11.22 0 0 Z " fill="#079CBB" transform="translate(264,231)"/>
<path d="M0 0 C10.89 0 21.78 0 33 0 C33 10.89 33 21.78 33 33 C22.11 33 11.22 33 0 33 C0 22.11 0 11.22 0 0 Z " fill="#11C8EE" transform="translate(198,231)"/>
<path d="M0 0 C10.89 0 21.78 0 33 0 C33 10.89 33 21.78 33 33 C22.11 33 11.22 33 0 33 C0 22.11 0 11.22 0 0 Z " fill="#11C8EE" transform="translate(793,198)"/>
<path d="M0 0 C10.89 0 21.78 0 33 0 C33 10.89 33 21.78 33 33 C22.11 33 11.22 33 0 33 C0 22.11 0 11.22 0 0 Z " fill="#4ED9F7" transform="translate(363,198)"/>
<path d="M0 0 C10.89 0 21.78 0 33 0 C33 10.89 33 21.78 33 33 C22.11 33 11.22 33 0 33 C0 22.11 0 11.22 0 0 Z " fill="#079CBB" transform="translate(661,165)"/>
<path d="M0 0 C10.89 0 21.78 0 33 0 C33 10.89 33 21.78 33 33 C22.11 33 11.22 33 0 33 C0 22.11 0 11.22 0 0 Z " fill="#079CBB" transform="translate(595,165)"/>
<path d="M0 0 C10.89 0 21.78 0 33 0 C33 10.89 33 21.78 33 33 C22.11 33 11.22 33 0 33 C0 22.11 0 11.22 0 0 Z " fill="#079CBB" transform="translate(429,165)"/>
<path d="M0 0 C10.89 0 21.78 0 33 0 C33 10.89 33 21.78 33 33 C22.11 33 11.22 33 0 33 C0 22.11 0 11.22 0 0 Z " fill="#079CBB" transform="translate(330,165)"/>
<path d="M0 0 C10.89 0 21.78 0 33 0 C33 10.89 33 21.78 33 33 C22.11 33 11.22 33 0 33 C0 22.11 0 11.22 0 0 Z " fill="#11C8EE" transform="translate(264,165)"/>
<path d="M0 0 C10.89 0 21.78 0 33 0 C33 10.89 33 21.78 33 33 C22.11 33 11.22 33 0 33 C0 22.11 0 11.22 0 0 Z " fill="#15C4EA" transform="translate(727,132)"/>
<path d="M0 0 C10.89 0 21.78 0 33 0 C33 10.89 33 21.78 33 33 C22.11 33 11.22 33 0 33 C0 22.11 0 11.22 0 0 Z " fill="#079CBB" transform="translate(396,132)"/>
<path d="M0 0 C10.89 0 21.78 0 33 0 C33 10.89 33 21.78 33 33 C22.11 33 11.22 33 0 33 C0 22.11 0 11.22 0 0 Z " fill="#079CBB" transform="translate(793,99)"/>
<path d="M0 0 C10.89 0 21.78 0 33 0 C33 10.89 33 21.78 33 33 C22.11 33 11.22 33 0 33 C0 22.11 0 11.22 0 0 Z " fill="#4ED9F7" transform="translate(595,99)"/>
<path d="M0 0 C10.89 0 21.78 0 33 0 C33 10.89 33 21.78 33 33 C22.11 33 11.22 33 0 33 C0 22.11 0 11.22 0 0 Z " fill="#11C8EE" transform="translate(396,66)"/>
<path d="M0 0 C10.89 0 21.78 0 33 0 C33 10.89 33 21.78 33 33 C22.11 33 11.22 33 0 33 C0 22.11 0 11.22 0 0 Z " fill="#11C8EE" transform="translate(727,33)"/>
<path d="M0 0 C10.89 0 21.78 0 33 0 C33 10.89 33 21.78 33 33 C22.11 33 11.22 33 0 33 C0 22.11 0 11.22 0 0 Z " fill="#079CBB" transform="translate(628,33)"/>
<path d="M0 0 C10.89 0 21.78 0 33 0 C33 10.89 33 21.78 33 33 C22.11 33 11.22 33 0 33 C0 22.11 0 11.22 0 0 Z " fill="#079CBB" transform="translate(529,33)"/>
<path d="M0 0 C10.89 0 21.78 0 33 0 C33 10.89 33 21.78 33 33 C22.11 33 11.22 33 0 33 C0 22.11 0 11.22 0 0 Z " fill="#11C8EE" transform="translate(793,0)"/>
<path d="M0 0 C10.89 0 21.78 0 33 0 C33 10.89 33 21.78 33 33 C22.11 33 11.22 33 0 33 C0 22.11 0 11.22 0 0 Z " fill="#079CBB" transform="translate(694,0)"/>
<path d="M0 0 C10.89 0 21.78 0 33 0 C33 10.89 33 21.78 33 33 C22.11 33 11.22 33 0 33 C0 22.11 0 11.22 0 0 Z " fill="#079CBB" transform="translate(462,0)"/>
</svg>
