<?xml version="1.0" encoding="UTF-8"?>
<svg version="1.1" xmlns="http://www.w3.org/2000/svg" width="1024" height="1024">
<path d="M0 0 C54.78 0 109.56 0 166 0 C166 18.15 166 36.3 166 55 C202.3 55 238.6 55 276 55 C276 73.48 276 91.96 276 111 C294.48 111 312.96 111 332 111 C332 147.63 332 184.26 332 222 C350.15 222 368.3 222 387 222 C387 276.78 387 331.56 387 388 C368.85 388 350.7 388 332 388 C332 424.3 332 460.6 332 498 C313.52 498 295.04 498 276 498 C276 516.48 276 534.96 276 554 C239.7 554 203.4 554 166 554 C166 572.15 166 590.3 166 609 C111.22 609 56.44 609 0 609 C0 590.85 0 572.7 0 554 C-36.63 554 -73.26 554 -111 554 C-111 535.52 -111 517.04 -111 498 C-129.15 498 -147.3 498 -166 498 C-166 461.7 -166 425.4 -166 388 C-184.48 388 -202.96 388 -222 388 C-222 333.22 -222 278.44 -222 222 C-203.52 222 -185.04 222 -166 222 C-166 185.37 -166 148.74 -166 111 C-147.85 111 -129.7 111 -111 111 C-111 92.52 -111 74.04 -111 55 C-74.37 55 -37.74 55 0 55 C0 36.85 0 18.7 0 0 Z " fill="#840FB2" transform="translate(457,415)"/>
<path d="M0 0 C18.15 0 36.3 0 55 0 C55 18.48 55 36.96 55 56 C73.48 56 91.96 56 111 56 C111 74.15 111 92.3 111 111 C129.15 111 147.3 111 166 111 C166 129.48 166 147.96 166 167 C184.15 167 202.3 167 221 167 C221 185.15 221 203.3 221 222 C239.48 222 257.96 222 277 222 C277 240.15 277 258.3 277 277 C258.52 277 240.04 277 221 277 C221 295.48 221 313.96 221 333 C202.85 333 184.7 333 166 333 C166 351.15 166 369.3 166 388 C147.85 388 129.7 388 111 388 C111 406.15 111 424.3 111 443 C92.52 443 74.04 443 55 443 C55 461.48 55 479.96 55 499 C36.85 499 18.7 499 0 499 C0 480.52 0 462.04 0 443 C-18.15 443 -36.3 443 -55 443 C-55 424.85 -55 406.7 -55 388 C-73.48 388 -91.96 388 -111 388 C-111 369.85 -111 351.7 -111 333 C-129.15 333 -147.3 333 -166 333 C-166 314.52 -166 296.04 -166 277 C-184.15 277 -202.3 277 -221 277 C-221 258.85 -221 240.7 -221 222 C-202.85 222 -184.7 222 -166 222 C-166 203.85 -166 185.7 -166 167 C-147.85 167 -129.7 167 -111 167 C-111 148.52 -111 130.04 -111 111 C-92.52 111 -74.04 111 -55 111 C-55 92.85 -55 74.7 -55 56 C-36.85 56 -18.7 56 0 56 C0 37.52 0 19.04 0 0 Z " fill="#C84FF8" transform="translate(512,470)"/>
<path d="M0 0 C18.15 0 36.3 0 55 0 C55 18.48 55 36.96 55 56 C73.48 56 91.96 56 111 56 C111 74.15 111 92.3 111 111 C129.15 111 147.3 111 166 111 C166 129.15 166 147.3 166 166 C147.85 166 129.7 166 111 166 C111 184.48 111 202.96 111 222 C92.52 222 74.04 222 55 222 C55 240.15 55 258.3 55 277 C36.85 277 18.7 277 0 277 C0 258.85 0 240.7 0 222 C-18.15 222 -36.3 222 -55 222 C-55 203.52 -55 185.04 -55 166 C-73.48 166 -91.96 166 -111 166 C-111 147.85 -111 129.7 -111 111 C-92.52 111 -74.04 111 -55 111 C-55 92.85 -55 74.7 -55 56 C-36.85 56 -18.7 56 0 56 C0 37.52 0 19.04 0 0 Z " fill="#610B82" transform="translate(512,581)"/>
<path d="M0 0 C18.15 0 36.3 0 55 0 C55 54.78 55 109.56 55 166 C36.85 166 18.7 166 0 166 C0 184.15 0 202.3 0 221 C18.15 221 36.3 221 55 221 C55 275.78 55 330.56 55 387 C36.85 387 18.7 387 0 387 C0 350.7 0 314.4 0 277 C-18.48 277 -36.96 277 -56 277 C-56 222.22 -56 167.44 -56 111 C-37.52 111 -19.04 111 0 111 C0 74.37 0 37.74 0 0 Z " fill="#840FB2" transform="translate(291,526)"/>
<path d="M0 0 C18.15 0 36.3 0 55 0 C55 18.48 55 36.96 55 56 C73.48 56 91.96 56 111 56 C111 74.15 111 92.3 111 111 C129.15 111 147.3 111 166 111 C166 129.48 166 147.96 166 167 C129.37 167 92.74 167 55 167 C55 148.52 55 130.04 55 111 C36.85 111 18.7 111 0 111 C0 129.48 0 147.96 0 167 C-36.63 167 -73.26 167 -111 167 C-111 148.52 -111 130.04 -111 111 C-92.52 111 -74.04 111 -55 111 C-55 92.85 -55 74.7 -55 56 C-36.85 56 -18.7 56 0 56 C0 37.52 0 19.04 0 0 Z " fill="#C84FF8" transform="translate(512,470)"/>
<path d="M0 0 C18.15 0 36.3 0 55 0 C55 54.78 55 109.56 55 166 C36.85 166 18.7 166 0 166 C0 202.3 0 238.6 0 276 C-18.48 276 -36.96 276 -56 276 C-56 221.22 -56 166.44 -56 110 C-37.52 110 -19.04 110 0 110 C0 73.7 0 37.4 0 0 Z " fill="#840FB2" transform="translate(789,637)"/>
<path d="M0 0 C54.78 0 109.56 0 166 0 C166 54.78 166 109.56 166 166 C147.52 166 129.04 166 110 166 C110 147.85 110 129.7 110 111 C91.85 111 73.7 111 55 111 C55 92.52 55 74.04 55 55 C36.85 55 18.7 55 0 55 C0 36.85 0 18.7 0 0 Z " fill="#840FB2" transform="translate(623,526)"/>
<path d="M0 0 C18.15 0 36.3 0 55 0 C55 54.78 55 109.56 55 166 C0.22 166 -54.56 166 -111 166 C-111 147.52 -111 129.04 -111 110 C-92.52 110 -74.04 110 -55 110 C-55 91.85 -55 73.7 -55 55 C-36.85 55 -18.7 55 0 55 C0 36.85 0 18.7 0 0 Z " fill="#840FB2" transform="translate(678,803)"/>
<path d="M0 0 C36.3 0 72.6 0 110 0 C110 18.15 110 36.3 110 55 C128.48 55 146.96 55 166 55 C166 73.15 166 91.3 166 110 C147.52 110 129.04 110 110 110 C110 128.48 110 146.96 110 166 C91.85 166 73.7 166 55 166 C55 129.37 55 92.74 55 55 C36.85 55 18.7 55 0 55 C0 36.85 0 18.7 0 0 Z " fill="#C84FF8" transform="translate(623,637)"/>
<path d="M0 0 C36.63 0 73.26 0 111 0 C111 18.15 111 36.3 111 55 C92.52 55 74.04 55 55 55 C55 91.63 55 128.26 55 166 C36.85 166 18.7 166 0 166 C0 147.52 0 129.04 0 110 C-18.15 110 -36.3 110 -55 110 C-55 91.85 -55 73.7 -55 55 C-36.85 55 -18.7 55 0 55 C0 36.85 0 18.7 0 0 Z " fill="#C84FF8" transform="translate(346,637)"/>
<path d="M0 0 C18.15 0 36.3 0 55 0 C55 36.63 55 73.26 55 111 C18.37 111 -18.26 111 -56 111 C-56 92.85 -56 74.7 -56 56 C-37.52 56 -19.04 56 0 56 C0 37.52 0 19.04 0 0 Z " fill="#DF94FD" transform="translate(623,747)"/>
<path d="M0 0 C36.63 0 73.26 0 111 0 C111 18.15 111 36.3 111 55 C92.52 55 74.04 55 55 55 C55 73.48 55 91.96 55 111 C36.85 111 18.7 111 0 111 C0 74.37 0 37.74 0 0 Z " fill="#A520DA" transform="translate(346,526)"/>
<path d="M0 0 C54.78 0 109.56 0 166 0 C166 18.15 166 36.3 166 55 C111.22 55 56.44 55 0 55 C0 36.85 0 18.7 0 0 Z " fill="#840FB2" transform="translate(457,969)"/>
<path d="M0 0 C18.15 0 36.3 0 55 0 C55 18.15 55 36.3 55 55 C73.48 55 91.96 55 111 55 C111 73.15 111 91.3 111 110 C74.37 110 37.74 110 0 110 C0 73.7 0 37.4 0 0 Z " fill="#A520DA" transform="translate(346,803)"/>
<path d="M0 0 C36.3 0 72.6 0 110 0 C110 36.63 110 73.26 110 111 C91.85 111 73.7 111 55 111 C55 92.52 55 74.04 55 55 C36.85 55 18.7 55 0 55 C0 36.85 0 18.7 0 0 Z " fill="#A520DA" transform="translate(623,526)"/>
<path d="M0 0 C18.15 0 36.3 0 55 0 C55 36.3 55 72.6 55 110 C18.7 110 -17.6 110 -55 110 C-55 91.85 -55 73.7 -55 55 C-36.85 55 -18.7 55 0 55 C0 36.85 0 18.7 0 0 Z " fill="#A520DA" transform="translate(678,803)"/>
<path d="M0 0 C18.48 0 36.96 0 56 0 C56 36.63 56 73.26 56 111 C37.52 111 19.04 111 0 111 C0 74.37 0 37.74 0 0 Z " fill="#DF94FD" transform="translate(401,747)"/>
<path d="M0 0 C36.63 0 73.26 0 111 0 C111 18.48 111 36.96 111 56 C74.37 56 37.74 56 0 56 C0 37.52 0 19.04 0 0 Z " fill="#DF94FD" transform="translate(567,581)"/>
<path d="M0 0 C36.63 0 73.26 0 111 0 C111 18.48 111 36.96 111 56 C74.37 56 37.74 56 0 56 C0 37.52 0 19.04 0 0 Z " fill="#840FB2" transform="translate(346,470)"/>
<path d="M0 0 C18.48 0 36.96 0 56 0 C56 36.3 56 72.6 56 110 C37.52 110 19.04 110 0 110 C0 73.7 0 37.4 0 0 Z " fill="#840FB2" transform="translate(733,803)"/>
<path d="M0 0 C36.3 0 72.6 0 110 0 C110 18.48 110 36.96 110 56 C73.7 56 37.4 56 0 56 C0 37.52 0 19.04 0 0 Z " fill="#840FB2" transform="translate(623,470)"/>
<path d="M0 0 C18.15 0 36.3 0 55 0 C55 36.3 55 72.6 55 110 C36.85 110 18.7 110 0 110 C0 73.7 0 37.4 0 0 Z " fill="#840FB2" transform="translate(291,803)"/>
<path d="M0 0 C18.48 0 36.96 0 56 0 C56 18.48 56 36.96 56 56 C37.52 56 19.04 56 0 56 C0 37.52 0 19.04 0 0 Z " fill="#A520DA" transform="translate(567,913)"/>
<path d="M0 0 C18.48 0 36.96 0 56 0 C56 18.48 56 36.96 56 56 C37.52 56 19.04 56 0 56 C0 37.52 0 19.04 0 0 Z " fill="#A520DA" transform="translate(733,747)"/>
<path d="M0 0 C18.48 0 36.96 0 56 0 C56 18.48 56 36.96 56 56 C37.52 56 19.04 56 0 56 C0 37.52 0 19.04 0 0 Z " fill="#FCFCFC" transform="translate(401,581)"/>
<path d="M0 0 C18.48 0 36.96 0 56 0 C56 18.48 56 36.96 56 56 C37.52 56 19.04 56 0 56 C0 37.52 0 19.04 0 0 Z " fill="#A520DA" transform="translate(567,470)"/>
<path d="M0 0 C18.48 0 36.96 0 56 0 C56 18.48 56 36.96 56 56 C37.52 56 19.04 56 0 56 C0 37.52 0 19.04 0 0 Z " fill="#840FB2" transform="translate(567,304)"/>
<path d="M0 0 C18.48 0 36.96 0 56 0 C56 18.48 56 36.96 56 56 C37.52 56 19.04 56 0 56 C0 37.52 0 19.04 0 0 Z " fill="#610B82" transform="translate(899,138)"/>
<path d="M0 0 C18.48 0 36.96 0 56 0 C56 18.48 56 36.96 56 56 C37.52 56 19.04 56 0 56 C0 37.52 0 19.04 0 0 Z " fill="#FCFCFC" transform="translate(235,138)"/>
<path d="M0 0 C18.15 0 36.3 0 55 0 C55 18.48 55 36.96 55 56 C36.85 56 18.7 56 0 56 C0 37.52 0 19.04 0 0 Z " fill="#FCFCFC" transform="translate(512,913)"/>
<path d="M0 0 C18.15 0 36.3 0 55 0 C55 18.48 55 36.96 55 56 C36.85 56 18.7 56 0 56 C0 37.52 0 19.04 0 0 Z " fill="#A520DA" transform="translate(457,913)"/>
<path d="M0 0 C18.48 0 36.96 0 56 0 C56 18.15 56 36.3 56 55 C37.52 55 19.04 55 0 55 C0 36.85 0 18.7 0 0 Z " fill="#FCFCFC" transform="translate(899,858)"/>
<path d="M0 0 C18.48 0 36.96 0 56 0 C56 18.15 56 36.3 56 55 C37.52 55 19.04 55 0 55 C0 36.85 0 18.7 0 0 Z " fill="#DF94FD" transform="translate(567,803)"/>
<path d="M0 0 C18.48 0 36.96 0 56 0 C56 18.15 56 36.3 56 55 C37.52 55 19.04 55 0 55 C0 36.85 0 18.7 0 0 Z " fill="#FCFCFC" transform="translate(401,803)"/>
<path d="M0 0 C18.15 0 36.3 0 55 0 C55 18.48 55 36.96 55 56 C36.85 56 18.7 56 0 56 C0 37.52 0 19.04 0 0 Z " fill="#A520DA" transform="translate(291,747)"/>
<path d="M0 0 C18.48 0 36.96 0 56 0 C56 18.15 56 36.3 56 55 C37.52 55 19.04 55 0 55 C0 36.85 0 18.7 0 0 Z " fill="#840FB2" transform="translate(899,692)"/>
<path d="M0 0 C18.48 0 36.96 0 56 0 C56 18.15 56 36.3 56 55 C37.52 55 19.04 55 0 55 C0 36.85 0 18.7 0 0 Z " fill="#FCFCFC" transform="translate(733,692)"/>
<path d="M0 0 C18.48 0 36.96 0 56 0 C56 18.15 56 36.3 56 55 C37.52 55 19.04 55 0 55 C0 36.85 0 18.7 0 0 Z " fill="#840FB2" transform="translate(69,692)"/>
<path d="M0 0 C18.48 0 36.96 0 56 0 C56 18.15 56 36.3 56 55 C37.52 55 19.04 55 0 55 C0 36.85 0 18.7 0 0 Z " fill="#A520DA" transform="translate(733,637)"/>
<path d="M0 0 C18.48 0 36.96 0 56 0 C56 18.15 56 36.3 56 55 C37.52 55 19.04 55 0 55 C0 36.85 0 18.7 0 0 Z " fill="#DF94FD" transform="translate(401,637)"/>
<path d="M0 0 C18.15 0 36.3 0 55 0 C55 18.48 55 36.96 55 56 C36.85 56 18.7 56 0 56 C0 37.52 0 19.04 0 0 Z " fill="#FCFCFC" transform="translate(623,581)"/>
<path d="M0 0 C18.15 0 36.3 0 55 0 C55 18.48 55 36.96 55 56 C36.85 56 18.7 56 0 56 C0 37.52 0 19.04 0 0 Z " fill="#DF94FD" transform="translate(457,581)"/>
<path d="M0 0 C18.48 0 36.96 0 56 0 C56 18.15 56 36.3 56 55 C37.52 55 19.04 55 0 55 C0 36.85 0 18.7 0 0 Z " fill="#FCFCFC" transform="translate(899,526)"/>
<path d="M0 0 C18.15 0 36.3 0 55 0 C55 18.48 55 36.96 55 56 C36.85 56 18.7 56 0 56 C0 37.52 0 19.04 0 0 Z " fill="#840FB2" transform="translate(844,470)"/>
<path d="M0 0 C18.15 0 36.3 0 55 0 C55 18.48 55 36.96 55 56 C36.85 56 18.7 56 0 56 C0 37.52 0 19.04 0 0 Z " fill="#FCFCFC" transform="translate(512,470)"/>
<path d="M0 0 C18.15 0 36.3 0 55 0 C55 18.48 55 36.96 55 56 C36.85 56 18.7 56 0 56 C0 37.52 0 19.04 0 0 Z " fill="#A520DA" transform="translate(457,470)"/>
<path d="M0 0 C18.48 0 36.96 0 56 0 C56 18.15 56 36.3 56 55 C37.52 55 19.04 55 0 55 C0 36.85 0 18.7 0 0 Z " fill="#840FB2" transform="translate(235,415)"/>
<path d="M0 0 C18.48 0 36.96 0 56 0 C56 18.15 56 36.3 56 55 C37.52 55 19.04 55 0 55 C0 36.85 0 18.7 0 0 Z " fill="#FCFCFC" transform="translate(69,415)"/>
<path d="M0 0 C18.48 0 36.96 0 56 0 C56 18.15 56 36.3 56 55 C37.52 55 19.04 55 0 55 C0 36.85 0 18.7 0 0 Z " fill="#840FB2" transform="translate(733,360)"/>
<path d="M0 0 C18.15 0 36.3 0 55 0 C55 18.48 55 36.96 55 56 C36.85 56 18.7 56 0 56 C0 37.52 0 19.04 0 0 Z " fill="#840FB2" transform="translate(346,304)"/>
<path d="M0 0 C18.48 0 36.96 0 56 0 C56 18.15 56 36.3 56 55 C37.52 55 19.04 55 0 55 C0 36.85 0 18.7 0 0 Z " fill="#610B82" transform="translate(69,249)"/>
<path d="M0 0 C18.48 0 36.96 0 56 0 C56 18.15 56 36.3 56 55 C37.52 55 19.04 55 0 55 C0 36.85 0 18.7 0 0 Z " fill="#FCFCFC" transform="translate(733,194)"/>
<path d="M0 0 C18.48 0 36.96 0 56 0 C56 18.15 56 36.3 56 55 C37.52 55 19.04 55 0 55 C0 36.85 0 18.7 0 0 Z " fill="#610B82" transform="translate(530,0)"/>
<path d="M0 0 C18.15 0 36.3 0 55 0 C55 18.15 55 36.3 55 55 C36.85 55 18.7 55 0 55 C0 36.85 0 18.7 0 0 Z " fill="#FCFCFC" transform="translate(844,969)"/>
<path d="M0 0 C18.15 0 36.3 0 55 0 C55 18.15 55 36.3 55 55 C36.85 55 18.7 55 0 55 C0 36.85 0 18.7 0 0 Z " fill="#FCFCFC" transform="translate(125,858)"/>
<path d="M0 0 C18.15 0 36.3 0 55 0 C55 18.15 55 36.3 55 55 C36.85 55 18.7 55 0 55 C0 36.85 0 18.7 0 0 Z " fill="#FCFCFC" transform="translate(623,803)"/>
<path d="M0 0 C18.15 0 36.3 0 55 0 C55 18.15 55 36.3 55 55 C36.85 55 18.7 55 0 55 C0 36.85 0 18.7 0 0 Z " fill="#DF94FD" transform="translate(457,803)"/>
<path d="M0 0 C18.15 0 36.3 0 55 0 C55 18.15 55 36.3 55 55 C36.85 55 18.7 55 0 55 C0 36.85 0 18.7 0 0 Z " fill="#FCFCFC" transform="translate(512,692)"/>
<path d="M0 0 C18.15 0 36.3 0 55 0 C55 18.15 55 36.3 55 55 C36.85 55 18.7 55 0 55 C0 36.85 0 18.7 0 0 Z " fill="#FCFCFC" transform="translate(291,692)"/>
<path d="M0 0 C18.15 0 36.3 0 55 0 C55 18.15 55 36.3 55 55 C36.85 55 18.7 55 0 55 C0 36.85 0 18.7 0 0 Z " fill="#DF94FD" transform="translate(623,637)"/>
<path d="M0 0 C18.15 0 36.3 0 55 0 C55 18.15 55 36.3 55 55 C36.85 55 18.7 55 0 55 C0 36.85 0 18.7 0 0 Z " fill="#A520DA" transform="translate(291,637)"/>
<path d="M0 0 C18.15 0 36.3 0 55 0 C55 18.15 55 36.3 55 55 C36.85 55 18.7 55 0 55 C0 36.85 0 18.7 0 0 Z " fill="#840FB2" transform="translate(125,526)"/>
<path d="M0 0 C18.15 0 36.3 0 55 0 C55 18.15 55 36.3 55 55 C36.85 55 18.7 55 0 55 C0 36.85 0 18.7 0 0 Z " fill="#840FB2" transform="translate(457,249)"/>
<path d="M0 0 C18.15 0 36.3 0 55 0 C55 18.15 55 36.3 55 55 C36.85 55 18.7 55 0 55 C0 36.85 0 18.7 0 0 Z " fill="#610B82" transform="translate(346,185)"/>
<path d="M0 0 C18.15 0 36.3 0 55 0 C55 18.15 55 36.3 55 55 C36.85 55 18.7 55 0 55 C0 36.85 0 18.7 0 0 Z " fill="#610B82" transform="translate(623,83)"/>
<path d="M0 0 C18.15 0 36.3 0 55 0 C55 18.15 55 36.3 55 55 C36.85 55 18.7 55 0 55 C0 36.85 0 18.7 0 0 Z " fill="#610B82" transform="translate(457,83)"/>
</svg>
