<?xml version="1.0" encoding="UTF-8"?>
<svg version="1.1" xmlns="http://www.w3.org/2000/svg" width="1024" height="1024">
<path d="M0 0 C7.92 0 15.84 0 24 0 C24 23.76 24 47.52 24 72 C39.51 72 55.02 72 71 72 C71 79.59 71 87.18 71 95 C63.08 95 55.16 95 47 95 C47 110.51 47 126.02 47 142 C54.92 142 62.84 142 71 142 C71 149.92 71 157.84 71 166 C78.92 166 86.84 166 95 166 C95 181.84 95 197.68 95 214 C102.92 214 110.84 214 119 214 C119 229.84 119 245.68 119 262 C126.92 262 134.84 262 143 262 C143 293.35 143 324.7 143 357 C150.59 357 158.18 357 166 357 C166 364.92 166 372.84 166 381 C173.92 381 181.84 381 190 381 C190 388.92 190 396.84 190 405 C182.08 405 174.16 405 166 405 C166 460.11 166 515.22 166 572 C158.41 572 150.82 572 143 572 C143 587.51 143 603.02 143 619 C135.08 619 127.16 619 119 619 C119 626.92 119 634.84 119 643 C103.16 643 87.32 643 71 643 C71 650.92 71 658.84 71 667 C16.22 667 -38.56 667 -95 667 C-95 658.75 -95 650.5 -95 642 C-102.92 642 -110.84 642 -119 642 C-119 634.08 -119 626.16 -119 618 C-126.59 618 -134.18 618 -142 618 C-142.82517012 614.69931952 -143.08759547 612.91815177 -142.87890625 609.671875 C-142.83580322 608.9509668 -142.7927002 608.23005859 -142.74829102 607.48730469 C-142.68697998 606.58399414 -142.62566895 605.68068359 -142.5625 604.75 C-142.376875 601.8625 -142.19125 598.975 -142 596 C-150.25 596 -158.5 596 -167 596 C-167 525.05 -167 454.1 -167 381 C-159.08 381 -151.16 381 -143 381 C-143 373.08 -143 365.16 -143 357 C-135.08 357 -127.16 357 -119 357 C-119 333.57 -119 310.14 -119 286 C-111.08 286 -103.16 286 -95 286 C-95 270.16 -95 254.32 -95 238 C-87.41 238 -79.82 238 -72 238 C-72 206.32 -72 174.64 -72 142 C-64.08 142 -56.16 142 -48 142 C-48 126.49 -48 110.98 -48 95 C-40.08 95 -32.16 95 -24 95 C-24 79.49 -24 63.98 -24 48 C-16.08 48 -8.16 48 0 48 C0 32.16 0 16.32 0 0 Z " fill="#8DA4B1" transform="translate(560,357)"/>
<path d="M0 0 C7.92 0 15.84 0 24 0 C24 31.35 24 62.7 24 95 C31.59 95 39.18 95 47 95 C47 102.92 47 110.84 47 119 C54.92 119 62.84 119 71 119 C71 126.92 71 134.84 71 143 C63.08 143 55.16 143 47 143 C47 198.11 47 253.22 47 310 C39.41 310 31.82 310 24 310 C24 325.51 24 341.02 24 357 C16.08 357 8.16 357 0 357 C0 364.92 0 372.84 0 381 C-15.84 381 -31.68 381 -48 381 C-48 388.92 -48 396.84 -48 405 C-102.78 405 -157.56 405 -214 405 C-214 396.75 -214 388.5 -214 380 C-221.92 380 -229.84 380 -238 380 C-238 372.08 -238 364.16 -238 356 C-245.59 356 -253.18 356 -261 356 C-261.82517012 352.69931952 -262.08759547 350.91815177 -261.87890625 347.671875 C-261.83580322 346.9509668 -261.7927002 346.23005859 -261.74829102 345.48730469 C-261.68697998 344.58399414 -261.62566895 343.68068359 -261.5625 342.75 C-261.376875 339.8625 -261.19125 336.975 -261 334 C-269.25 334 -277.5 334 -286 334 C-286 302.32 -286 270.64 -286 238 C-278.08 238 -270.16 238 -262 238 C-262 245.92 -262 253.84 -262 262 C-246.16 262 -230.32 262 -214 262 C-214 277.84 -214 293.68 -214 310 C-221.92 310 -229.84 310 -238 310 C-238 317.92 -238 325.84 -238 334 C-222.49 334 -206.98 334 -191 334 C-191 341.59 -191 349.18 -191 357 C-183.08 357 -175.16 357 -167 357 C-167 364.92 -167 372.84 -167 381 C-143.24 381 -119.48 381 -95 381 C-95 373.08 -95 365.16 -95 357 C-79.49 357 -63.98 357 -48 357 C-48 349.41 -48 341.82 -48 334 C-40.08 334 -32.16 334 -24 334 C-24 326.08 -24 318.16 -24 310 C-16.08 310 -8.16 310 0 310 C0 302.08 0 294.16 0 286 C7.92 286 15.84 286 24 286 C24 270.16 24 254.32 24 238 C16.08 238 8.16 238 0 238 C0 230.08 0 222.16 0 214 C7.92 214 15.84 214 24 214 C24 182.65 24 151.3 24 119 C16.08 119 8.16 119 0 119 C0 79.73 0 40.46 0 0 Z " fill="#697C86" transform="translate(679,619)"/>
<path d="M0 0 C15.84 0 31.68 0 48 0 C48 15.51 48 31.02 48 47 C55.92 47 63.84 47 72 47 C72 31.49 72 15.98 72 0 C79.92 0 87.84 0 96 0 C96 31.35 96 62.7 96 95 C103.59 95 111.18 95 119 95 C119 118.76 119 142.52 119 167 C87.65 167 56.3 167 24 167 C24 151.16 24 135.32 24 119 C16.08 119 8.16 119 0 119 C0 103.16 0 87.32 0 71 C-7.59 71 -15.18 71 -23 71 C-23 63.08 -23 55.16 -23 47 C-7.49 47 8.02 47 24 47 C24 39.41 24 31.82 24 24 C16.08 24 8.16 24 0 24 C0 16.08 0 8.16 0 0 Z " fill="#6A7C85" transform="translate(488,786)"/>
<path d="M0 0 C7.92 0 15.84 0 24 0 C24 23.43 24 46.86 24 71 C31.59 71 39.18 71 47 71 C47 78.92 47 86.84 47 95 C62.84 95 78.68 95 95 95 C95 110.84 95 126.68 95 143 C87.08 143 79.16 143 71 143 C71 174.35 71 205.7 71 238 C63.08 238 55.16 238 47 238 C47 230.41 47 222.82 47 215 C39.41 215 31.82 215 24 215 C24 191.24 24 167.48 24 143 C8.16 143 -7.68 143 -24 143 C-24 111.32 -24 79.64 -24 47 C-16.08 47 -8.16 47 0 47 C0 31.49 0 15.98 0 0 Z " fill="#6A7C86" transform="translate(560,476)"/>
<path d="M0 0 C7.92 0 15.84 0 24 0 C24 23.76 24 47.52 24 72 C16.08 72 8.16 72 0 72 C0 79.92 0 87.84 0 96 C15.84 96 31.68 96 48 96 C48 119.43 48 142.86 48 167 C32.16 167 16.32 167 0 167 C0 159.08 0 151.16 0 143 C-7.92 143 -15.84 143 -24 143 C-24 103.73 -24 64.46 -24 24 C-16.08 24 -8.16 24 0 24 C0 16.08 0 8.16 0 0 Z " fill="#A0BBCB" transform="translate(417,714)"/>
<path d="M0 0 C7.92 0 15.84 0 24 0 C24 15.84 24 31.68 24 48 C31.92 48 39.84 48 48 48 C48 63.84 48 79.68 48 96 C40.08 96 32.16 96 24 96 C24 111.51 24 127.02 24 143 C16.08 143 8.16 143 0 143 C0 150.92 0 158.84 0 167 C-7.92 167 -15.84 167 -24 167 C-24 135.65 -24 104.3 -24 72 C-16.08 72 -8.16 72 0 72 C0 48.24 0 24.48 0 0 Z " fill="#6A7C86" transform="translate(512,571)"/>
<path d="M0 0 C7.92 0 15.84 0 24 0 C24 55.11 24 110.22 24 167 C16.08 167 8.16 167 0 167 C0 111.89 0 56.78 0 0 Z " fill="#A0BBCB" transform="translate(655,571)"/>
<path d="M0 0 C7.92 0 15.84 0 24 0 C24 31.35 24 62.7 24 95 C16.08 95 8.16 95 0 95 C0 63.65 0 32.3 0 0 Z " fill="#A0BBCB" transform="translate(679,738)"/>
<path d="M0 0 C15.84 0 31.68 0 48 0 C48 15.84 48 31.68 48 48 C40.08 48 32.16 48 24 48 C24 40.08 24 32.16 24 24 C16.08 24 8.16 24 0 24 C0 16.08 0 8.16 0 0 Z " fill="#A0BBCB" transform="translate(655,857)"/>
<path d="M0 0 C7.92 0 15.84 0 24 0 C24 15.84 24 31.68 24 48 C8.16 48 -7.68 48 -24 48 C-24 40.08 -24 32.16 -24 24 C-16.08 24 -8.16 24 0 24 C0 16.08 0 8.16 0 0 Z " fill="#A0BBCB" transform="translate(560,714)"/>
<path d="M0 0 C7.92 0 15.84 0 24 0 C24 15.84 24 31.68 24 48 C8.16 48 -7.68 48 -24 48 C-24 40.08 -24 32.16 -24 24 C-16.08 24 -8.16 24 0 24 C0 16.08 0 8.16 0 0 Z " fill="#000000" transform="translate(631,571)"/>
<path d="M0 0 C7.92 0 15.84 0 24 0 C24 7.92 24 15.84 24 24 C31.92 24 39.84 24 48 24 C48 31.92 48 39.84 48 48 C32.16 48 16.32 48 0 48 C0 32.16 0 16.32 0 0 Z " fill="#000000" transform="translate(536,571)"/>
<path d="M0 0 C7.92 0 15.84 0 24 0 C24 23.43 24 46.86 24 71 C16.08 71 8.16 71 0 71 C0 47.57 0 24.14 0 0 Z " fill="#A0BBCB" transform="translate(441,643)"/>
<path d="M0 0 C15.51 0 31.02 0 47 0 C47 15.51 47 31.02 47 47 C39.08 47 31.16 47 23 47 C23 39.41 23 31.82 23 24 C15.41 24 7.82 24 0 24 C0 16.08 0 8.16 0 0 Z " fill="#6A7C86" transform="translate(584,667)"/>
<path d="M0 0 C15.84 0 31.68 0 48 0 C48 7.92 48 15.84 48 24 C32.16 24 16.32 24 0 24 C0 16.08 0 8.16 0 0 Z " fill="#000000" transform="translate(488,786)"/>
<path d="M0 0 C15.84 0 31.68 0 48 0 C48 7.92 48 15.84 48 24 C32.16 24 16.32 24 0 24 C0 16.08 0 8.16 0 0 Z " fill="#000000" transform="translate(417,786)"/>
<path d="M0 0 C7.92 0 15.84 0 24 0 C24 15.84 24 31.68 24 48 C16.08 48 8.16 48 0 48 C0 32.16 0 16.32 0 0 Z " fill="#A0BBCB" transform="translate(488,499)"/>
<path d="M0 0 C7.92 0 15.84 0 24 0 C24 15.51 24 31.02 24 47 C16.08 47 8.16 47 0 47 C0 31.49 0 15.98 0 0 Z " fill="#A0BBCB" transform="translate(631,786)"/>
<path d="M0 0 C15.51 0 31.02 0 47 0 C47 7.92 47 15.84 47 24 C31.49 24 15.98 24 0 24 C0 16.08 0 8.16 0 0 Z " fill="#000000" transform="translate(584,643)"/>
<path d="M0 0 C7.92 0 15.84 0 24 0 C24 7.92 24 15.84 24 24 C16.08 24 8.16 24 0 24 C0 16.08 0 8.16 0 0 Z " fill="#A0BBCB" transform="translate(560,976)"/>
<path d="M0 0 C7.92 0 15.84 0 24 0 C24 7.92 24 15.84 24 24 C16.08 24 8.16 24 0 24 C0 16.08 0 8.16 0 0 Z " fill="#A0BBCB" transform="translate(512,976)"/>
<path d="M0 0 C7.92 0 15.84 0 24 0 C24 7.92 24 15.84 24 24 C16.08 24 8.16 24 0 24 C0 16.08 0 8.16 0 0 Z " fill="#A0BBCB" transform="translate(631,929)"/>
<path d="M0 0 C7.92 0 15.84 0 24 0 C24 7.92 24 15.84 24 24 C16.08 24 8.16 24 0 24 C0 16.08 0 8.16 0 0 Z " fill="#A0BBCB" transform="translate(441,929)"/>
<path d="M0 0 C7.92 0 15.84 0 24 0 C24 7.92 24 15.84 24 24 C16.08 24 8.16 24 0 24 C0 16.08 0 8.16 0 0 Z " fill="#A0BBCB" transform="translate(655,905)"/>
<path d="M0 0 C7.92 0 15.84 0 24 0 C24 7.92 24 15.84 24 24 C16.08 24 8.16 24 0 24 C0 16.08 0 8.16 0 0 Z " fill="#A0BACA" transform="translate(417,905)"/>
<path d="M0 0 C7.92 0 15.84 0 24 0 C24 7.92 24 15.84 24 24 C16.08 24 8.16 24 0 24 C0 16.08 0 8.16 0 0 Z " fill="#000000" transform="translate(655,881)"/>
<path d="M0 0 C7.92 0 15.84 0 24 0 C24 7.92 24 15.84 24 24 C16.08 24 8.16 24 0 24 C0 16.08 0 8.16 0 0 Z " fill="#000000" transform="translate(679,833)"/>
<path d="M0 0 C7.92 0 15.84 0 24 0 C24 7.92 24 15.84 24 24 C16.08 24 8.16 24 0 24 C0 16.08 0 8.16 0 0 Z " fill="#000000" transform="translate(631,833)"/>
<path d="M0 0 C7.92 0 15.84 0 24 0 C24 7.92 24 15.84 24 24 C16.08 24 8.16 24 0 24 C0 16.08 0 8.16 0 0 Z " fill="#A0BBCB" transform="translate(607,762)"/>
<path d="M0 0 C7.92 0 15.84 0 24 0 C24 7.92 24 15.84 24 24 C16.08 24 8.16 24 0 24 C0 16.08 0 8.16 0 0 Z " fill="#A0BBCB" transform="translate(512,762)"/>
<path d="M0 0 C7.92 0 15.84 0 24 0 C24 7.92 24 15.84 24 24 C16.08 24 8.16 24 0 24 C0 16.08 0 8.16 0 0 Z " fill="#6A7C86" transform="translate(393,738)"/>
<path d="M0 0 C7.92 0 15.84 0 24 0 C24 7.92 24 15.84 24 24 C16.08 24 8.16 24 0 24 C0 16.08 0 8.16 0 0 Z " fill="#6A7C86" transform="translate(393,667)"/>
<path d="M0 0 C7.92 0 15.84 0 24 0 C24 7.92 24 15.84 24 24 C16.08 24 8.16 24 0 24 C0 16.08 0 8.16 0 0 Z " fill="#6A7C86" transform="translate(345,643)"/>
<path d="M0 0 C7.92 0 15.84 0 24 0 C24 7.92 24 15.84 24 24 C16.08 24 8.16 24 0 24 C0 16.08 0 8.16 0 0 Z " fill="#A0BBCB" transform="translate(417,619)"/>
<path d="M0 0 C7.92 0 15.84 0 24 0 C24 7.92 24 15.84 24 24 C16.08 24 8.16 24 0 24 C0 16.08 0 8.16 0 0 Z " fill="#8EA5B2" transform="translate(726,595)"/>
<path d="M0 0 C7.92 0 15.84 0 24 0 C24 7.92 24 15.84 24 24 C16.08 24 8.16 24 0 24 C0 16.08 0 8.16 0 0 Z " fill="#8EA5B2" transform="translate(298,595)"/>
<path d="M0 0 C7.92 0 15.84 0 24 0 C24 7.92 24 15.84 24 24 C16.08 24 8.16 24 0 24 C0 16.08 0 8.16 0 0 Z " fill="#6A7C86" transform="translate(417,571)"/>
<path d="M0 0 C7.92 0 15.84 0 24 0 C24 7.92 24 15.84 24 24 C16.08 24 8.16 24 0 24 C0 16.08 0 8.16 0 0 Z " fill="#8EA5B2" transform="translate(679,547)"/>
<path d="M0 0 C7.92 0 15.84 0 24 0 C24 7.92 24 15.84 24 24 C16.08 24 8.16 24 0 24 C0 16.08 0 8.16 0 0 Z " fill="#8EA5B2" transform="translate(441,547)"/>
<path d="M0 0 C7.92 0 15.84 0 24 0 C24 7.92 24 15.84 24 24 C16.08 24 8.16 24 0 24 C0 16.08 0 8.16 0 0 Z " fill="#6A7C86" transform="translate(631,523)"/>
<path d="M0 0 C7.92 0 15.84 0 24 0 C24 7.92 24 15.84 24 24 C16.08 24 8.16 24 0 24 C0 16.08 0 8.16 0 0 Z " fill="#A0BBCB" transform="translate(345,523)"/>
<path d="M0 0 C7.92 0 15.84 0 24 0 C24 7.92 24 15.84 24 24 C16.08 24 8.16 24 0 24 C0 16.08 0 8.16 0 0 Z " fill="#A0BBCB" transform="translate(417,499)"/>
<path d="M0 0 C7.92 0 15.84 0 24 0 C24 7.92 24 15.84 24 24 C16.08 24 8.16 24 0 24 C0 16.08 0 8.16 0 0 Z " fill="#8EA5B2" transform="translate(726,405)"/>
<path d="M0 0 C7.92 0 15.84 0 24 0 C24 7.92 24 15.84 24 24 C16.08 24 8.16 24 0 24 C0 16.08 0 8.16 0 0 Z " fill="#6A7C86" transform="translate(655,405)"/>
<path d="M0 0 C7.92 0 15.84 0 24 0 C24 7.92 24 15.84 24 24 C16.08 24 8.16 24 0 24 C0 16.08 0 8.16 0 0 Z " fill="#6A7C86" transform="translate(536,405)"/>
<path d="M0 0 C7.92 0 15.84 0 24 0 C24 7.92 24 15.84 24 24 C16.08 24 8.16 24 0 24 C0 16.08 0 8.16 0 0 Z " fill="#8EA5B2" transform="translate(607,357)"/>
<path d="M0 0 C7.92 0 15.84 0 24 0 C24 7.92 24 15.84 24 24 C16.08 24 8.16 24 0 24 C0 16.08 0 8.16 0 0 Z " fill="#8EA5B2" transform="translate(417,357)"/>
<path d="M0 0 C7.92 0 15.84 0 24 0 C24 7.92 24 15.84 24 24 C16.08 24 8.16 24 0 24 C0 16.08 0 8.16 0 0 Z " fill="#A0BBCB" transform="translate(655,333)"/>
<path d="M0 0 C7.92 0 15.84 0 24 0 C24 7.92 24 15.84 24 24 C16.08 24 8.16 24 0 24 C0 16.08 0 8.16 0 0 Z " fill="#6A7C86" transform="translate(488,333)"/>
<path d="M0 0 C7.92 0 15.84 0 24 0 C24 7.92 24 15.84 24 24 C16.08 24 8.16 24 0 24 C0 16.08 0 8.16 0 0 Z " fill="#6A7C86" transform="translate(726,286)"/>
<path d="M0 0 C7.92 0 15.84 0 24 0 C24 7.92 24 15.84 24 24 C16.08 24 8.16 24 0 24 C0 16.08 0 8.16 0 0 Z " fill="#8EA5B2" transform="translate(488,286)"/>
<path d="M0 0 C7.92 0 15.84 0 24 0 C24 7.92 24 15.84 24 24 C16.08 24 8.16 24 0 24 C0 16.08 0 8.16 0 0 Z " fill="#A0BBCB" transform="translate(655,262)"/>
<path d="M0 0 C7.92 0 15.84 0 24 0 C24 7.92 24 15.84 24 24 C16.08 24 8.16 24 0 24 C0 16.08 0 8.16 0 0 Z " fill="#A0BBCB" transform="translate(536,262)"/>
<path d="M0 0 C7.92 0 15.84 0 24 0 C24 7.92 24 15.84 24 24 C16.08 24 8.16 24 0 24 C0 16.08 0 8.16 0 0 Z " fill="#6A7C86" transform="translate(441,262)"/>
<path d="M0 0 C7.92 0 15.84 0 24 0 C24 7.92 24 15.84 24 24 C16.08 24 8.16 24 0 24 C0 16.08 0 8.16 0 0 Z " fill="#A0BBCB" transform="translate(345,262)"/>
<path d="M0 0 C7.92 0 15.84 0 24 0 C24 7.92 24 15.84 24 24 C16.08 24 8.16 24 0 24 C0 16.08 0 8.16 0 0 Z " fill="#8EA5B2" transform="translate(274,238)"/>
<path d="M0 0 C7.92 0 15.84 0 24 0 C24 7.92 24 15.84 24 24 C16.08 24 8.16 24 0 24 C0 16.08 0 8.16 0 0 Z " fill="#8EA5B2" transform="translate(512,214)"/>
<path d="M0 0 C7.92 0 15.84 0 24 0 C24 7.92 24 15.84 24 24 C16.08 24 8.16 24 0 24 C0 16.08 0 8.16 0 0 Z " fill="#A0BBCB" transform="translate(631,143)"/>
<path d="M0 0 C7.92 0 15.84 0 24 0 C24 7.92 24 15.84 24 24 C16.08 24 8.16 24 0 24 C0 16.08 0 8.16 0 0 Z " fill="#8EA5B2" transform="translate(536,143)"/>
<path d="M0 0 C7.92 0 15.84 0 24 0 C24 7.92 24 15.84 24 24 C16.08 24 8.16 24 0 24 C0 16.08 0 8.16 0 0 Z " fill="#A0BBCB" transform="translate(393,143)"/>
<path d="M0 0 C7.92 0 15.84 0 24 0 C24 7.92 24 15.84 24 24 C16.08 24 8.16 24 0 24 C0 16.08 0 8.16 0 0 Z " fill="#A0BBCB" transform="translate(607,95)"/>
<path d="M0 0 C7.92 0 15.84 0 24 0 C24 7.92 24 15.84 24 24 C16.08 24 8.16 24 0 24 C0 16.08 0 8.16 0 0 Z " fill="#8EA5B2" transform="translate(655,71)"/>
<path d="M0 0 C7.92 0 15.84 0 24 0 C24 7.92 24 15.84 24 24 C16.08 24 8.16 24 0 24 C0 16.08 0 8.16 0 0 Z " fill="#A0BBCB" transform="translate(512,71)"/>
<path d="M0 0 C7.59 0 15.18 0 23 0 C23 7.92 23 15.84 23 24 C15.41 24 7.82 24 0 24 C0 16.08 0 8.16 0 0 Z " fill="#000000" transform="translate(465,833)"/>
<path d="M0 0 C7.59 0 15.18 0 23 0 C23 7.92 23 15.84 23 24 C15.41 24 7.82 24 0 24 C0 16.08 0 8.16 0 0 Z " fill="#A0BBCB" transform="translate(465,595)"/>
<path d="M0 0 C7.59 0 15.18 0 23 0 C23 7.92 23 15.84 23 24 C15.41 24 7.82 24 0 24 C0 16.08 0 8.16 0 0 Z " fill="#A0BBCB" transform="translate(703,499)"/>
<path d="M0 0 C7.92 0 15.84 0 24 0 C24 7.59 24 15.18 24 23 C16.08 23 8.16 23 0 23 C0 15.41 0 7.82 0 0 Z " fill="#6A7C86" transform="translate(345,476)"/>
<path d="M0 0 C7.59 0 15.18 0 23 0 C23 7.92 23 15.84 23 24 C15.41 24 7.82 24 0 24 C0 16.08 0 8.16 0 0 Z " fill="#6A7C86" transform="translate(703,452)"/>
<path d="M0 0 C7.92 0 15.84 0 24 0 C24 7.59 24 15.18 24 23 C16.08 23 8.16 23 0 23 C0 15.41 0 7.82 0 0 Z " fill="#A0BBCB" transform="translate(607,429)"/>
<path d="M0 0 C7.92 0 15.84 0 24 0 C24 7.59 24 15.18 24 23 C16.08 23 8.16 23 0 23 C0 15.41 0 7.82 0 0 Z " fill="#6A7C86" transform="translate(393,429)"/>
<path d="M0 0 C7.92 0 15.84 0 24 0 C24 7.59 24 15.18 24 23 C16.08 23 8.16 23 0 23 C0 15.41 0 7.82 0 0 Z " fill="#8EA5B2" transform="translate(298,429)"/>
<path d="M0 0 C7.59 0 15.18 0 23 0 C23 7.92 23 15.84 23 24 C15.41 24 7.82 24 0 24 C0 16.08 0 8.16 0 0 Z " fill="#A0BBCB" transform="translate(322,381)"/>
<path d="M0 0 C7.59 0 15.18 0 23 0 C23 7.92 23 15.84 23 24 C15.41 24 7.82 24 0 24 C0 16.08 0 8.16 0 0 Z " fill="#6A7C86" transform="translate(703,357)"/>
<path d="M0 0 C7.92 0 15.84 0 24 0 C24 7.59 24 15.18 24 23 C16.08 23 8.16 23 0 23 C0 15.41 0 7.82 0 0 Z " fill="#A0BBCB" transform="translate(393,310)"/>
<path d="M0 0 C7.92 0 15.84 0 24 0 C24 7.59 24 15.18 24 23 C16.08 23 8.16 23 0 23 C0 15.41 0 7.82 0 0 Z " fill="#A0BBCB" transform="translate(345,310)"/>
<path d="M0 0 C7.59 0 15.18 0 23 0 C23 7.92 23 15.84 23 24 C15.41 24 7.82 24 0 24 C0 16.08 0 8.16 0 0 Z " fill="#A0BBCB" transform="translate(584,286)"/>
<path d="M0 0 C7.59 0 15.18 0 23 0 C23 7.92 23 15.84 23 24 C15.41 24 7.82 24 0 24 C0 16.08 0 8.16 0 0 Z " fill="#A0BBCB" transform="translate(584,214)"/>
<path d="M0 0 C7.92 0 15.84 0 24 0 C24 7.59 24 15.18 24 23 C16.08 23 8.16 23 0 23 C0 15.41 0 7.82 0 0 Z " fill="#6A7C86" transform="translate(631,191)"/>
<path d="M0 0 C7.92 0 15.84 0 24 0 C24 7.59 24 15.18 24 23 C16.08 23 8.16 23 0 23 C0 15.41 0 7.82 0 0 Z " fill="#A0BBCB" transform="translate(417,191)"/>
<path d="M0 0 C7.59 0 15.18 0 23 0 C23 7.92 23 15.84 23 24 C15.41 24 7.82 24 0 24 C0 16.08 0 8.16 0 0 Z " fill="#8EA5B2" transform="translate(465,143)"/>
<path d="M0 0 C7.59 0 15.18 0 23 0 C23 7.92 23 15.84 23 24 C15.41 24 7.82 24 0 24 C0 16.08 0 8.16 0 0 Z " fill="#A0BBCB" transform="translate(703,119)"/>
<path d="M0 0 C7.59 0 15.18 0 23 0 C23 7.92 23 15.84 23 24 C15.41 24 7.82 24 0 24 C0 16.08 0 8.16 0 0 Z " fill="#A0BBCB" transform="translate(465,0)"/>
<path d="M0 0 C7.59 0 15.18 0 23 0 C23 7.59 23 15.18 23 23 C15.41 23 7.82 23 0 23 C0 15.41 0 7.82 0 0 Z " fill="#8EA5B2" transform="translate(465,429)"/>
<path d="M0 0 C7.59 0 15.18 0 23 0 C23 7.59 23 15.18 23 23 C15.41 23 7.82 23 0 23 C0 15.41 0 7.82 0 0 Z " fill="#A0BBCB" transform="translate(703,191)"/>
<path d="M0 0 C7.59 0 15.18 0 23 0 C23 7.59 23 15.18 23 23 C15.41 23 7.82 23 0 23 C0 15.41 0 7.82 0 0 Z " fill="#A0BBCB" transform="translate(584,48)"/>
</svg>
