<?xml version="1.0" encoding="UTF-8"?>
<svg version="1.1" xmlns="http://www.w3.org/2000/svg" width="1024" height="1024">
<path d="M0 0 C65.67 0 131.34 0 199 0 C199 7.92 199 15.84 199 24 C206.59 24 214.18 24 222 24 C222 38.52 222 53.04 222 68 C229.26 68 236.52 68 244 68 C244 74.93 244 81.86 244 89 C250.93 89 257.86 89 265 89 C265 103.85 265 118.7 265 134 C272.92 134 280.84 134 289 134 C289 193.07 289 252.14 289 313 C281.08 313 273.16 313 265 313 C265 327.52 265 342.04 265 357 C258.07 357 251.14 357 244 357 C244 371.52 244 386.04 244 401 C222.22 401 200.44 401 178 401 C178 408.59 178 416.18 178 424 C111.34 424 44.68 424 -24 424 C-24 416.41 -24 408.82 -24 401 C-38.19 401 -52.38 401 -67 401 C-67 394.4 -67 387.8 -67 381 C-74.59 381 -82.18 381 -90 381 C-90 373.08 -90 365.16 -90 357 C-97.26 357 -104.52 357 -112 357 C-113.20484728 328.04294033 -113.05867724 299.10255281 -112.90999443 270.12616285 C-112.87417889 263.10061225 -112.84507426 256.07503786 -112.81623887 249.04945572 C-112.76468026 236.52871684 -112.70810031 224.00800621 -112.64819336 211.48730469 C-112.59013949 199.35157357 -112.53455577 187.21583512 -112.48217773 175.08007812 C-112.47892802 174.32732685 -112.4756783 173.57457558 -112.4723301 172.79901366 C-112.45603601 169.02127723 -112.43978925 165.2435406 -112.42356598 161.46580386 C-112.28971059 130.31050075 -112.14731503 99.15524252 -112 68 C-97.15 68 -82.3 68 -67 68 C-67 60.74 -67 53.48 -67 46 C-59.74 46 -52.48 46 -45 46 C-45 38.74 -45 31.48 -45 24 C-30.15 24 -15.3 24 0 24 C0 16.08 0 8.16 0 0 Z " fill="#EFA932" transform="translate(424,600)"/>
<path d="M0 0 C51.15 0 102.3 0 155 0 C155 6.93 155 13.86 155 21 C162.59 21 170.18 21 178 21 C178 28.59 178 36.18 178 44 C184.93 44 191.86 44 199 44 C199 58.85 199 73.7 199 89 C206.59 89 214.18 89 222 89 C222 132.56 222 176.12 222 221 C214.41 221 206.82 221 199 221 C199 228.92 199 236.84 199 245 C192.07 245 185.14 245 178 245 C178 252.26 178 259.52 178 267 C163.15 267 148.3 267 133 267 C133 274.26 133 281.52 133 289 C111.22 289 89.44 289 67 289 C67 281.74 67 274.48 67 267 C59.41 267 51.82 267 44 267 C44 274.26 44 281.52 44 289 C29.48 289 14.96 289 0 289 C0 282.73 0 276.46 0 270 C-7.59 270 -15.18 270 -23 270 C-23 262.74 -23 255.48 -23 248 C-30.26 248 -37.52 248 -45 248 C-45 227.54 -45 207.08 -45 186 C-52.26 186 -59.52 186 -67 186 C-67 146.73 -67 107.46 -67 67 C-59.74 67 -52.48 67 -45 67 C-45 59.41 -45 51.82 -45 44 C-38.07 44 -31.14 44 -24 44 C-24 36.41 -24 28.82 -24 21 C-16.08 21 -8.16 21 0 21 C0 14.07 0 7.14 0 0 Z " fill="#EAB966" transform="translate(424,668)"/>
<path d="M0 0 C14.85 0 29.7 0 45 0 C45 6.93 45 13.86 45 21 C37.41 21 29.82 21 22 21 C22 50.37 22 79.74 22 110 C29.59 110 37.18 110 45 110 C45 125.18 45 140.36 45 156 C37.74 156 30.48 156 23 156 C23 172.83 23 189.66 23 207 C30.26 207 37.52 207 45 207 C45 226.8 45 246.6 45 267 C52.26 267 59.52 267 67 267 C67 282.18 67 297.36 67 313 C73.93 313 80.86 313 88 313 C88 319.6 88 326.2 88 333 C73.81 333 59.62 333 45 333 C45 326.4 45 319.8 45 313 C37.41 313 29.82 313 22 313 C22 305.08 22 297.16 22 289 C14.74 289 7.48 289 0 289 C-1.20484728 260.04294033 -1.05867724 231.10255281 -0.90999443 202.12616285 C-0.87417889 195.10061225 -0.84507426 188.07503786 -0.81623887 181.04945572 C-0.76468026 168.52871684 -0.70810031 156.00800621 -0.64819336 143.48730469 C-0.59013949 131.35157357 -0.53455577 119.21583512 -0.48217773 107.08007812 C-0.47892802 106.32732685 -0.4756783 105.57457558 -0.4723301 104.79901366 C-0.45603601 101.02127723 -0.43978925 97.2435406 -0.42356598 93.46580386 C-0.28971059 62.31050075 -0.14731503 31.15524252 0 0 Z " fill="#FD9F00" transform="translate(312,668)"/>
<path d="M0 0 C6.93 0 13.86 0 21 0 C21 14.85 21 29.7 21 45 C28.92 45 36.84 45 45 45 C45 104.07 45 163.14 45 224 C37.08 224 29.16 224 21 224 C21 238.52 21 253.04 21 268 C14.07 268 7.14 268 0 268 C0 282.52 0 297.04 0 312 C-21.78 312 -43.56 312 -66 312 C-66 305.4 -66 298.8 -66 292 C-51.48 292 -36.96 292 -22 292 C-22 276.82 -22 261.64 -22 246 C-14.74 246 -7.48 246 0 246 C0 230.82 0 215.64 0 200 C6.93 200 13.86 200 21 200 C21 171.29 21 142.58 21 113 C14.07 113 7.14 113 0 113 C0 75.71 0 38.42 0 0 Z " fill="#FD9F00" transform="translate(668,689)"/>
<path d="M0 0 C65.67 0 131.34 0 199 0 C199 7.92 199 15.84 199 24 C206.59 24 214.18 24 222 24 C222 38.52 222 53.04 222 68 C214.41 68 206.82 68 199 68 C199 60.74 199 53.48 199 46 C169.96 46 140.92 46 111 46 C111 38.74 111 31.48 111 24 C81.3 24 51.6 24 21 24 C21 31.26 21 38.52 21 46 C6.15 46 -8.7 46 -24 46 C-24 53.26 -24 60.52 -24 68 C-38.19 68 -52.38 68 -67 68 C-67 60.74 -67 53.48 -67 46 C-59.74 46 -52.48 46 -45 46 C-45 38.74 -45 31.48 -45 24 C-30.15 24 -15.3 24 0 24 C0 16.08 0 8.16 0 0 Z " fill="#FD9F00" transform="translate(424,600)"/>
<path d="M0 0 C29.37 0 58.74 0 89 0 C89 29.37 89 58.74 89 89 C59.63 89 30.26 89 0 89 C0 59.63 0 30.26 0 0 Z " fill="#F6D9A8" transform="translate(468,757)"/>
<path d="M0 0 C66.66 0 133.32 0 202 0 C202 7.59 202 15.18 202 23 C135.34 23 68.68 23 0 23 C0 15.41 0 7.82 0 0 Z " fill="#FD9F00" transform="translate(400,1001)"/>
<path d="M0 0 C7.59 0 15.18 0 23 0 C23 29.37 23 58.74 23 89 C15.41 89 7.82 89 0 89 C0 59.63 0 30.26 0 0 Z " fill="#000000" transform="translate(445,757)"/>
<path d="M0 0 C7.26 0 14.52 0 22 0 C22 29.37 22 58.74 22 89 C14.74 89 7.48 89 0 89 C0 59.63 0 30.26 0 0 Z " fill="#000000" transform="translate(557,757)"/>
<path d="M0 0 C29.37 0 58.74 0 89 0 C89 7.26 89 14.52 89 22 C59.63 22 30.26 22 0 22 C0 14.74 0 7.48 0 0 Z " fill="#000000" transform="translate(468,735)"/>
<path d="M0 0 C29.37 0 58.74 0 89 0 C89 6.93 89 13.86 89 21 C59.63 21 30.26 21 0 21 C0 14.07 0 7.14 0 0 Z " fill="#000000" transform="translate(468,846)"/>
<path d="M0 0 C7.26 0 14.52 0 22 0 C22 15.18 22 30.36 22 46 C14.74 46 7.48 46 0 46 C0 30.82 0 15.64 0 0 Z " fill="#E8A93D" transform="translate(535,778)"/>
<path d="M0 0 C7.92 0 15.84 0 24 0 C24 7.92 24 15.84 24 24 C16.08 24 8.16 24 0 24 C0 16.08 0 8.16 0 0 Z " fill="#FAAE2C" transform="translate(511,111)"/>
<path d="M0 0 C7.59 0 15.18 0 23 0 C23 7.92 23 15.84 23 24 C15.41 24 7.82 24 0 24 C0 16.08 0 8.16 0 0 Z " fill="#EBBA67" transform="translate(468,511)"/>
<path d="M0 0 C7.59 0 15.18 0 23 0 C23 7.92 23 15.84 23 24 C15.41 24 7.82 24 0 24 C0 16.08 0 8.16 0 0 Z " fill="#FAAE2C" transform="translate(445,400)"/>
<path d="M0 0 C7.92 0 15.84 0 24 0 C24 7.59 24 15.18 24 23 C16.08 23 8.16 23 0 23 C0 15.41 0 7.82 0 0 Z " fill="#FAAE2C" transform="translate(511,312)"/>
<path d="M0 0 C7.59 0 15.18 0 23 0 C23 7.59 23 15.18 23 23 C15.41 23 7.82 23 0 23 C0 15.41 0 7.82 0 0 Z " fill="#FAAE2C" transform="translate(445,312)"/>
<path d="M0 0 C7.26 0 14.52 0 22 0 C22 7.92 22 15.84 22 24 C14.74 24 7.48 24 0 24 C0 16.08 0 8.16 0 0 Z " fill="#FAAE2C" transform="translate(357,578)"/>
<path d="M0 0 C7.92 0 15.84 0 24 0 C24 7.26 24 14.52 24 22 C16.08 22 8.16 22 0 22 C0 14.74 0 7.48 0 0 Z " fill="#FAAE2C" transform="translate(400,535)"/>
<path d="M0 0 C7.26 0 14.52 0 22 0 C22 7.92 22 15.84 22 24 C14.74 24 7.48 24 0 24 C0 16.08 0 8.16 0 0 Z " fill="#F6D9A8" transform="translate(535,400)"/>
<path d="M0 0 C7.59 0 15.18 0 23 0 C23 7.26 23 14.52 23 22 C15.41 22 7.82 22 0 22 C0 14.74 0 7.48 0 0 Z " fill="#FAAE2C" transform="translate(312,624)"/>
<path d="M0 0 C7.59 0 15.18 0 23 0 C23 7.26 23 14.52 23 22 C15.41 22 7.82 22 0 22 C0 14.74 0 7.48 0 0 Z " fill="#FAAE2C" transform="translate(623,557)"/>
<path d="M0 0 C7.59 0 15.18 0 23 0 C23 7.26 23 14.52 23 22 C15.41 22 7.82 22 0 22 C0 14.74 0 7.48 0 0 Z " fill="#F6D9A8" transform="translate(468,557)"/>
<path d="M0 0 C7.59 0 15.18 0 23 0 C23 7.26 23 14.52 23 22 C15.41 22 7.82 22 0 22 C0 14.74 0 7.48 0 0 Z " fill="#FAAE2C" transform="translate(623,489)"/>
<path d="M0 0 C7.59 0 15.18 0 23 0 C23 7.26 23 14.52 23 22 C15.41 22 7.82 22 0 22 C0 14.74 0 7.48 0 0 Z " fill="#EBBA67" transform="translate(579,489)"/>
<path d="M0 0 C7.59 0 15.18 0 23 0 C23 7.26 23 14.52 23 22 C15.41 22 7.82 22 0 22 C0 14.74 0 7.48 0 0 Z " fill="#FAAE2C" transform="translate(445,467)"/>
<path d="M0 0 C7.59 0 15.18 0 23 0 C23 7.26 23 14.52 23 22 C15.41 22 7.82 22 0 22 C0 14.74 0 7.48 0 0 Z " fill="#FAAE2C" transform="translate(579,378)"/>
<path d="M0 0 C7.59 0 15.18 0 23 0 C23 7.26 23 14.52 23 22 C15.41 22 7.82 22 0 22 C0 14.74 0 7.48 0 0 Z " fill="#F6D9A8" transform="translate(468,378)"/>
<path d="M0 0 C7.59 0 15.18 0 23 0 C23 7.26 23 14.52 23 22 C15.41 22 7.82 22 0 22 C0 14.74 0 7.48 0 0 Z " fill="#F6D9A8" transform="translate(468,335)"/>
<path d="M0 0 C7.26 0 14.52 0 22 0 C22 7.59 22 15.18 22 23 C14.74 23 7.48 23 0 23 C0 15.41 0 7.82 0 0 Z " fill="#FAAE2C" transform="translate(557,312)"/>
<path d="M0 0 C7.59 0 15.18 0 23 0 C23 7.26 23 14.52 23 22 C15.41 22 7.82 22 0 22 C0 14.74 0 7.48 0 0 Z " fill="#FAAE2C" transform="translate(445,246)"/>
<path d="M0 0 C7.59 0 15.18 0 23 0 C23 7.26 23 14.52 23 22 C15.41 22 7.82 22 0 22 C0 14.74 0 7.48 0 0 Z " fill="#FAAE2C" transform="translate(468,178)"/>
<path d="M0 0 C7.59 0 15.18 0 23 0 C23 7.26 23 14.52 23 22 C15.41 22 7.82 22 0 22 C0 14.74 0 7.48 0 0 Z " fill="#F6D9A8" transform="translate(468,135)"/>
<path d="M0 0 C6.93 0 13.86 0 21 0 C21 7.92 21 15.84 21 24 C14.07 24 7.14 24 0 24 C0 16.08 0 8.16 0 0 Z " fill="#FAAE2C" transform="translate(668,600)"/>
<path d="M0 0 C7.92 0 15.84 0 24 0 C24 6.93 24 13.86 24 21 C16.08 21 8.16 21 0 21 C0 14.07 0 7.14 0 0 Z " fill="#FAAE2C" transform="translate(511,268)"/>
<path d="M0 0 C7.26 0 14.52 0 22 0 C22 7.26 22 14.52 22 22 C14.74 22 7.48 22 0 22 C0 14.74 0 7.48 0 0 Z " fill="#EBBA67" transform="translate(557,557)"/>
<path d="M0 0 C7.26 0 14.52 0 22 0 C22 7.26 22 14.52 22 22 C14.74 22 7.48 22 0 22 C0 14.74 0 7.48 0 0 Z " fill="#FAAE2C" transform="translate(424,557)"/>
<path d="M0 0 C7.26 0 14.52 0 22 0 C22 7.26 22 14.52 22 22 C14.74 22 7.48 22 0 22 C0 14.74 0 7.48 0 0 Z " fill="#F6D9A8" transform="translate(535,535)"/>
<path d="M0 0 C7.26 0 14.52 0 22 0 C22 7.26 22 14.52 22 22 C14.74 22 7.48 22 0 22 C0 14.74 0 7.48 0 0 Z " fill="#EBBA67" transform="translate(535,489)"/>
<path d="M0 0 C7.26 0 14.52 0 22 0 C22 7.26 22 14.52 22 22 C14.74 22 7.48 22 0 22 C0 14.74 0 7.48 0 0 Z " fill="#FAAE2C" transform="translate(535,200)"/>
<path d="M0 0 C7.59 0 15.18 0 23 0 C23 6.93 23 13.86 23 21 C15.41 21 7.82 21 0 21 C0 14.07 0 7.14 0 0 Z " fill="#FAAE2C" transform="translate(579,446)"/>
<path d="M0 0 C7.59 0 15.18 0 23 0 C23 6.93 23 13.86 23 21 C15.41 21 7.82 21 0 21 C0 14.07 0 7.14 0 0 Z " fill="#F6D9A8" transform="translate(468,268)"/>
<path d="M0 0 C6.6 0 13.2 0 20 0 C20 7.92 20 15.84 20 24 C13.4 24 6.8 24 0 24 C0 16.08 0 8.16 0 0 Z " fill="#F6D9A8" transform="translate(491,400)"/>
<path d="M0 0 C6.6 0 13.2 0 20 0 C20 7.92 20 15.84 20 24 C13.4 24 6.8 24 0 24 C0 16.08 0 8.16 0 0 Z " fill="#F6D9A8" transform="translate(491,222)"/>
<path d="M0 0 C6.93 0 13.86 0 21 0 C21 7.26 21 14.52 21 22 C14.07 22 7.14 22 0 22 C0 14.74 0 7.48 0 0 Z " fill="#F6D9A8" transform="translate(602,535)"/>
<path d="M0 0 C6.93 0 13.86 0 21 0 C21 7.26 21 14.52 21 22 C14.07 22 7.14 22 0 22 C0 14.74 0 7.48 0 0 Z " fill="#FAAE2C" transform="translate(424,489)"/>
<path d="M0 0 C7.26 0 14.52 0 22 0 C22 6.93 22 13.86 22 21 C14.74 21 7.48 21 0 21 C0 14.07 0 7.14 0 0 Z " fill="#F6D9A8" transform="translate(535,446)"/>
<path d="M0 0 C7.26 0 14.52 0 22 0 C22 6.93 22 13.86 22 21 C14.74 21 7.48 21 0 21 C0 14.07 0 7.14 0 0 Z " fill="#F6D9A8" transform="translate(535,357)"/>
<path d="M0 0 C6.6 0 13.2 0 20 0 C20 7.59 20 15.18 20 23 C13.4 23 6.8 23 0 23 C0 15.41 0 7.82 0 0 Z " fill="#FAAE2C" transform="translate(491,0)"/>
<path d="M0 0 C6.93 0 13.86 0 21 0 C21 6.93 21 13.86 21 21 C14.07 21 7.14 21 0 21 C0 14.07 0 7.14 0 0 Z " fill="#FAAE2C" transform="translate(424,357)"/>
<path d="M0 0 C6.6 0 13.2 0 20 0 C20 7.26 20 14.52 20 22 C13.4 22 6.8 22 0 22 C0 14.74 0 7.48 0 0 Z " fill="#EBBA67" transform="translate(491,535)"/>
<path d="M0 0 C6.6 0 13.2 0 20 0 C20 7.26 20 14.52 20 22 C13.4 22 6.8 22 0 22 C0 14.74 0 7.48 0 0 Z " fill="#FAAE2C" transform="translate(491,67)"/>
<path d="M0 0 C6.6 0 13.2 0 20 0 C20 6.93 20 13.86 20 21 C13.4 21 6.8 21 0 21 C0 14.07 0 7.14 0 0 Z " fill="#FAAE2C" transform="translate(491,446)"/>
</svg>
