<?xml version="1.0" encoding="UTF-8"?>
<svg version="1.1" xmlns="http://www.w3.org/2000/svg" width="1024" height="1024">
<path d="M0 0 C21.12 0 42.24 0 64 0 C64 105.6 64 211.2 64 320 C74.56 320 85.12 320 96 320 C96 330.56 96 341.12 96 352 C106.56 352 117.12 352 128 352 C128 362.56 128 373.12 128 384 C138.56 384 149.12 384 160 384 C160 405.12 160 426.24 160 448 C170.56 448 181.12 448 192 448 C192 437.44 192 426.88 192 416 C202.56 416 213.12 416 224 416 C224 394.88 224 373.76 224 352 C202.88 352 181.76 352 160 352 C160 341.44 160 330.88 160 320 C149.44 320 138.88 320 128 320 C128 309.44 128 298.88 128 288 C117.44 288 106.88 288 96 288 C96 245.76 96 203.52 96 160 C106.56 160 117.12 160 128 160 C128 107.2 128 54.4 128 0 C149.12 0 170.24 0 192 0 C192 21.12 192 42.24 192 64 C202.56 64 213.12 64 224 64 C224 95.68 224 127.36 224 160 C213.44 160 202.88 160 192 160 C192 181.12 192 202.24 192 224 C202.56 224 213.12 224 224 224 C224 245.12 224 266.24 224 288 C234.56 288 245.12 288 256 288 C256 298.56 256 309.12 256 320 C266.56 320 277.12 320 288 320 C288 351.68 288 383.36 288 416 C298.56 416 309.12 416 320 416 C320 405.44 320 394.88 320 384 C330.56 384 341.12 384 352 384 C352 362.88 352 341.76 352 320 C362.56 320 373.12 320 384 320 C384 298.88 384 277.76 384 256 C394.56 256 405.12 256 416 256 C416 234.88 416 213.76 416 192 C426.56 192 437.12 192 448 192 C448 139.2 448 86.4 448 32 C458.56 32 469.12 32 480 32 C480 42.56 480 53.12 480 64 C490.56 64 501.12 64 512 64 C512 85.12 512 106.24 512 128 C522.56 128 533.12 128 544 128 C544 180.8 544 233.6 544 288 C533.44 288 522.88 288 512 288 C512 319.68 512 351.36 512 384 C490.88 384 469.76 384 448 384 C448 394.56 448 405.12 448 416 C437.44 416 426.88 416 416 416 C416 458.24 416 500.48 416 544 C426.56 544 437.12 544 448 544 C448 533.44 448 522.88 448 512 C458.56 512 469.12 512 480 512 C480 501.44 480 490.88 480 480 C490.56 480 501.12 480 512 480 C512 458.88 512 437.76 512 416 C522.56 416 533.12 416 544 416 C544 394.88 544 373.76 544 352 C554.56 352 565.12 352 576 352 C576 415.36 576 478.72 576 544 C565.44 544 554.88 544 544 544 C544 554.56 544 565.12 544 576 C533.44 576 522.88 576 512 576 C512 586.56 512 597.12 512 608 C501.44 608 490.88 608 480 608 C480 618.56 480 629.12 480 640 C458.88 640 437.76 640 416 640 C416 671.68 416 703.36 416 736 C426.56 736 437.12 736 448 736 C448 746.56 448 757.12 448 768 C458.56 768 469.12 768 480 768 C480 789.12 480 810.24 480 832 C490.56 832 501.12 832 512 832 C512 863.68 512 895.36 512 928 C501.44 928 490.88 928 480 928 C480 938.56 480 949.12 480 960 C469.44 960 458.88 960 448 960 C448 970.56 448 981.12 448 992 C437.44 992 426.88 992 416 992 C416 1002.56 416 1013.12 416 1024 C331.52 1024 247.04 1024 160 1024 C160 1013.44 160 1002.88 160 992 C149.44 992 138.88 992 128 992 C128 981.44 128 970.88 128 960 C117.44 960 106.88 960 96 960 C96 949.44 96 938.88 96 928 C85.44 928 74.88 928 64 928 C64 885.76 64 843.52 64 800 C74.56 800 85.12 800 96 800 C96 789.44 96 778.88 96 768 C106.56 768 117.12 768 128 768 C128 757.44 128 746.88 128 736 C149.12 736 170.24 736 192 736 C192 714.88 192 693.76 192 672 C181.44 672 170.88 672 160 672 C160 650.88 160 629.76 160 608 C149.44 608 138.88 608 128 608 C128 597.44 128 586.88 128 576 C117.44 576 106.88 576 96 576 C96 565.44 96 554.88 96 544 C85.44 544 74.88 544 64 544 C64 533.44 64 522.88 64 512 C53.44 512 42.88 512 32 512 C32 501.44 32 490.88 32 480 C21.44 480 10.88 480 0 480 C0 437.76 0 395.52 0 352 C-10.56 352 -21.12 352 -32 352 C-32 256.96 -32 161.92 -32 64 C-21.44 64 -10.88 64 0 64 C0 42.88 0 21.76 0 0 Z " fill="#85CAD9" transform="translate(240,0)"/>
<path d="M0 0 C10.56 0 21.12 0 32 0 C32 10.56 32 21.12 32 32 C42.56 32 53.12 32 64 32 C64 53.12 64 74.24 64 96 C74.56 96 85.12 96 96 96 C96 148.8 96 201.6 96 256 C85.44 256 74.88 256 64 256 C64 287.68 64 319.36 64 352 C42.88 352 21.76 352 0 352 C0 362.56 0 373.12 0 384 C-10.56 384 -21.12 384 -32 384 C-32 426.24 -32 468.48 -32 512 C-21.44 512 -10.88 512 0 512 C0 501.44 0 490.88 0 480 C10.56 480 21.12 480 32 480 C32 469.44 32 458.88 32 448 C42.56 448 53.12 448 64 448 C64 426.88 64 405.76 64 384 C74.56 384 85.12 384 96 384 C96 362.88 96 341.76 96 320 C106.56 320 117.12 320 128 320 C128 383.36 128 446.72 128 512 C117.44 512 106.88 512 96 512 C96 522.56 96 533.12 96 544 C85.44 544 74.88 544 64 544 C64 554.56 64 565.12 64 576 C53.44 576 42.88 576 32 576 C32 586.56 32 597.12 32 608 C10.88 608 -10.24 608 -32 608 C-32 639.68 -32 671.36 -32 704 C-21.44 704 -10.88 704 0 704 C0 714.56 0 725.12 0 736 C10.56 736 21.12 736 32 736 C32 757.12 32 778.24 32 800 C42.56 800 53.12 800 64 800 C64 831.68 64 863.36 64 896 C53.44 896 42.88 896 32 896 C32 906.56 32 917.12 32 928 C21.44 928 10.88 928 0 928 C0 938.56 0 949.12 0 960 C-10.56 960 -21.12 960 -32 960 C-32 970.56 -32 981.12 -32 992 C-116.48 992 -200.96 992 -288 992 C-288 981.44 -288 970.88 -288 960 C-298.56 960 -309.12 960 -320 960 C-320 949.44 -320 938.88 -320 928 C-330.56 928 -341.12 928 -352 928 C-352 917.44 -352 906.88 -352 896 C-362.56 896 -373.12 896 -384 896 C-384 853.76 -384 811.52 -384 768 C-373.44 768 -362.88 768 -352 768 C-352 757.44 -352 746.88 -352 736 C-341.44 736 -330.88 736 -320 736 C-320 725.44 -320 714.88 -320 704 C-298.88 704 -277.76 704 -256 704 C-256 682.88 -256 661.76 -256 640 C-245.44 640 -234.88 640 -224 640 C-224 682.24 -224 724.48 -224 768 C-213.44 768 -202.88 768 -192 768 C-192 778.56 -192 789.12 -192 800 C-202.56 800 -213.12 800 -224 800 C-224 821.12 -224 842.24 -224 864 C-181.76 864 -139.52 864 -96 864 C-96 842.88 -96 821.76 -96 800 C-85.44 800 -74.88 800 -64 800 C-64 821.12 -64 842.24 -64 864 C-53.44 864 -42.88 864 -32 864 C-32 821.76 -32 779.52 -32 736 C-63.68 736 -95.36 736 -128 736 C-128 704.32 -128 672.64 -128 640 C-117.44 640 -106.88 640 -96 640 C-96 597.76 -96 555.52 -96 512 C-85.44 512 -74.88 512 -64 512 C-64 469.76 -64 427.52 -64 384 C-74.56 384 -85.12 384 -96 384 C-96 405.12 -96 426.24 -96 448 C-106.56 448 -117.12 448 -128 448 C-128 458.56 -128 469.12 -128 480 C-138.56 480 -149.12 480 -160 480 C-160 490.56 -160 501.12 -160 512 C-170.56 512 -181.12 512 -192 512 C-192 490.88 -192 469.76 -192 448 C-181.44 448 -170.88 448 -160 448 C-160 426.88 -160 405.76 -160 384 C-149.44 384 -138.88 384 -128 384 C-128 373.44 -128 362.88 -128 352 C-117.44 352 -106.88 352 -96 352 C-96 330.88 -96 309.76 -96 288 C-85.44 288 -74.88 288 -64 288 C-64 266.88 -64 245.76 -64 224 C-53.44 224 -42.88 224 -32 224 C-32 202.88 -32 181.76 -32 160 C-21.44 160 -10.88 160 0 160 C0 107.2 0 54.4 0 0 Z " fill="#85CAD9" transform="translate(688,32)"/>
<path d="M0 0 C10.56 0 21.12 0 32 0 C32 42.24 32 84.48 32 128 C42.56 128 53.12 128 64 128 C64 138.56 64 149.12 64 160 C53.44 160 42.88 160 32 160 C32 181.12 32 202.24 32 224 C74.24 224 116.48 224 160 224 C160 202.88 160 181.76 160 160 C170.56 160 181.12 160 192 160 C192 181.12 192 202.24 192 224 C202.56 224 213.12 224 224 224 C224 202.88 224 181.76 224 160 C255.68 160 287.36 160 320 160 C320 191.68 320 223.36 320 256 C309.44 256 298.88 256 288 256 C288 266.56 288 277.12 288 288 C277.44 288 266.88 288 256 288 C256 298.56 256 309.12 256 320 C245.44 320 234.88 320 224 320 C224 330.56 224 341.12 224 352 C139.52 352 55.04 352 -32 352 C-32 341.44 -32 330.88 -32 320 C-42.56 320 -53.12 320 -64 320 C-64 309.44 -64 298.88 -64 288 C-74.56 288 -85.12 288 -96 288 C-96 277.44 -96 266.88 -96 256 C-106.56 256 -117.12 256 -128 256 C-128 213.76 -128 171.52 -128 128 C-117.44 128 -106.88 128 -96 128 C-96 117.44 -96 106.88 -96 96 C-85.44 96 -74.88 96 -64 96 C-64 85.44 -64 74.88 -64 64 C-42.88 64 -21.76 64 0 64 C0 42.88 0 21.76 0 0 Z " fill="#0A9FBF" transform="translate(432,672)"/>
<path d="M0 0 C10.56 0 21.12 0 32 0 C32 21.12 32 42.24 32 64 C21.44 64 10.88 64 0 64 C0 85.12 0 106.24 0 128 C10.56 128 21.12 128 32 128 C32 117.44 32 106.88 32 96 C42.56 96 53.12 96 64 96 C64 85.44 64 74.88 64 64 C74.56 64 85.12 64 96 64 C96 42.88 96 21.76 96 0 C106.56 0 117.12 0 128 0 C128 42.24 128 84.48 128 128 C117.44 128 106.88 128 96 128 C96 170.24 96 212.48 96 256 C85.44 256 74.88 256 64 256 C64 287.68 64 319.36 64 352 C95.68 352 127.36 352 160 352 C160 394.24 160 436.48 160 480 C149.44 480 138.88 480 128 480 C128 458.88 128 437.76 128 416 C117.44 416 106.88 416 96 416 C96 437.12 96 458.24 96 480 C53.76 480 11.52 480 -32 480 C-32 458.88 -32 437.76 -32 416 C-21.44 416 -10.88 416 0 416 C0 405.44 0 394.88 0 384 C-10.56 384 -21.12 384 -32 384 C-32 373.44 -32 362.88 -32 352 C-21.44 352 -10.88 352 0 352 C0 309.76 0 267.52 0 224 C-10.56 224 -21.12 224 -32 224 C-32 202.88 -32 181.76 -32 160 C-42.56 160 -53.12 160 -64 160 C-64 138.88 -64 117.76 -64 96 C-53.44 96 -42.88 96 -32 96 C-32 74.88 -32 53.76 -32 32 C-21.44 32 -10.88 32 0 32 C0 21.44 0 10.88 0 0 Z " fill="#FFFFFF" transform="translate(496,416)"/>
<path d="M0 0 C10.56 0 21.12 0 32 0 C32 63.36 32 126.72 32 192 C21.44 192 10.88 192 0 192 C0 202.56 0 213.12 0 224 C-10.56 224 -21.12 224 -32 224 C-32 234.56 -32 245.12 -32 256 C-42.56 256 -53.12 256 -64 256 C-64 266.56 -64 277.12 -64 288 C-85.12 288 -106.24 288 -128 288 C-128 319.68 -128 351.36 -128 384 C-117.44 384 -106.88 384 -96 384 C-96 394.56 -96 405.12 -96 416 C-85.44 416 -74.88 416 -64 416 C-64 437.12 -64 458.24 -64 480 C-85.12 480 -106.24 480 -128 480 C-128 458.88 -128 437.76 -128 416 C-159.68 416 -191.36 416 -224 416 C-224 384.32 -224 352.64 -224 320 C-213.44 320 -202.88 320 -192 320 C-192 277.76 -192 235.52 -192 192 C-160.32 192 -128.64 192 -96 192 C-96 181.44 -96 170.88 -96 160 C-85.44 160 -74.88 160 -64 160 C-64 149.44 -64 138.88 -64 128 C-53.44 128 -42.88 128 -32 128 C-32 106.88 -32 85.76 -32 64 C-21.44 64 -10.88 64 0 64 C0 42.88 0 21.76 0 0 Z " fill="#85CAD9" transform="translate(784,352)"/>
<path d="M0 0 C21.12 0 42.24 0 64 0 C64 105.6 64 211.2 64 320 C74.56 320 85.12 320 96 320 C96 330.56 96 341.12 96 352 C74.88 352 53.76 352 32 352 C32 394.24 32 436.48 32 480 C21.44 480 10.88 480 0 480 C0 437.76 0 395.52 0 352 C-10.56 352 -21.12 352 -32 352 C-32 256.96 -32 161.92 -32 64 C-21.44 64 -10.88 64 0 64 C0 42.88 0 21.76 0 0 Z " fill="#85CAD9" transform="translate(240,0)"/>
<path d="M0 0 C21.12 0 42.24 0 64 0 C64 21.12 64 42.24 64 64 C74.56 64 85.12 64 96 64 C96 95.68 96 127.36 96 160 C85.44 160 74.88 160 64 160 C64 181.12 64 202.24 64 224 C74.56 224 85.12 224 96 224 C96 245.12 96 266.24 96 288 C85.44 288 74.88 288 64 288 C64 298.56 64 309.12 64 320 C74.56 320 85.12 320 96 320 C96 330.56 96 341.12 96 352 C74.88 352 53.76 352 32 352 C32 341.44 32 330.88 32 320 C21.44 320 10.88 320 0 320 C0 309.44 0 298.88 0 288 C-10.56 288 -21.12 288 -32 288 C-32 245.76 -32 203.52 -32 160 C-21.44 160 -10.88 160 0 160 C0 107.2 0 54.4 0 0 Z " fill="#85CAD9" transform="translate(368,0)"/>
<path d="M0 0 C21.12 0 42.24 0 64 0 C64 10.56 64 21.12 64 32 C74.56 32 85.12 32 96 32 C96 42.56 96 53.12 96 64 C85.44 64 74.88 64 64 64 C64 95.68 64 127.36 64 160 C106.24 160 148.48 160 192 160 C192 181.12 192 202.24 192 224 C149.76 224 107.52 224 64 224 C64 213.44 64 202.88 64 192 C42.88 192 21.76 192 0 192 C0 128.64 0 65.28 0 0 Z " fill="#85CAD9" transform="translate(400,768)"/>
<path d="M0 0 C10.56 0 21.12 0 32 0 C32 10.56 32 21.12 32 32 C42.56 32 53.12 32 64 32 C64 84.8 64 137.6 64 192 C53.44 192 42.88 192 32 192 C32 234.24 32 276.48 32 320 C10.88 320 -10.24 320 -32 320 C-32 298.88 -32 277.76 -32 256 C-21.44 256 -10.88 256 0 256 C0 171.52 0 87.04 0 0 Z " fill="#85CAD9" transform="translate(688,32)"/>
<path d="M0 0 C21.12 0 42.24 0 64 0 C64 63.36 64 126.72 64 192 C53.44 192 42.88 192 32 192 C32 202.56 32 213.12 32 224 C21.44 224 10.88 224 0 224 C0 213.44 0 202.88 0 192 C-10.56 192 -21.12 192 -32 192 C-32 149.76 -32 107.52 -32 64 C-21.44 64 -10.88 64 0 64 C0 42.88 0 21.76 0 0 Z " fill="#B4E4EE" transform="translate(240,0)"/>
<path d="M0 0 C10.56 0 21.12 0 32 0 C32 21.12 32 42.24 32 64 C42.56 64 53.12 64 64 64 C64 42.88 64 21.76 64 0 C85.12 0 106.24 0 128 0 C128 21.12 128 42.24 128 64 C117.44 64 106.88 64 96 64 C96 74.56 96 85.12 96 96 C74.88 96 53.76 96 32 96 C32 106.56 32 117.12 32 128 C21.44 128 10.88 128 0 128 C0 117.44 0 106.88 0 96 C-42.24 96 -84.48 96 -128 96 C-128 85.44 -128 74.88 -128 64 C-85.76 64 -43.52 64 0 64 C0 42.88 0 21.76 0 0 Z " fill="#85CAD9" transform="translate(592,832)"/>
<path d="M0 0 C31.68 0 63.36 0 96 0 C96 10.56 96 21.12 96 32 C74.88 32 53.76 32 32 32 C32 63.68 32 95.36 32 128 C42.56 128 53.12 128 64 128 C64 138.56 64 149.12 64 160 C74.56 160 85.12 160 96 160 C96 181.12 96 202.24 96 224 C74.88 224 53.76 224 32 224 C32 202.88 32 181.76 32 160 C10.88 160 -10.24 160 -32 160 C-32 149.44 -32 138.88 -32 128 C-21.44 128 -10.88 128 0 128 C0 85.76 0 43.52 0 0 Z " fill="#0A9FBF" transform="translate(624,608)"/>
<path d="M0 0 C10.56 0 21.12 0 32 0 C32 31.68 32 63.36 32 96 C21.44 96 10.88 96 0 96 C0 106.56 0 117.12 0 128 C-10.56 128 -21.12 128 -32 128 C-32 138.56 -32 149.12 -32 160 C-42.56 160 -53.12 160 -64 160 C-64 170.56 -64 181.12 -64 192 C-85.12 192 -106.24 192 -128 192 C-128 170.88 -128 149.76 -128 128 C-117.44 128 -106.88 128 -96 128 C-96 117.44 -96 106.88 -96 96 C-74.88 96 -53.76 96 -32 96 C-32 85.44 -32 74.88 -32 64 C-21.44 64 -10.88 64 0 64 C0 42.88 0 21.76 0 0 Z " fill="#0A9FBF" transform="translate(720,832)"/>
<path d="M0 0 C31.68 0 63.36 0 96 0 C96 21.12 96 42.24 96 64 C106.56 64 117.12 64 128 64 C128 106.24 128 148.48 128 192 C117.44 192 106.88 192 96 192 C96 160.32 96 128.64 96 96 C74.88 96 53.76 96 32 96 C32 74.88 32 53.76 32 32 C21.44 32 10.88 32 0 32 C0 21.44 0 10.88 0 0 Z " fill="#84CAD9" transform="translate(368,576)"/>
<path d="M0 0 C10.56 0 21.12 0 32 0 C32 31.68 32 63.36 32 96 C21.44 96 10.88 96 0 96 C0 117.12 0 138.24 0 160 C-10.56 160 -21.12 160 -32 160 C-32 170.56 -32 181.12 -32 192 C-42.56 192 -53.12 192 -64 192 C-64 202.56 -64 213.12 -64 224 C-74.56 224 -85.12 224 -96 224 C-96 202.88 -96 181.76 -96 160 C-85.44 160 -74.88 160 -64 160 C-64 138.88 -64 117.76 -64 96 C-53.44 96 -42.88 96 -32 96 C-32 85.44 -32 74.88 -32 64 C-21.44 64 -10.88 64 0 64 C0 42.88 0 21.76 0 0 Z " fill="#85CAD9" transform="translate(592,320)"/>
<path d="M0 0 C10.56 0 21.12 0 32 0 C32 52.8 32 105.6 32 160 C21.44 160 10.88 160 0 160 C0 191.68 0 223.36 0 256 C-21.12 256 -42.24 256 -64 256 C-64 245.44 -64 234.88 -64 224 C-53.44 224 -42.88 224 -32 224 C-32 181.76 -32 139.52 -32 96 C-21.44 96 -10.88 96 0 96 C0 64.32 0 32.64 0 0 Z " fill="#0A9FBF" transform="translate(752,128)"/>
<path d="M0 0 C10.56 0 21.12 0 32 0 C32 10.56 32 21.12 32 32 C74.24 32 116.48 32 160 32 C160 53.12 160 74.24 160 96 C117.76 96 75.52 96 32 96 C32 85.44 32 74.88 32 64 C21.44 64 10.88 64 0 64 C0 42.88 0 21.76 0 0 Z " fill="#FFFFFF" transform="translate(432,896)"/>
<path d="M0 0 C21.12 0 42.24 0 64 0 C64 10.56 64 21.12 64 32 C74.56 32 85.12 32 96 32 C96 63.68 96 95.36 96 128 C85.44 128 74.88 128 64 128 C64 138.56 64 149.12 64 160 C42.88 160 21.76 160 0 160 C0 149.44 0 138.88 0 128 C10.56 128 21.12 128 32 128 C32 96.32 32 64.64 32 32 C21.44 32 10.88 32 0 32 C0 21.44 0 10.88 0 0 Z " fill="#85CAD9" transform="translate(432,288)"/>
<path d="M0 0 C10.56 0 21.12 0 32 0 C32 21.12 32 42.24 32 64 C42.56 64 53.12 64 64 64 C64 85.12 64 106.24 64 128 C53.44 128 42.88 128 32 128 C32 138.56 32 149.12 32 160 C42.56 160 53.12 160 64 160 C64 170.56 64 181.12 64 192 C42.88 192 21.76 192 0 192 C0 181.44 0 170.88 0 160 C-10.56 160 -21.12 160 -32 160 C-32 149.44 -32 138.88 -32 128 C-21.44 128 -10.88 128 0 128 C0 85.76 0 43.52 0 0 Z " fill="#85CAD9" transform="translate(400,160)"/>
<path d="M0 0 C21.12 0 42.24 0 64 0 C64 42.24 64 84.48 64 128 C42.88 128 21.76 128 0 128 C0 85.76 0 43.52 0 0 Z " fill="#85CAD9" transform="translate(336,160)"/>
<path d="M0 0 C10.56 0 21.12 0 32 0 C32 10.56 32 21.12 32 32 C42.56 32 53.12 32 64 32 C64 63.68 64 95.36 64 128 C53.44 128 42.88 128 32 128 C32 138.56 32 149.12 32 160 C21.44 160 10.88 160 0 160 C0 107.2 0 54.4 0 0 Z " fill="#85CAD9" transform="translate(688,32)"/>
<path d="M0 0 C21.12 0 42.24 0 64 0 C64 21.12 64 42.24 64 64 C53.44 64 42.88 64 32 64 C32 74.56 32 85.12 32 96 C21.44 96 10.88 96 0 96 C0 106.56 0 117.12 0 128 C-10.56 128 -21.12 128 -32 128 C-32 106.88 -32 85.76 -32 64 C-21.44 64 -10.88 64 0 64 C0 42.88 0 21.76 0 0 Z " fill="#0A9FBF" transform="translate(240,0)"/>
<path d="M0 0 C10.56 0 21.12 0 32 0 C32 42.24 32 84.48 32 128 C10.88 128 -10.24 128 -32 128 C-32 106.88 -32 85.76 -32 64 C-21.44 64 -10.88 64 0 64 C0 42.88 0 21.76 0 0 Z " fill="#B4E4EE" transform="translate(784,352)"/>
<path d="M0 0 C21.12 0 42.24 0 64 0 C64 42.24 64 84.48 64 128 C53.44 128 42.88 128 32 128 C32 96.32 32 64.64 32 32 C21.44 32 10.88 32 0 32 C0 21.44 0 10.88 0 0 Z " fill="#85CAD9" transform="translate(592,768)"/>
<path d="M0 0 C10.56 0 21.12 0 32 0 C32 31.68 32 63.36 32 96 C21.44 96 10.88 96 0 96 C0 106.56 0 117.12 0 128 C-10.56 128 -21.12 128 -32 128 C-32 106.88 -32 85.76 -32 64 C-21.44 64 -10.88 64 0 64 C0 42.88 0 21.76 0 0 Z " fill="#0A9FBF" transform="translate(656,192)"/>
<path d="M0 0 C10.56 0 21.12 0 32 0 C32 52.8 32 105.6 32 160 C21.44 160 10.88 160 0 160 C0 107.2 0 54.4 0 0 Z " fill="#0A9FBF" transform="translate(208,192)"/>
<path d="M0 0 C10.56 0 21.12 0 32 0 C32 21.12 32 42.24 32 64 C42.56 64 53.12 64 64 64 C64 85.12 64 106.24 64 128 C53.44 128 42.88 128 32 128 C32 117.44 32 106.88 32 96 C21.44 96 10.88 96 0 96 C0 64.32 0 32.64 0 0 Z " fill="#0A9FBF" transform="translate(400,160)"/>
<path d="M0 0 C42.24 0 84.48 0 128 0 C128 10.56 128 21.12 128 32 C85.76 32 43.52 32 0 32 C0 21.44 0 10.88 0 0 Z " fill="#3F8D9D" transform="translate(464,992)"/>
<path d="M0 0 C42.24 0 84.48 0 128 0 C128 10.56 128 21.12 128 32 C85.76 32 43.52 32 0 32 C0 21.44 0 10.88 0 0 Z " fill="#85CAD9" transform="translate(464,960)"/>
<path d="M0 0 C42.24 0 84.48 0 128 0 C128 10.56 128 21.12 128 32 C85.76 32 43.52 32 0 32 C0 21.44 0 10.88 0 0 Z " fill="#000000" transform="translate(464,896)"/>
<path d="M0 0 C21.12 0 42.24 0 64 0 C64 21.12 64 42.24 64 64 C42.88 64 21.76 64 0 64 C0 42.88 0 21.76 0 0 Z " fill="#85CAD9" transform="translate(400,448)"/>
<path d="M0 0 C10.56 0 21.12 0 32 0 C32 42.24 32 84.48 32 128 C21.44 128 10.88 128 0 128 C0 85.76 0 43.52 0 0 Z " fill="#85CAD9" transform="translate(624,416)"/>
<path d="M0 0 C10.56 0 21.12 0 32 0 C32 31.68 32 63.36 32 96 C10.88 96 -10.24 96 -32 96 C-32 85.44 -32 74.88 -32 64 C-21.44 64 -10.88 64 0 64 C0 42.88 0 21.76 0 0 Z " fill="#85CAD9" transform="translate(592,320)"/>
<path d="M0 0 C10.56 0 21.12 0 32 0 C32 42.24 32 84.48 32 128 C21.44 128 10.88 128 0 128 C0 85.76 0 43.52 0 0 Z " fill="#0A9FBF" transform="translate(240,352)"/>
<path d="M0 0 C21.12 0 42.24 0 64 0 C64 21.12 64 42.24 64 64 C42.88 64 21.76 64 0 64 C0 42.88 0 21.76 0 0 Z " fill="#B4E4EE" transform="translate(656,288)"/>
<path d="M0 0 C21.12 0 42.24 0 64 0 C64 10.56 64 21.12 64 32 C74.56 32 85.12 32 96 32 C96 42.56 96 53.12 96 64 C74.88 64 53.76 64 32 64 C32 53.44 32 42.88 32 32 C21.44 32 10.88 32 0 32 C0 21.44 0 10.88 0 0 Z " fill="#85CAD9" transform="translate(432,288)"/>
<path d="M0 0 C10.56 0 21.12 0 32 0 C32 42.24 32 84.48 32 128 C21.44 128 10.88 128 0 128 C0 85.76 0 43.52 0 0 Z " fill="#0A9FBF" transform="translate(272,192)"/>
<path d="M0 0 C10.56 0 21.12 0 32 0 C32 42.24 32 84.48 32 128 C21.44 128 10.88 128 0 128 C0 85.76 0 43.52 0 0 Z " fill="#0A9FBF" transform="translate(336,160)"/>
<path d="M0 0 C10.56 0 21.12 0 32 0 C32 42.24 32 84.48 32 128 C21.44 128 10.88 128 0 128 C0 85.76 0 43.52 0 0 Z " fill="#0A9FBF" transform="translate(368,32)"/>
<path d="M0 0 C21.12 0 42.24 0 64 0 C64 21.12 64 42.24 64 64 C53.44 64 42.88 64 32 64 C32 53.44 32 42.88 32 32 C21.44 32 10.88 32 0 32 C0 21.44 0 10.88 0 0 Z " fill="#0A9FBF" transform="translate(304,512)"/>
<path d="M0 0 C21.12 0 42.24 0 64 0 C64 10.56 64 21.12 64 32 C53.44 32 42.88 32 32 32 C32 42.56 32 53.12 32 64 C21.44 64 10.88 64 0 64 C0 42.88 0 21.76 0 0 Z " fill="#85CAD9" transform="translate(496,480)"/>
<path d="M0 0 C21.12 0 42.24 0 64 0 C64 10.56 64 21.12 64 32 C53.44 32 42.88 32 32 32 C32 42.56 32 53.12 32 64 C21.44 64 10.88 64 0 64 C0 42.88 0 21.76 0 0 Z " fill="#B4E4EE" transform="translate(688,128)"/>
<path d="M0 0 C10.56 0 21.12 0 32 0 C32 21.12 32 42.24 32 64 C10.88 64 -10.24 64 -32 64 C-32 53.44 -32 42.88 -32 32 C-21.44 32 -10.88 32 0 32 C0 21.44 0 10.88 0 0 Z " fill="#85CAD9" transform="translate(240,96)"/>
<path d="M0 0 C10.56 0 21.12 0 32 0 C32 21.12 32 42.24 32 64 C21.44 64 10.88 64 0 64 C0 42.88 0 21.76 0 0 Z " fill="#85CAD9" transform="translate(432,896)"/>
<path d="M0 0 C10.56 0 21.12 0 32 0 C32 21.12 32 42.24 32 64 C21.44 64 10.88 64 0 64 C0 42.88 0 21.76 0 0 Z " fill="#3F8D9D" transform="translate(400,896)"/>
<path d="M0 0 C10.56 0 21.12 0 32 0 C32 21.12 32 42.24 32 64 C21.44 64 10.88 64 0 64 C0 42.88 0 21.76 0 0 Z " fill="#3F8D9D" transform="translate(688,832)"/>
<path d="M0 0 C10.56 0 21.12 0 32 0 C32 21.12 32 42.24 32 64 C21.44 64 10.88 64 0 64 C0 42.88 0 21.76 0 0 Z " fill="#FFFFFF" transform="translate(624,832)"/>
<path d="M0 0 C10.56 0 21.12 0 32 0 C32 21.12 32 42.24 32 64 C21.44 64 10.88 64 0 64 C0 42.88 0 21.76 0 0 Z " fill="#000000" transform="translate(592,832)"/>
<path d="M0 0 C10.56 0 21.12 0 32 0 C32 21.12 32 42.24 32 64 C21.44 64 10.88 64 0 64 C0 42.88 0 21.76 0 0 Z " fill="#000000" transform="translate(432,832)"/>
<path d="M0 0 C10.56 0 21.12 0 32 0 C32 21.12 32 42.24 32 64 C21.44 64 10.88 64 0 64 C0 42.88 0 21.76 0 0 Z " fill="#FFFFFF" transform="translate(400,832)"/>
<path d="M0 0 C10.56 0 21.12 0 32 0 C32 21.12 32 42.24 32 64 C21.44 64 10.88 64 0 64 C0 42.88 0 21.76 0 0 Z " fill="#85CAD9" transform="translate(368,832)"/>
<path d="M0 0 C10.56 0 21.12 0 32 0 C32 21.12 32 42.24 32 64 C21.44 64 10.88 64 0 64 C0 42.88 0 21.76 0 0 Z " fill="#3F8D9D" transform="translate(336,832)"/>
<path d="M0 0 C10.56 0 21.12 0 32 0 C32 21.12 32 42.24 32 64 C21.44 64 10.88 64 0 64 C0 42.88 0 21.76 0 0 Z " fill="#0A9FBF" transform="translate(400,608)"/>
<path d="M0 0 C21.12 0 42.24 0 64 0 C64 10.56 64 21.12 64 32 C42.88 32 21.76 32 0 32 C0 21.44 0 10.88 0 0 Z " fill="#0A9FBF" transform="translate(624,544)"/>
<path d="M0 0 C10.56 0 21.12 0 32 0 C32 21.12 32 42.24 32 64 C21.44 64 10.88 64 0 64 C0 42.88 0 21.76 0 0 Z " fill="#B4E4EE" transform="translate(400,512)"/>
<path d="M0 0 C10.56 0 21.12 0 32 0 C32 21.12 32 42.24 32 64 C21.44 64 10.88 64 0 64 C0 42.88 0 21.76 0 0 Z " fill="#0A9FBF" transform="translate(784,480)"/>
<path d="M0 0 C10.56 0 21.12 0 32 0 C32 21.12 32 42.24 32 64 C21.44 64 10.88 64 0 64 C0 42.88 0 21.76 0 0 Z " fill="#0A9FBF" transform="translate(400,448)"/>
<path d="M0 0 C10.56 0 21.12 0 32 0 C32 21.12 32 42.24 32 64 C21.44 64 10.88 64 0 64 C0 42.88 0 21.76 0 0 Z " fill="#0A9FBF" transform="translate(528,416)"/>
<path d="M0 0 C10.56 0 21.12 0 32 0 C32 21.12 32 42.24 32 64 C21.44 64 10.88 64 0 64 C0 42.88 0 21.76 0 0 Z " fill="#85CAD9" transform="translate(784,352)"/>
<path d="M0 0 C10.56 0 21.12 0 32 0 C32 21.12 32 42.24 32 64 C21.44 64 10.88 64 0 64 C0 42.88 0 21.76 0 0 Z " fill="#0A9FBF" transform="translate(368,384)"/>
<path d="M0 0 C10.56 0 21.12 0 32 0 C32 21.12 32 42.24 32 64 C21.44 64 10.88 64 0 64 C0 42.88 0 21.76 0 0 Z " fill="#0A9FBF" transform="translate(592,320)"/>
<path d="M0 0 C21.12 0 42.24 0 64 0 C64 10.56 64 21.12 64 32 C42.88 32 21.76 32 0 32 C0 21.44 0 10.88 0 0 Z " fill="#0A9FBF" transform="translate(400,320)"/>
<path d="M0 0 C10.56 0 21.12 0 32 0 C32 21.12 32 42.24 32 64 C21.44 64 10.88 64 0 64 C0 42.88 0 21.76 0 0 Z " fill="#0A9FBF" transform="translate(432,96)"/>
<path d="M0 0 C21.12 0 42.24 0 64 0 C64 10.56 64 21.12 64 32 C42.88 32 21.76 32 0 32 C0 21.44 0 10.88 0 0 Z " fill="#B4E4EE" transform="translate(368,0)"/>
<path d="M0 0 C10.56 0 21.12 0 32 0 C32 10.56 32 21.12 32 32 C21.44 32 10.88 32 0 32 C0 21.44 0 10.88 0 0 Z " fill="#3F8D9D" transform="translate(592,960)"/>
<path d="M0 0 C10.56 0 21.12 0 32 0 C32 10.56 32 21.12 32 32 C21.44 32 10.88 32 0 32 C0 21.44 0 10.88 0 0 Z " fill="#3F8D9D" transform="translate(432,960)"/>
<path d="M0 0 C10.56 0 21.12 0 32 0 C32 10.56 32 21.12 32 32 C21.44 32 10.88 32 0 32 C0 21.44 0 10.88 0 0 Z " fill="#3F8D9D" transform="translate(624,928)"/>
<path d="M0 0 C10.56 0 21.12 0 32 0 C32 10.56 32 21.12 32 32 C21.44 32 10.88 32 0 32 C0 21.44 0 10.88 0 0 Z " fill="#85CAD9" transform="translate(592,928)"/>
<path d="M0 0 C10.56 0 21.12 0 32 0 C32 10.56 32 21.12 32 32 C21.44 32 10.88 32 0 32 C0 21.44 0 10.88 0 0 Z " fill="#FFFFFF" transform="translate(592,896)"/>
<path d="M0 0 C10.56 0 21.12 0 32 0 C32 10.56 32 21.12 32 32 C21.44 32 10.88 32 0 32 C0 21.44 0 10.88 0 0 Z " fill="#FFFFFF" transform="translate(432,896)"/>
<path d="M0 0 C10.56 0 21.12 0 32 0 C32 10.56 32 21.12 32 32 C21.44 32 10.88 32 0 32 C0 21.44 0 10.88 0 0 Z " fill="#85CAD9" transform="translate(400,896)"/>
<path d="M0 0 C10.56 0 21.12 0 32 0 C32 10.56 32 21.12 32 32 C21.44 32 10.88 32 0 32 C0 21.44 0 10.88 0 0 Z " fill="#3F8D9D" transform="translate(368,896)"/>
<path d="M0 0 C10.56 0 21.12 0 32 0 C32 10.56 32 21.12 32 32 C21.44 32 10.88 32 0 32 C0 21.44 0 10.88 0 0 Z " fill="#3F8D9D" transform="translate(656,800)"/>
<path d="M0 0 C10.56 0 21.12 0 32 0 C32 10.56 32 21.12 32 32 C21.44 32 10.88 32 0 32 C0 21.44 0 10.88 0 0 Z " fill="#FFFFFF" transform="translate(592,800)"/>
<path d="M0 0 C10.56 0 21.12 0 32 0 C32 10.56 32 21.12 32 32 C21.44 32 10.88 32 0 32 C0 21.44 0 10.88 0 0 Z " fill="#000000" transform="translate(560,800)"/>
<path d="M0 0 C10.56 0 21.12 0 32 0 C32 10.56 32 21.12 32 32 C21.44 32 10.88 32 0 32 C0 21.44 0 10.88 0 0 Z " fill="#000000" transform="translate(464,800)"/>
<path d="M0 0 C10.56 0 21.12 0 32 0 C32 10.56 32 21.12 32 32 C21.44 32 10.88 32 0 32 C0 21.44 0 10.88 0 0 Z " fill="#FFFFFF" transform="translate(432,800)"/>
<path d="M0 0 C10.56 0 21.12 0 32 0 C32 10.56 32 21.12 32 32 C21.44 32 10.88 32 0 32 C0 21.44 0 10.88 0 0 Z " fill="#3F8D9D" transform="translate(368,800)"/>
<path d="M0 0 C10.56 0 21.12 0 32 0 C32 10.56 32 21.12 32 32 C21.44 32 10.88 32 0 32 C0 21.44 0 10.88 0 0 Z " fill="#0A9FBF" transform="translate(720,576)"/>
<path d="M0 0 C10.56 0 21.12 0 32 0 C32 10.56 32 21.12 32 32 C21.44 32 10.88 32 0 32 C0 21.44 0 10.88 0 0 Z " fill="#0A9FBF" transform="translate(368,576)"/>
<path d="M0 0 C10.56 0 21.12 0 32 0 C32 10.56 32 21.12 32 32 C21.44 32 10.88 32 0 32 C0 21.44 0 10.88 0 0 Z " fill="#0A9FBF" transform="translate(752,544)"/>
<path d="M0 0 C10.56 0 21.12 0 32 0 C32 10.56 32 21.12 32 32 C21.44 32 10.88 32 0 32 C0 21.44 0 10.88 0 0 Z " fill="#0A9FBF" transform="translate(688,512)"/>
<path d="M0 0 C10.56 0 21.12 0 32 0 C32 10.56 32 21.12 32 32 C21.44 32 10.88 32 0 32 C0 21.44 0 10.88 0 0 Z " fill="#0A9FBF" transform="translate(720,480)"/>
<path d="M0 0 C10.56 0 21.12 0 32 0 C32 10.56 32 21.12 32 32 C21.44 32 10.88 32 0 32 C0 21.44 0 10.88 0 0 Z " fill="#B4E4EE" transform="translate(304,480)"/>
<path d="M0 0 C10.56 0 21.12 0 32 0 C32 10.56 32 21.12 32 32 C21.44 32 10.88 32 0 32 C0 21.44 0 10.88 0 0 Z " fill="#0A9FBF" transform="translate(272,480)"/>
<path d="M0 0 C10.56 0 21.12 0 32 0 C32 10.56 32 21.12 32 32 C21.44 32 10.88 32 0 32 C0 21.44 0 10.88 0 0 Z " fill="#85CAD9" transform="translate(784,448)"/>
<path d="M0 0 C10.56 0 21.12 0 32 0 C32 10.56 32 21.12 32 32 C21.44 32 10.88 32 0 32 C0 21.44 0 10.88 0 0 Z " fill="#B4E4EE" transform="translate(752,448)"/>
<path d="M0 0 C10.56 0 21.12 0 32 0 C32 10.56 32 21.12 32 32 C21.44 32 10.88 32 0 32 C0 21.44 0 10.88 0 0 Z " fill="#B4E4EE" transform="translate(336,448)"/>
<path d="M0 0 C10.56 0 21.12 0 32 0 C32 10.56 32 21.12 32 32 C21.44 32 10.88 32 0 32 C0 21.44 0 10.88 0 0 Z " fill="#B4E4EE" transform="translate(272,448)"/>
<path d="M0 0 C10.56 0 21.12 0 32 0 C32 10.56 32 21.12 32 32 C21.44 32 10.88 32 0 32 C0 21.44 0 10.88 0 0 Z " fill="#85CAD9" transform="translate(752,416)"/>
<path d="M0 0 C10.56 0 21.12 0 32 0 C32 10.56 32 21.12 32 32 C21.44 32 10.88 32 0 32 C0 21.44 0 10.88 0 0 Z " fill="#0A9FBF" transform="translate(432,416)"/>
<path d="M0 0 C10.56 0 21.12 0 32 0 C32 10.56 32 21.12 32 32 C21.44 32 10.88 32 0 32 C0 21.44 0 10.88 0 0 Z " fill="#0A9FBF" transform="translate(656,384)"/>
<path d="M0 0 C10.56 0 21.12 0 32 0 C32 10.56 32 21.12 32 32 C21.44 32 10.88 32 0 32 C0 21.44 0 10.88 0 0 Z " fill="#B4E4EE" transform="translate(624,384)"/>
<path d="M0 0 C10.56 0 21.12 0 32 0 C32 10.56 32 21.12 32 32 C21.44 32 10.88 32 0 32 C0 21.44 0 10.88 0 0 Z " fill="#0A9FBF" transform="translate(560,384)"/>
<path d="M0 0 C10.56 0 21.12 0 32 0 C32 10.56 32 21.12 32 32 C21.44 32 10.88 32 0 32 C0 21.44 0 10.88 0 0 Z " fill="#B4E4EE" transform="translate(336,384)"/>
<path d="M0 0 C10.56 0 21.12 0 32 0 C32 10.56 32 21.12 32 32 C21.44 32 10.88 32 0 32 C0 21.44 0 10.88 0 0 Z " fill="#0A9FBF" transform="translate(784,352)"/>
<path d="M0 0 C10.56 0 21.12 0 32 0 C32 10.56 32 21.12 32 32 C21.44 32 10.88 32 0 32 C0 21.44 0 10.88 0 0 Z " fill="#0A9FBF" transform="translate(464,352)"/>
<path d="M0 0 C10.56 0 21.12 0 32 0 C32 10.56 32 21.12 32 32 C21.44 32 10.88 32 0 32 C0 21.44 0 10.88 0 0 Z " fill="#0A9FBF" transform="translate(336,352)"/>
<path d="M0 0 C10.56 0 21.12 0 32 0 C32 10.56 32 21.12 32 32 C21.44 32 10.88 32 0 32 C0 21.44 0 10.88 0 0 Z " fill="#B4E4EE" transform="translate(304,352)"/>
<path d="M0 0 C10.56 0 21.12 0 32 0 C32 10.56 32 21.12 32 32 C21.44 32 10.88 32 0 32 C0 21.44 0 10.88 0 0 Z " fill="#85CAD9" transform="translate(688,320)"/>
<path d="M0 0 C10.56 0 21.12 0 32 0 C32 10.56 32 21.12 32 32 C21.44 32 10.88 32 0 32 C0 21.44 0 10.88 0 0 Z " fill="#B4E4EE" transform="translate(656,320)"/>
<path d="M0 0 C10.56 0 21.12 0 32 0 C32 10.56 32 21.12 32 32 C21.44 32 10.88 32 0 32 C0 21.44 0 10.88 0 0 Z " fill="#B4E4EE" transform="translate(496,320)"/>
<path d="M0 0 C10.56 0 21.12 0 32 0 C32 10.56 32 21.12 32 32 C21.44 32 10.88 32 0 32 C0 21.44 0 10.88 0 0 Z " fill="#0A9FBF" transform="translate(304,320)"/>
<path d="M0 0 C10.56 0 21.12 0 32 0 C32 10.56 32 21.12 32 32 C21.44 32 10.88 32 0 32 C0 21.44 0 10.88 0 0 Z " fill="#B4E4EE" transform="translate(272,320)"/>
<path d="M0 0 C10.56 0 21.12 0 32 0 C32 10.56 32 21.12 32 32 C21.44 32 10.88 32 0 32 C0 21.44 0 10.88 0 0 Z " fill="#85CAD9" transform="translate(656,288)"/>
<path d="M0 0 C10.56 0 21.12 0 32 0 C32 10.56 32 21.12 32 32 C21.44 32 10.88 32 0 32 C0 21.44 0 10.88 0 0 Z " fill="#B4E4EE" transform="translate(432,288)"/>
<path d="M0 0 C10.56 0 21.12 0 32 0 C32 10.56 32 21.12 32 32 C21.44 32 10.88 32 0 32 C0 21.44 0 10.88 0 0 Z " fill="#0A9FBF" transform="translate(368,288)"/>
<path d="M0 0 C10.56 0 21.12 0 32 0 C32 10.56 32 21.12 32 32 C21.44 32 10.88 32 0 32 C0 21.44 0 10.88 0 0 Z " fill="#B4E4EE" transform="translate(368,256)"/>
<path d="M0 0 C10.56 0 21.12 0 32 0 C32 10.56 32 21.12 32 32 C21.44 32 10.88 32 0 32 C0 21.44 0 10.88 0 0 Z " fill="#85CAD9" transform="translate(400,128)"/>
<path d="M0 0 C10.56 0 21.12 0 32 0 C32 10.56 32 21.12 32 32 C21.44 32 10.88 32 0 32 C0 21.44 0 10.88 0 0 Z " fill="#B4E4EE" transform="translate(400,96)"/>
<path d="M0 0 C10.56 0 21.12 0 32 0 C32 10.56 32 21.12 32 32 C21.44 32 10.88 32 0 32 C0 21.44 0 10.88 0 0 Z " fill="#0A9FBF" transform="translate(208,96)"/>
<path d="M0 0 C10.56 0 21.12 0 32 0 C32 10.56 32 21.12 32 32 C21.44 32 10.88 32 0 32 C0 21.44 0 10.88 0 0 Z " fill="#B4E4EE" transform="translate(720,64)"/>
<path d="M0 0 C10.56 0 21.12 0 32 0 C32 10.56 32 21.12 32 32 C21.44 32 10.88 32 0 32 C0 21.44 0 10.88 0 0 Z " fill="#85CAD9" transform="translate(272,64)"/>
<path d="M0 0 C10.56 0 21.12 0 32 0 C32 10.56 32 21.12 32 32 C21.44 32 10.88 32 0 32 C0 21.44 0 10.88 0 0 Z " fill="#B4E4EE" transform="translate(208,64)"/>
<path d="M0 0 C10.56 0 21.12 0 32 0 C32 10.56 32 21.12 32 32 C21.44 32 10.88 32 0 32 C0 21.44 0 10.88 0 0 Z " fill="#B4E4EE" transform="translate(688,32)"/>
<path d="M0 0 C10.56 0 21.12 0 32 0 C32 10.56 32 21.12 32 32 C21.44 32 10.88 32 0 32 C0 21.44 0 10.88 0 0 Z " fill="#B4E4EE" transform="translate(240,0)"/>
</svg>
