<?xml version="1.0" encoding="utf-8"?>
<svg version="1.1" width="1024" height="1024" xmlns="http://www.w3.org/2000/svg">
  <path d="M0 0 C7.59 0 15.18 0 23 0 C23 15.51 23 31.02 23 47 C30.92 47 38.84 47 47 47 C47 54.92 47 62.84 47 71 C54.92 71 62.84 71 71 71 C71 94.1 71 117.2 71 141 C63.08 141 55.16 141 47 141 C47 156.84 47 172.68 47 189 C39.08 189 31.16 189 23 189 C23 235.53 23 282.06 23 330 C30.92 330 38.84 330 47 330 C47 337.92 47 345.84 47 354 C39.08 354 31.16 354 23 354 C23 369.51 23 385.02 23 401 C30.92 401 38.84 401 47 401 C47 408.92 47 416.84 47 425 C54.92 425 62.84 425 71 425 C71 432.59 71 440.18 71 448 C86.51 448 102.02 448 118 448 C118 463.84 118 479.68 118 496 C110.08 496 102.16 496 94 496 C94 511.51 94 527.02 94 543 C86.41 543 78.82 543 71 543 C71 636.39 71 729.78 71 826 C78.59 826 86.18 826 94 826 C94 818.08 94 810.16 94 802 C109.51 802 125.02 802 141 802 C141 825.43 141 848.86 141 873 C125.49 873 109.98 873 94 873 C94 880.92 94 888.84 94 897 C78.49 897 62.98 897 47 897 C47 904.92 47 912.84 47 921 C31.49 921 15.98 921 0 921 C0 928.59 0 936.18 0 944 C-31.35 944 -62.7 944 -95 944 C-95 936.41 -95 928.82 -95 921 C-126.02 921 -157.04 921 -189 921 C-189 913.08 -189 905.16 -189 897 C-204.51 897 -220.02 897 -236 897 C-236 865.65 -236 834.3 -236 802 C-220.49 802 -204.98 802 -189 802 C-189 809.92 -189 817.84 -189 826 C-181.08 826 -173.16 826 -165 826 C-165 732.61 -165 639.22 -165 543 C-172.92 543 -180.84 543 -189 543 C-189 527.49 -189 511.98 -189 496 C-196.92 496 -204.84 496 -213 496 C-213 480.16 -213 464.32 -213 448 C-197.16 448 -181.32 448 -165 448 C-165 440.41 -165 432.82 -165 425 C-157.41 425 -149.82 425 -142 425 C-142 417.08 -142 409.16 -142 401 C-134.08 401 -126.16 401 -118 401 C-118 331.04 -118 261.08 -118 189 C-125.92 189 -133.84 189 -142 189 C-142 173.16 -142 157.32 -142 141 C-149.59 141 -157.18 141 -165 141 C-165 125.49 -165 109.98 -165 94 C-157.41 94 -149.82 94 -142 94 C-142 86.41 -142 78.82 -142 71 C-149.59 71 -157.18 71 -165 71 C-165 63.08 -165 55.16 -165 47 C-141.9 47 -118.8 47 -95 47 C-95 54.92 -95 62.84 -95 71 C-87.08 71 -79.16 71 -71 71 C-71 78.59 -71 86.18 -71 94 C-63.08 94 -55.16 94 -47 94 C-47 86.41 -47 78.82 -47 71 C-39.41 71 -31.82 71 -24 71 C-24 78.59 -24 86.18 -24 94 C-16.08 94 -8.16 94 0 94 C0 78.49 0 62.98 0 47 C-7.92 47 -15.84 47 -24 47 C-24 39.08 -24 31.16 -24 23 C-16.08 23 -8.16 23 0 23 C0 15.41 0 7.82 0 0 Z " fill="#167CCC" transform="translate(583,71)"/>
  <path d="M0 0 C7.59 0 15.18 0 23 0 C23 93.39 23 186.78 23 283 C30.92 283 38.84 283 47 283 C47 290.92 47 298.84 47 307 C54.59 307 62.18 307 70 307 C70 205.69 70 104.38 70 0 C77.92 0 85.84 0 94 0 C94 69.96 94 139.92 94 212 C101.92 212 109.84 212 118 212 C118 219.92 118 227.84 118 236 C125.59 236 133.18 236 141 236 C141 165.71 141 95.42 141 23 C148.92 23 156.84 23 165 23 C165 116.72 165 210.44 165 307 C172.59 307 180.18 307 188 307 C188 299.08 188 291.16 188 283 C195.92 283 203.84 283 212 283 C212 189.61 212 96.22 212 0 C219.92 0 227.84 0 236 0 C236 93.39 236 186.78 236 283 C243.59 283 251.18 283 259 283 C259 275.08 259 267.16 259 259 C274.51 259 290.02 259 306 259 C306 282.43 306 305.86 306 330 C290.49 330 274.98 330 259 330 C259 337.92 259 345.84 259 354 C243.49 354 227.98 354 212 354 C212 361.92 212 369.84 212 378 C196.49 378 180.98 378 165 378 C165 385.59 165 393.18 165 401 C133.65 401 102.3 401 70 401 C70 393.41 70 385.82 70 378 C38.98 378 7.96 378 -24 378 C-24 370.08 -24 362.16 -24 354 C-39.51 354 -55.02 354 -71 354 C-71 322.65 -71 291.3 -71 259 C-55.49 259 -39.98 259 -24 259 C-24 266.92 -24 274.84 -24 283 C-16.08 283 -8.16 283 0 283 C0 189.61 0 96.22 0 0 Z " fill="#0F5E9C" transform="translate(418,614)"/>
  <path d="M0 0 C7.59 0 15.18 0 23 0 C23 15.51 23 31.02 23 47 C30.92 47 38.84 47 47 47 C47 54.92 47 62.84 47 71 C54.92 71 62.84 71 71 71 C71 94.1 71 117.2 71 141 C63.08 141 55.16 141 47 141 C47 156.84 47 172.68 47 189 C31.49 189 15.98 189 0 189 C0 235.53 0 282.06 0 330 C-15.51 330 -31.02 330 -47 330 C-47 337.92 -47 345.84 -47 354 C-54.92 354 -62.84 354 -71 354 C-71 361.92 -71 369.84 -71 378 C-78.92 378 -86.84 378 -95 378 C-95 315.63 -95 253.26 -95 189 C-110.51 189 -126.02 189 -142 189 C-142 173.16 -142 157.32 -142 141 C-149.59 141 -157.18 141 -165 141 C-165 125.49 -165 109.98 -165 94 C-157.41 94 -149.82 94 -142 94 C-142 86.41 -142 78.82 -142 71 C-149.59 71 -157.18 71 -165 71 C-165 63.08 -165 55.16 -165 47 C-141.9 47 -118.8 47 -95 47 C-95 54.92 -95 62.84 -95 71 C-87.08 71 -79.16 71 -71 71 C-71 78.59 -71 86.18 -71 94 C-63.08 94 -55.16 94 -47 94 C-47 86.41 -47 78.82 -47 71 C-39.41 71 -31.82 71 -24 71 C-24 78.59 -24 86.18 -24 94 C-16.08 94 -8.16 94 0 94 C0 78.49 0 62.98 0 47 C-7.92 47 -15.84 47 -24 47 C-24 39.08 -24 31.16 -24 23 C-16.08 23 -8.16 23 0 23 C0 15.41 0 7.82 0 0 Z " fill="#167CCC" transform="translate(583,71)"/>
  <path d="M0 0 C7.59 0 15.18 0 23 0 C23 62.37 23 124.74 23 189 C30.92 189 38.84 189 47 189 C47 181.08 47 173.16 47 165 C54.92 165 62.84 165 71 165 C71 157.08 71 149.16 71 141 C86.51 141 102.02 141 118 141 C118 94.47 118 47.94 118 0 C125.59 0 133.18 0 141 0 C141 46.53 141 93.06 141 141 C148.92 141 156.84 141 165 141 C165 148.92 165 156.84 165 165 C157.08 165 149.16 165 141 165 C141 180.51 141 196.02 141 212 C148.92 212 156.84 212 165 212 C165 219.92 165 227.84 165 236 C172.92 236 180.84 236 189 236 C189 243.59 189 251.18 189 259 C181.08 259 173.16 259 165 259 C165 266.92 165 274.84 165 283 C157.08 283 149.16 283 141 283 C141 298.51 141 314.02 141 330 C125.49 330 109.98 330 94 330 C94 322.41 94 314.82 94 307 C55.06 307 16.12 307 -24 307 C-24 314.59 -24 322.18 -24 330 C-31.59 330 -39.18 330 -47 330 C-47 322.41 -47 314.82 -47 307 C-62.84 307 -78.68 307 -95 307 C-95 291.16 -95 275.32 -95 259 C-79.16 259 -63.32 259 -47 259 C-47 251.41 -47 243.82 -47 236 C-39.41 236 -31.82 236 -24 236 C-24 228.08 -24 220.16 -24 212 C-16.08 212 -8.16 212 0 212 C0 142.04 0 72.08 0 0 Z " fill="#0F5E9C" transform="translate(465,260)"/>
  <path d="M0 0 C7.92 0 15.84 0 24 0 C24 93.39 24 186.78 24 283 C31.59 283 39.18 283 47 283 C47 275.08 47 267.16 47 259 C62.51 259 78.02 259 94 259 C94 282.43 94 305.86 94 330 C78.49 330 62.98 330 47 330 C47 337.92 47 345.84 47 354 C31.49 354 15.98 354 0 354 C0 361.92 0 369.84 0 378 C-15.51 378 -31.02 378 -47 378 C-47 385.59 -47 393.18 -47 401 C-78.35 401 -109.7 401 -142 401 C-142 393.41 -142 385.82 -142 378 C-118.57 378 -95.14 378 -71 378 C-71 260.85 -71 143.7 -71 23 C-63.08 23 -55.16 23 -47 23 C-47 116.72 -47 210.44 -47 307 C-39.41 307 -31.82 307 -24 307 C-24 299.08 -24 291.16 -24 283 C-16.08 283 -8.16 283 0 283 C0 189.61 0 96.22 0 0 Z " fill="#0F5E9C" transform="translate(630,614)"/>
  <path d="M0 0 C7.92 0 15.84 0 24 0 C24 7.59 24 15.18 24 23 C31.59 23 39.18 23 47 23 C47 15.41 47 7.82 47 0 C54.92 0 62.84 0 71 0 C71 23.1 71 46.2 71 70 C78.59 70 86.18 70 94 70 C94 163.72 94 257.44 94 354 C86.41 354 78.82 354 71 354 C71 346.08 71 338.16 71 330 C63.08 330 55.16 330 47 330 C47 236.61 47 143.22 47 47 C31.49 47 15.98 47 0 47 C0 31.49 0 15.98 0 0 Z " fill="#1373BD" transform="translate(394,567)"/>
  <path d="M0 0 C23.1 0 46.2 0 70 0 C70 7.92 70 15.84 70 24 C77.92 24 85.84 24 94 24 C94 31.59 94 39.18 94 47 C101.92 47 109.84 47 118 47 C118 39.41 118 31.82 118 24 C125.59 24 133.18 24 141 24 C141 31.59 141 39.18 141 47 C148.92 47 156.84 47 165 47 C165 54.92 165 62.84 165 71 C157.08 71 149.16 71 141 71 C141 78.59 141 86.18 141 94 C125.49 94 109.98 94 94 94 C94 86.41 94 78.82 94 71 C86.08 71 78.16 71 70 71 C70 78.59 70 86.18 70 94 C62.41 94 54.82 94 47 94 C47 109.84 47 125.68 47 142 C39.08 142 31.16 142 23 142 C23 126.16 23 110.32 23 94 C15.41 94 7.82 94 0 94 C0 78.49 0 62.98 0 47 C7.59 47 15.18 47 23 47 C23 39.41 23 31.82 23 24 C15.41 24 7.82 24 0 24 C0 16.08 0 8.16 0 0 Z " fill="#1CA3EC" transform="translate(418,118)"/>
  <path d="M0 0 C7.92 0 15.84 0 24 0 C24 7.92 24 15.84 24 24 C31.59 24 39.18 24 47 24 C47 101.88 47 179.76 47 260 C39.41 260 31.82 260 24 260 C24 252.08 24 244.16 24 236 C16.08 236 8.16 236 0 236 C0 158.12 0 80.24 0 0 Z " fill="#1169AE" transform="translate(512,590)"/>
  <path d="M0 0 C7.59 0 15.18 0 23 0 C23 15.51 23 31.02 23 47 C30.92 47 38.84 47 47 47 C47 54.92 47 62.84 47 71 C54.92 71 62.84 71 71 71 C71 94.1 71 117.2 71 141 C63.08 141 55.16 141 47 141 C47 156.84 47 172.68 47 189 C39.08 189 31.16 189 23 189 C23 173.16 23 157.32 23 141 C7.49 141 -8.02 141 -24 141 C-24 133.41 -24 125.82 -24 118 C-16.08 118 -8.16 118 0 118 C0 94.57 0 71.14 0 47 C-7.92 47 -15.84 47 -24 47 C-24 39.08 -24 31.16 -24 23 C-16.08 23 -8.16 23 0 23 C0 15.41 0 7.82 0 0 Z " fill="#1CA3EC" transform="translate(583,71)"/>
  <path d="M0 0 C7.92 0 15.84 0 24 0 C24 93.39 24 186.78 24 283 C31.59 283 39.18 283 47 283 C47 290.92 47 298.84 47 307 C23.57 307 0.14 307 -24 307 C-24 299.08 -24 291.16 -24 283 C-16.08 283 -8.16 283 0 283 C0 189.61 0 96.22 0 0 Z " fill="#000000" transform="translate(630,614)"/>
  <path d="M0 0 C7.92 0 15.84 0 24 0 C24 108.9 24 217.8 24 330 C8.49 330 -7.02 330 -23 330 C-23 322.41 -23 314.82 -23 307 C-15.41 307 -7.82 307 0 307 C0 205.69 0 104.38 0 0 Z " fill="#000000" transform="translate(488,614)"/>
  <path d="M0 0 C7.92 0 15.84 0 24 0 C24 62.37 24 124.74 24 189 C16.08 189 8.16 189 0 189 C0 196.92 0 204.84 0 213 C-7.59 213 -15.18 213 -23 213 C-23 158.22 -23 103.44 -23 47 C-15.41 47 -7.82 47 0 47 C0 31.49 0 15.98 0 0 Z " fill="#1169AE" transform="translate(606,708)"/>
  <path d="M0 0 C7.59 0 15.18 0 23 0 C23 93.39 23 186.78 23 283 C30.92 283 38.84 283 47 283 C47 290.92 47 298.84 47 307 C23.57 307 0.14 307 -24 307 C-24 299.08 -24 291.16 -24 283 C-16.08 283 -8.16 283 0 283 C0 189.61 0 96.22 0 0 Z " fill="#000000" transform="translate(418,614)"/>
  <path d="M0 0 C7.92 0 15.84 0 24 0 C24 93.72 24 187.44 24 284 C31.59 284 39.18 284 47 284 C47 291.59 47 299.18 47 307 C31.49 307 15.98 307 0 307 C0 205.69 0 104.38 0 0 Z " fill="#000000" transform="translate(559,637)"/>
  <path d="M0 0 C15.51 0 31.02 0 47 0 C47 7.59 47 15.18 47 23 C54.92 23 62.84 23 71 23 C71 30.92 71 38.84 71 47 C78.59 47 86.18 47 94 47 C94 62.51 94 78.02 94 94 C78.49 94 62.98 94 47 94 C47 86.41 47 78.82 47 71 C15.98 71 -15.04 71 -47 71 C-47 63.08 -47 55.16 -47 47 C-39.41 47 -31.82 47 -24 47 C-24 39.08 -24 31.16 -24 23 C-16.08 23 -8.16 23 0 23 C0 15.41 0 7.82 0 0 Z " fill="#0F5E9C" transform="translate(512,496)"/>
  <path d="M0 0 C7.92 0 15.84 0 24 0 C24 31.02 24 62.04 24 94 C8.49 94 -7.02 94 -23 94 C-23 101.92 -23 109.84 -23 118 C-30.92 118 -38.84 118 -47 118 C-47 125.92 -47 133.84 -47 142 C-54.92 142 -62.84 142 -71 142 C-71 118.57 -71 95.14 -71 71 C-63.08 71 -55.16 71 -47 71 C-47 63.08 -47 55.16 -47 47 C-39.08 47 -31.16 47 -23 47 C-23 39.41 -23 31.82 -23 24 C-15.41 24 -7.82 24 0 24 C0 16.08 0 8.16 0 0 Z " fill="#1169AE" transform="translate(559,307)"/>
  <path d="M0 0 C31.02 0 62.04 0 94 0 C94 7.59 94 15.18 94 23 C109.51 23 125.02 23 141 23 C141 38.51 141 54.02 141 70 C125.49 70 109.98 70 94 70 C94 62.41 94 54.82 94 47 C86.41 47 78.82 47 71 47 C71 39.08 71 31.16 71 23 C63.08 23 55.16 23 47 23 C47 30.92 47 38.84 47 47 C39.08 47 31.16 47 23 47 C23 54.59 23 62.18 23 70 C15.41 70 7.82 70 0 70 C0 46.9 0 23.8 0 0 Z " fill="#1B8EE9" transform="translate(465,567)"/>
  <path d="M0 0 C23.43 0 46.86 0 71 0 C71 15.84 71 31.68 71 48 C55.49 48 39.98 48 24 48 C24 55.59 24 63.18 24 71 C-7.35 71 -38.7 71 -71 71 C-71 63.41 -71 55.82 -71 48 C-47.57 48 -24.14 48 0 48 C0 32.16 0 16.32 0 0 Z " fill="#0F5E9C" transform="translate(559,944)"/>
  <path d="M0 0 C7.59 0 15.18 0 23 0 C23 46.53 23 93.06 23 141 C30.92 141 38.84 141 47 141 C47 148.92 47 156.84 47 165 C39.08 165 31.16 165 23 165 C23 180.51 23 196.02 23 212 C15.41 212 7.82 212 0 212 C0 142.04 0 72.08 0 0 Z " fill="#000000" transform="translate(583,260)"/>
  <path d="M0 0 C23.43 0 46.86 0 71 0 C71 15.84 71 31.68 71 48 C55.49 48 39.98 48 24 48 C24 55.59 24 63.18 24 71 C8.16 71 -7.68 71 -24 71 C-24 55.49 -24 39.98 -24 24 C-16.08 24 -8.16 24 0 24 C0 16.08 0 8.16 0 0 Z " fill="#289DFA" transform="translate(630,519)"/>
  <path d="M0 0 C7.92 0 15.84 0 24 0 C24 7.92 24 15.84 24 24 C31.59 24 39.18 24 47 24 C47 47.43 47 70.86 47 95 C39.41 95 31.82 95 24 95 C24 110.51 24 126.02 24 142 C16.08 142 8.16 142 0 142 C0 95.14 0 48.28 0 0 Z " fill="#167CCC" transform="translate(512,590)"/>
  <path d="M0 0 C15.51 0 31.02 0 47 0 C47 15.84 47 31.68 47 48 C54.92 48 62.84 48 71 48 C71 55.59 71 63.18 71 71 C63.08 71 55.16 71 47 71 C47 78.92 47 86.84 47 95 C31.49 95 15.98 95 0 95 C0 63.65 0 32.3 0 0 Z " fill="#2DA0FB" transform="translate(347,873)"/>
  <path d="M0 0 C7.59 0 15.18 0 23 0 C23 46.86 23 93.72 23 142 C15.41 142 7.82 142 0 142 C0 134.08 0 126.16 0 118 C-7.92 118 -15.84 118 -24 118 C-24 94.57 -24 71.14 -24 47 C-16.08 47 -8.16 47 0 47 C0 31.49 0 15.98 0 0 Z " fill="#0F5E9C" transform="translate(465,779)"/>
  <path d="M0 0 C7.59 0 15.18 0 23 0 C23 69.96 23 139.92 23 212 C15.41 212 7.82 212 0 212 C0 142.04 0 72.08 0 0 Z " fill="#000000" transform="translate(465,260)"/>
  <path d="M0 0 C23.43 0 46.86 0 71 0 C71 7.92 71 15.84 71 24 C78.92 24 86.84 24 95 24 C95 31.92 95 39.84 95 48 C87.08 48 79.16 48 71 48 C71 55.59 71 63.18 71 71 C63.41 71 55.82 71 48 71 C48 63.41 48 55.82 48 48 C32.16 48 16.32 48 0 48 C0 32.16 0 16.32 0 0 Z " fill="#289DFA" transform="translate(370,519)"/>
  <path d="M0 0 C7.92 0 15.84 0 24 0 C24 7.59 24 15.18 24 23 C47.43 23 70.86 23 95 23 C95 30.92 95 38.84 95 47 C87.08 47 79.16 47 71 47 C71 54.92 71 62.84 71 71 C63.41 71 55.82 71 48 71 C48 78.59 48 86.18 48 94 C40.08 94 32.16 94 24 94 C24 78.49 24 62.98 24 47 C16.08 47 8.16 47 0 47 C0 31.49 0 15.98 0 0 Z " fill="#1B8EE9" transform="translate(488,189)"/>
  <path d="M0 0 C7.59 0 15.18 0 23 0 C23 15.51 23 31.02 23 47 C30.92 47 38.84 47 47 47 C47 62.51 47 78.02 47 94 C39.08 94 31.16 94 23 94 C23 101.92 23 109.84 23 118 C15.41 118 7.82 118 0 118 C0 79.06 0 40.12 0 0 Z " fill="#0F5E9C" transform="translate(583,803)"/>
  <path d="M0 0 C7.59 0 15.18 0 23 0 C23 7.59 23 15.18 23 23 C30.92 23 38.84 23 47 23 C47 30.92 47 38.84 47 47 C39.08 47 31.16 47 23 47 C23 54.59 23 62.18 23 70 C7.49 70 -8.02 70 -24 70 C-24 54.49 -24 38.98 -24 23 C-16.08 23 -8.16 23 0 23 C0 15.41 0 7.82 0 0 Z " fill="#1CA3EC" transform="translate(536,142)"/>
  <path d="M0 0 C23.1 0 46.2 0 70 0 C70 15.51 70 31.02 70 47 C54.49 47 38.98 47 23 47 C23 39.41 23 31.82 23 24 C15.41 24 7.82 24 0 24 C0 16.08 0 8.16 0 0 Z " fill="#1B8EE9" transform="translate(536,590)"/>
  <path d="M0 0 C31.02 0 62.04 0 94 0 C94 7.92 94 15.84 94 24 C62.98 24 31.96 24 0 24 C0 16.08 0 8.16 0 0 Z " fill="#000000" transform="translate(394,968)"/>
  <path d="M0 0 C15.51 0 31.02 0 47 0 C47 15.84 47 31.68 47 48 C31.49 48 15.98 48 0 48 C0 32.16 0 16.32 0 0 Z " fill="#2DA0FB" transform="translate(677,873)"/>
  <path d="M0 0 C7.92 0 15.84 0 24 0 C24 23.43 24 46.86 24 71 C16.08 71 8.16 71 0 71 C0 63.08 0 55.16 0 47 C-7.59 47 -15.18 47 -23 47 C-23 39.41 -23 31.82 -23 24 C-15.41 24 -7.82 24 0 24 C0 16.08 0 8.16 0 0 Z " fill="#289DFA" transform="translate(441,472)"/>
  <path d="M0 0 C23.1 0 46.2 0 70 0 C70 7.92 70 15.84 70 24 C62.41 24 54.82 24 47 24 C47 31.59 47 39.18 47 47 C39.08 47 31.16 47 23 47 C23 39.41 23 31.82 23 24 C15.41 24 7.82 24 0 24 C0 16.08 0 8.16 0 0 Z " fill="#1CA3EC" transform="translate(418,118)"/>
  <path d="M0 0 C7.59 0 15.18 0 23 0 C23 23.43 23 46.86 23 71 C15.41 71 7.82 71 0 71 C0 63.08 0 55.16 0 47 C-7.92 47 -15.84 47 -24 47 C-24 39.08 -24 31.16 -24 23 C-16.08 23 -8.16 23 0 23 C0 15.41 0 7.82 0 0 Z " fill="#1CA3EC" transform="translate(583,71)"/>
  <path d="M0 0 C31.35 0 62.7 0 95 0 C95 7.59 95 15.18 95 23 C63.65 23 32.3 23 0 23 C0 15.41 0 7.82 0 0 Z " fill="#000000" transform="translate(488,992)"/>
  <path d="M0 0 C15.84 0 31.68 0 48 0 C48 7.92 48 15.84 48 24 C40.08 24 32.16 24 24 24 C24 31.92 24 39.84 24 48 C16.08 48 8.16 48 0 48 C0 32.16 0 16.32 0 0 Z " fill="#000000" transform="translate(370,519)"/>
  <path d="M0 0 C15.51 0 31.02 0 47 0 C47 15.84 47 31.68 47 48 C39.08 48 31.16 48 23 48 C23 40.08 23 32.16 23 24 C15.41 24 7.82 24 0 24 C0 16.08 0 8.16 0 0 Z " fill="#000000" transform="translate(654,519)"/>
  <path d="M0 0 C7.59 0 15.18 0 23 0 C23 7.59 23 15.18 23 23 C30.92 23 38.84 23 47 23 C47 30.92 47 38.84 47 47 C31.49 47 15.98 47 0 47 C0 31.49 0 15.98 0 0 Z " fill="#000000" transform="translate(347,921)"/>
  <path d="M0 0 C15.51 0 31.02 0 47 0 C47 7.92 47 15.84 47 24 C39.08 24 31.16 24 23 24 C23 31.59 23 39.18 23 47 C15.41 47 7.82 47 0 47 C0 31.49 0 15.98 0 0 Z " fill="#000000" transform="translate(418,165)"/>
  <path d="M0 0 C23.43 0 46.86 0 71 0 C71 7.59 71 15.18 71 23 C47.57 23 24.14 23 0 23 C0 15.41 0 7.82 0 0 Z " fill="#289DFA" transform="translate(488,567)"/>
  <path d="M0 0 C7.92 0 15.84 0 24 0 C24 15.84 24 31.68 24 48 C16.08 48 8.16 48 0 48 C0 32.16 0 16.32 0 0 Z " fill="#000000" transform="translate(606,212)"/>
  <path d="M0 0 C7.92 0 15.84 0 24 0 C24 15.84 24 31.68 24 48 C16.08 48 8.16 48 0 48 C0 32.16 0 16.32 0 0 Z " fill="#000000" transform="translate(441,212)"/>
  <path d="M0 0 C15.51 0 31.02 0 47 0 C47 7.92 47 15.84 47 24 C31.49 24 15.98 24 0 24 C0 16.08 0 8.16 0 0 Z " fill="#000000" transform="translate(583,968)"/>
  <path d="M0 0 C15.51 0 31.02 0 47 0 C47 7.92 47 15.84 47 24 C31.49 24 15.98 24 0 24 C0 16.08 0 8.16 0 0 Z " fill="#3191DD" transform="translate(512,968)"/>
  <path d="M0 0 C15.51 0 31.02 0 47 0 C47 7.92 47 15.84 47 24 C31.49 24 15.98 24 0 24 C0 16.08 0 8.16 0 0 Z " fill="#000000" transform="translate(630,944)"/>
  <path d="M0 0 C15.51 0 31.02 0 47 0 C47 7.92 47 15.84 47 24 C31.49 24 15.98 24 0 24 C0 16.08 0 8.16 0 0 Z " fill="#000000" transform="translate(512,944)"/>
  <path d="M0 0 C15.51 0 31.02 0 47 0 C47 7.92 47 15.84 47 24 C31.49 24 15.98 24 0 24 C0 16.08 0 8.16 0 0 Z " fill="#000000" transform="translate(677,873)"/>
  <path d="M0 0 C15.51 0 31.02 0 47 0 C47 7.92 47 15.84 47 24 C31.49 24 15.98 24 0 24 C0 16.08 0 8.16 0 0 Z " fill="#000000" transform="translate(347,873)"/>
  <path d="M0 0 C7.92 0 15.84 0 24 0 C24 15.51 24 31.02 24 47 C16.08 47 8.16 47 0 47 C0 31.49 0 15.98 0 0 Z " fill="#000000" transform="translate(394,567)"/>
  <path d="M0 0 C7.92 0 15.84 0 24 0 C24 15.51 24 31.02 24 47 C16.08 47 8.16 47 0 47 C0 31.49 0 15.98 0 0 Z " fill="#000000" transform="translate(630,165)"/>
  <path d="M0 0 C15.84 0 31.68 0 48 0 C48 7.59 48 15.18 48 23 C32.16 23 16.32 23 0 23 C0 15.41 0 7.82 0 0 Z " fill="#1B8EE9" transform="translate(606,567)"/>
  <path d="M0 0 C15.51 0 31.02 0 47 0 C47 7.59 47 15.18 47 23 C31.49 23 15.98 23 0 23 C0 15.41 0 7.82 0 0 Z " fill="#000000" transform="translate(677,921)"/>
  <path d="M0 0 C7.59 0 15.18 0 23 0 C23 15.51 23 31.02 23 47 C15.41 47 7.82 47 0 47 C0 31.49 0 15.98 0 0 Z " fill="#000000" transform="translate(654,567)"/>
  <path d="M0 0 C15.51 0 31.02 0 47 0 C47 7.59 47 15.18 47 23 C31.49 23 15.98 23 0 23 C0 15.41 0 7.82 0 0 Z " fill="#000000" transform="translate(512,496)"/>
  <path d="M0 0 C15.51 0 31.02 0 47 0 C47 7.59 47 15.18 47 23 C31.49 23 15.98 23 0 23 C0 15.41 0 7.82 0 0 Z " fill="#1B8EE9" transform="translate(559,189)"/>
  <path d="M0 0 C7.92 0 15.84 0 24 0 C24 7.92 24 15.84 24 24 C16.08 24 8.16 24 0 24 C0 16.08 0 8.16 0 0 Z " fill="#0F5E9C" transform="translate(559,968)"/>
  <path d="M0 0 C7.92 0 15.84 0 24 0 C24 7.92 24 15.84 24 24 C16.08 24 8.16 24 0 24 C0 16.08 0 8.16 0 0 Z " fill="#0F5E9C" transform="translate(488,968)"/>
  <path d="M0 0 C7.92 0 15.84 0 24 0 C24 7.92 24 15.84 24 24 C16.08 24 8.16 24 0 24 C0 16.08 0 8.16 0 0 Z " fill="#3191DD" transform="translate(559,944)"/>
  <path d="M0 0 C7.92 0 15.84 0 24 0 C24 7.92 24 15.84 24 24 C16.08 24 8.16 24 0 24 C0 16.08 0 8.16 0 0 Z " fill="#3191DD" transform="translate(488,944)"/>
  <path d="M0 0 C7.92 0 15.84 0 24 0 C24 7.92 24 15.84 24 24 C16.08 24 8.16 24 0 24 C0 16.08 0 8.16 0 0 Z " fill="#2DA0FB" transform="translate(677,826)"/>
  <path d="M0 0 C7.92 0 15.84 0 24 0 C24 7.92 24 15.84 24 24 C16.08 24 8.16 24 0 24 C0 16.08 0 8.16 0 0 Z " fill="#2DA0FB" transform="translate(724,779)"/>
  <path d="M0 0 C7.92 0 15.84 0 24 0 C24 7.92 24 15.84 24 24 C16.08 24 8.16 24 0 24 C0 16.08 0 8.16 0 0 Z " fill="#2DA0FB" transform="translate(370,779)"/>
  <path d="M0 0 C7.92 0 15.84 0 24 0 C24 7.92 24 15.84 24 24 C16.08 24 8.16 24 0 24 C0 16.08 0 8.16 0 0 Z " fill="#2DA0FB" transform="translate(323,755)"/>
  <path d="M0 0 C7.92 0 15.84 0 24 0 C24 7.92 24 15.84 24 24 C16.08 24 8.16 24 0 24 C0 16.08 0 8.16 0 0 Z " fill="#000000" transform="translate(512,590)"/>
  <path d="M0 0 C7.92 0 15.84 0 24 0 C24 7.92 24 15.84 24 24 C16.08 24 8.16 24 0 24 C0 16.08 0 8.16 0 0 Z " fill="#1B8EE9" transform="translate(394,543)"/>
  <path d="M0 0 C7.92 0 15.84 0 24 0 C24 7.92 24 15.84 24 24 C16.08 24 8.16 24 0 24 C0 16.08 0 8.16 0 0 Z " fill="#000000" transform="translate(606,519)"/>
  <path d="M0 0 C7.92 0 15.84 0 24 0 C24 7.92 24 15.84 24 24 C16.08 24 8.16 24 0 24 C0 16.08 0 8.16 0 0 Z " fill="#000000" transform="translate(559,519)"/>
  <path d="M0 0 C7.92 0 15.84 0 24 0 C24 7.92 24 15.84 24 24 C16.08 24 8.16 24 0 24 C0 16.08 0 8.16 0 0 Z " fill="#000000" transform="translate(488,519)"/>
  <path d="M0 0 C7.92 0 15.84 0 24 0 C24 7.92 24 15.84 24 24 C16.08 24 8.16 24 0 24 C0 16.08 0 8.16 0 0 Z " fill="#000000" transform="translate(441,519)"/>
  <path d="M0 0 C7.92 0 15.84 0 24 0 C24 7.92 24 15.84 24 24 C16.08 24 8.16 24 0 24 C0 16.08 0 8.16 0 0 Z " fill="#000000" transform="translate(606,472)"/>
  <path d="M0 0 C7.92 0 15.84 0 24 0 C24 7.92 24 15.84 24 24 C16.08 24 8.16 24 0 24 C0 16.08 0 8.16 0 0 Z " fill="#000000" transform="translate(441,472)"/>
  <path d="M0 0 C7.92 0 15.84 0 24 0 C24 7.92 24 15.84 24 24 C16.08 24 8.16 24 0 24 C0 16.08 0 8.16 0 0 Z " fill="#C8E9FB" transform="translate(394,472)"/>
  <path d="M0 0 C7.92 0 15.84 0 24 0 C24 7.92 24 15.84 24 24 C16.08 24 8.16 24 0 24 C0 16.08 0 8.16 0 0 Z " fill="#2DA0FB" transform="translate(323,472)"/>
  <path d="M0 0 C7.92 0 15.84 0 24 0 C24 7.92 24 15.84 24 24 C16.08 24 8.16 24 0 24 C0 16.08 0 8.16 0 0 Z " fill="#F3F9FE" transform="translate(677,425)"/>
  <path d="M0 0 C7.92 0 15.84 0 24 0 C24 7.92 24 15.84 24 24 C16.08 24 8.16 24 0 24 C0 16.08 0 8.16 0 0 Z " fill="#2DA0FB" transform="translate(394,425)"/>
  <path d="M0 0 C7.92 0 15.84 0 24 0 C24 7.92 24 15.84 24 24 C16.08 24 8.16 24 0 24 C0 16.08 0 8.16 0 0 Z " fill="#F3F9FE" transform="translate(606,401)"/>
  <path d="M0 0 C7.92 0 15.84 0 24 0 C24 7.92 24 15.84 24 24 C16.08 24 8.16 24 0 24 C0 16.08 0 8.16 0 0 Z " fill="#2DA0FB" transform="translate(677,354)"/>
  <path d="M0 0 C7.92 0 15.84 0 24 0 C24 7.92 24 15.84 24 24 C16.08 24 8.16 24 0 24 C0 16.08 0 8.16 0 0 Z " fill="#F3F9FE" transform="translate(630,354)"/>
  <path d="M0 0 C7.92 0 15.84 0 24 0 C24 7.92 24 15.84 24 24 C16.08 24 8.16 24 0 24 C0 16.08 0 8.16 0 0 Z " fill="#2DA0FB" transform="translate(276,307)"/>
  <path d="M0 0 C7.92 0 15.84 0 24 0 C24 7.92 24 15.84 24 24 C16.08 24 8.16 24 0 24 C0 16.08 0 8.16 0 0 Z " fill="#2DA0FB" transform="translate(677,236)"/>
  <path d="M0 0 C7.92 0 15.84 0 24 0 C24 7.92 24 15.84 24 24 C16.08 24 8.16 24 0 24 C0 16.08 0 8.16 0 0 Z " fill="#2DA0FB" transform="translate(323,236)"/>
  <path d="M0 0 C7.92 0 15.84 0 24 0 C24 7.92 24 15.84 24 24 C16.08 24 8.16 24 0 24 C0 16.08 0 8.16 0 0 Z " fill="#F3F9FE" transform="translate(559,212)"/>
  <path d="M0 0 C7.92 0 15.84 0 24 0 C24 7.92 24 15.84 24 24 C16.08 24 8.16 24 0 24 C0 16.08 0 8.16 0 0 Z " fill="#4BBFFD" transform="translate(394,212)"/>
  <path d="M0 0 C7.92 0 15.84 0 24 0 C24 7.92 24 15.84 24 24 C16.08 24 8.16 24 0 24 C0 16.08 0 8.16 0 0 Z " fill="#000000" transform="translate(559,165)"/>
  <path d="M0 0 C7.92 0 15.84 0 24 0 C24 7.92 24 15.84 24 24 C16.08 24 8.16 24 0 24 C0 16.08 0 8.16 0 0 Z " fill="#000000" transform="translate(512,165)"/>
  <path d="M0 0 C7.92 0 15.84 0 24 0 C24 7.92 24 15.84 24 24 C16.08 24 8.16 24 0 24 C0 16.08 0 8.16 0 0 Z " fill="#2DA0FB" transform="translate(677,94)"/>
  <path d="M0 0 C7.92 0 15.84 0 24 0 C24 7.92 24 15.84 24 24 C16.08 24 8.16 24 0 24 C0 16.08 0 8.16 0 0 Z " fill="#F3F9FE" transform="translate(559,94)"/>
  <path d="M0 0 C7.92 0 15.84 0 24 0 C24 7.92 24 15.84 24 24 C16.08 24 8.16 24 0 24 C0 16.08 0 8.16 0 0 Z " fill="#F3F9FE" transform="translate(606,47)"/>
  <path d="M0 0 C7.92 0 15.84 0 24 0 C24 7.59 24 15.18 24 23 C16.08 23 8.16 23 0 23 C0 15.41 0 7.82 0 0 Z " fill="#3191DD" transform="translate(606,921)"/>
  <path d="M0 0 C7.92 0 15.84 0 24 0 C24 7.59 24 15.18 24 23 C16.08 23 8.16 23 0 23 C0 15.41 0 7.82 0 0 Z " fill="#3191DD" transform="translate(441,921)"/>
  <path d="M0 0 C7.59 0 15.18 0 23 0 C23 7.92 23 15.84 23 24 C15.41 24 7.82 24 0 24 C0 16.08 0 8.16 0 0 Z " fill="#1CA3EC" transform="translate(347,590)"/>
  <path d="M0 0 C7.92 0 15.84 0 24 0 C24 7.59 24 15.18 24 23 C16.08 23 8.16 23 0 23 C0 15.41 0 7.82 0 0 Z " fill="#0F5E9C" transform="translate(441,567)"/>
  <path d="M0 0 C7.59 0 15.18 0 23 0 C23 7.92 23 15.84 23 24 C15.41 24 7.82 24 0 24 C0 16.08 0 8.16 0 0 Z " fill="#1B8EE9" transform="translate(654,543)"/>
  <path d="M0 0 C7.59 0 15.18 0 23 0 C23 7.92 23 15.84 23 24 C15.41 24 7.82 24 0 24 C0 16.08 0 8.16 0 0 Z " fill="#000000" transform="translate(583,543)"/>
  <path d="M0 0 C7.59 0 15.18 0 23 0 C23 7.92 23 15.84 23 24 C15.41 24 7.82 24 0 24 C0 16.08 0 8.16 0 0 Z " fill="#000000" transform="translate(465,543)"/>
  <path d="M0 0 C7.92 0 15.84 0 24 0 C24 7.59 24 15.18 24 23 C16.08 23 8.16 23 0 23 C0 15.41 0 7.82 0 0 Z " fill="#000000" transform="translate(630,496)"/>
  <path d="M0 0 C7.92 0 15.84 0 24 0 C24 7.59 24 15.18 24 23 C16.08 23 8.16 23 0 23 C0 15.41 0 7.82 0 0 Z " fill="#289DFA" transform="translate(606,496)"/>
  <path d="M0 0 C7.59 0 15.18 0 23 0 C23 7.92 23 15.84 23 24 C15.41 24 7.82 24 0 24 C0 16.08 0 8.16 0 0 Z " fill="#2DA0FB" transform="translate(701,472)"/>
  <path d="M0 0 C7.59 0 15.18 0 23 0 C23 7.92 23 15.84 23 24 C15.41 24 7.82 24 0 24 C0 16.08 0 8.16 0 0 Z " fill="#289DFA" transform="translate(583,472)"/>
  <path d="M0 0 C7.59 0 15.18 0 23 0 C23 7.92 23 15.84 23 24 C15.41 24 7.82 24 0 24 C0 16.08 0 8.16 0 0 Z " fill="#289DFA" transform="translate(465,472)"/>
  <path d="M0 0 C7.92 0 15.84 0 24 0 C24 7.59 24 15.18 24 23 C16.08 23 8.16 23 0 23 C0 15.41 0 7.82 0 0 Z " fill="#F3F9FE" transform="translate(370,449)"/>
  <path d="M0 0 C7.59 0 15.18 0 23 0 C23 7.92 23 15.84 23 24 C15.41 24 7.82 24 0 24 C0 16.08 0 8.16 0 0 Z " fill="#2DA0FB" transform="translate(347,401)"/>
  <path d="M0 0 C7.92 0 15.84 0 24 0 C24 7.59 24 15.18 24 23 C16.08 23 8.16 23 0 23 C0 15.41 0 7.82 0 0 Z " fill="#2DA0FB" transform="translate(370,331)"/>
  <path d="M0 0 C7.59 0 15.18 0 23 0 C23 7.92 23 15.84 23 24 C15.41 24 7.82 24 0 24 C0 16.08 0 8.16 0 0 Z " fill="#2DA0FB" transform="translate(701,283)"/>
  <path d="M0 0 C7.92 0 15.84 0 24 0 C24 7.59 24 15.18 24 23 C16.08 23 8.16 23 0 23 C0 15.41 0 7.82 0 0 Z " fill="#2DA0FB" transform="translate(630,260)"/>
  <path d="M0 0 C7.92 0 15.84 0 24 0 C24 7.59 24 15.18 24 23 C16.08 23 8.16 23 0 23 C0 15.41 0 7.82 0 0 Z " fill="#F3F9FE" transform="translate(512,260)"/>
  <path d="M0 0 C7.92 0 15.84 0 24 0 C24 7.59 24 15.18 24 23 C16.08 23 8.16 23 0 23 C0 15.41 0 7.82 0 0 Z " fill="#2DA0FB" transform="translate(370,260)"/>
  <path d="M0 0 C7.59 0 15.18 0 23 0 C23 7.92 23 15.84 23 24 C15.41 24 7.82 24 0 24 C0 16.08 0 8.16 0 0 Z " fill="#4BBFFD" transform="translate(701,212)"/>
  <path d="M0 0 C7.92 0 15.84 0 24 0 C24 7.59 24 15.18 24 23 C16.08 23 8.16 23 0 23 C0 15.41 0 7.82 0 0 Z " fill="#167CCC" transform="translate(606,189)"/>
  <path d="M0 0 C7.92 0 15.84 0 24 0 C24 7.59 24 15.18 24 23 C16.08 23 8.16 23 0 23 C0 15.41 0 7.82 0 0 Z " fill="#F3F9FE" transform="translate(488,189)"/>
  <path d="M0 0 C7.92 0 15.84 0 24 0 C24 7.59 24 15.18 24 23 C16.08 23 8.16 23 0 23 C0 15.41 0 7.82 0 0 Z " fill="#1CA3EC" transform="translate(441,189)"/>
  <path d="M0 0 C7.59 0 15.18 0 23 0 C23 7.92 23 15.84 23 24 C15.41 24 7.82 24 0 24 C0 16.08 0 8.16 0 0 Z " fill="#2DA0FB" transform="translate(701,165)"/>
  <path d="M0 0 C7.59 0 15.18 0 23 0 C23 7.92 23 15.84 23 24 C15.41 24 7.82 24 0 24 C0 16.08 0 8.16 0 0 Z " fill="#2DA0FB" transform="translate(347,165)"/>
  <path d="M0 0 C7.92 0 15.84 0 24 0 C24 7.59 24 15.18 24 23 C16.08 23 8.16 23 0 23 C0 15.41 0 7.82 0 0 Z " fill="#000000" transform="translate(488,142)"/>
  <path d="M0 0 C7.92 0 15.84 0 24 0 C24 7.59 24 15.18 24 23 C16.08 23 8.16 23 0 23 C0 15.41 0 7.82 0 0 Z " fill="#F3F9FE" transform="translate(441,142)"/>
  <path d="M0 0 C7.59 0 15.18 0 23 0 C23 7.92 23 15.84 23 24 C15.41 24 7.82 24 0 24 C0 16.08 0 8.16 0 0 Z " fill="#F3F9FE" transform="translate(583,118)"/>
  <path d="M0 0 C7.59 0 15.18 0 23 0 C23 7.92 23 15.84 23 24 C15.41 24 7.82 24 0 24 C0 16.08 0 8.16 0 0 Z " fill="#F3F9FE" transform="translate(465,118)"/>
  <path d="M0 0 C7.59 0 15.18 0 23 0 C23 7.92 23 15.84 23 24 C15.41 24 7.82 24 0 24 C0 16.08 0 8.16 0 0 Z " fill="#F3F9FE" transform="translate(418,118)"/>
  <path d="M0 0 C7.59 0 15.18 0 23 0 C23 7.92 23 15.84 23 24 C15.41 24 7.82 24 0 24 C0 16.08 0 8.16 0 0 Z " fill="#4BBFFD" transform="translate(347,94)"/>
  <path d="M0 0 C7.92 0 15.84 0 24 0 C24 7.59 24 15.18 24 23 C16.08 23 8.16 23 0 23 C0 15.41 0 7.82 0 0 Z " fill="#4BBFFD" transform="translate(512,71)"/>
  <path d="M0 0 C7.92 0 15.84 0 24 0 C24 7.59 24 15.18 24 23 C16.08 23 8.16 23 0 23 C0 15.41 0 7.82 0 0 Z " fill="#F3F9FE" transform="translate(441,71)"/>
  <path d="M0 0 C7.92 0 15.84 0 24 0 C24 7.59 24 15.18 24 23 C16.08 23 8.16 23 0 23 C0 15.41 0 7.82 0 0 Z " fill="#F3F9FE" transform="translate(394,71)"/>
  <path d="M0 0 C7.59 0 15.18 0 23 0 C23 7.92 23 15.84 23 24 C15.41 24 7.82 24 0 24 C0 16.08 0 8.16 0 0 Z " fill="#4BBFFD" transform="translate(654,47)"/>
  <path d="M0 0 C7.92 0 15.84 0 24 0 C24 7.59 24 15.18 24 23 C16.08 23 8.16 23 0 23 C0 15.41 0 7.82 0 0 Z " fill="#F3F9FE" transform="translate(441,24)"/>
  <path d="M0 0 C7.92 0 15.84 0 24 0 C24 7.59 24 15.18 24 23 C16.08 23 8.16 23 0 23 C0 15.41 0 7.82 0 0 Z " fill="#4BBFFD" transform="translate(394,24)"/>
  <path d="M0 0 C7.59 0 15.18 0 23 0 C23 7.92 23 15.84 23 24 C15.41 24 7.82 24 0 24 C0 16.08 0 8.16 0 0 Z " fill="#4BBFFD" transform="translate(583,0)"/>
  <path d="M0 0 C7.59 0 15.18 0 23 0 C23 7.59 23 15.18 23 23 C15.41 23 7.82 23 0 23 C0 15.41 0 7.82 0 0 Z " fill="#2DA0FB" transform="translate(654,921)"/>
  <path d="M0 0 C7.59 0 15.18 0 23 0 C23 7.59 23 15.18 23 23 C15.41 23 7.82 23 0 23 C0 15.41 0 7.82 0 0 Z " fill="#000000" transform="translate(536,614)"/>
  <path d="M0 0 C7.59 0 15.18 0 23 0 C23 7.59 23 15.18 23 23 C15.41 23 7.82 23 0 23 C0 15.41 0 7.82 0 0 Z " fill="#1B8EE9" transform="translate(418,567)"/>
  <path d="M0 0 C7.59 0 15.18 0 23 0 C23 7.59 23 15.18 23 23 C15.41 23 7.82 23 0 23 C0 15.41 0 7.82 0 0 Z " fill="#000000" transform="translate(418,496)"/>
  <path d="M0 0 C7.59 0 15.18 0 23 0 C23 7.59 23 15.18 23 23 C15.41 23 7.82 23 0 23 C0 15.41 0 7.82 0 0 Z " fill="#F3F9FE" transform="translate(654,449)"/>
  <path d="M0 0 C7.59 0 15.18 0 23 0 C23 7.59 23 15.18 23 23 C15.41 23 7.82 23 0 23 C0 15.41 0 7.82 0 0 Z " fill="#F3F9FE" transform="translate(418,378)"/>
  <path d="M0 0 C7.59 0 15.18 0 23 0 C23 7.59 23 15.18 23 23 C15.41 23 7.82 23 0 23 C0 15.41 0 7.82 0 0 Z " fill="#1B8EE9" transform="translate(465,189)"/>
  <path d="M0 0 C7.59 0 15.18 0 23 0 C23 7.59 23 15.18 23 23 C15.41 23 7.82 23 0 23 C0 15.41 0 7.82 0 0 Z " fill="#000000" transform="translate(583,142)"/>
  <path d="M0 0 C7.59 0 15.18 0 23 0 C23 7.59 23 15.18 23 23 C15.41 23 7.82 23 0 23 C0 15.41 0 7.82 0 0 Z " fill="#000000" transform="translate(536,142)"/>
  <path d="M0 0 C7.59 0 15.18 0 23 0 C23 7.59 23 15.18 23 23 C15.41 23 7.82 23 0 23 C0 15.41 0 7.82 0 0 Z " fill="#F3F9FE" transform="translate(583,71)"/>
</svg>
