<?xml version="1.0" encoding="utf-8"?>
<svg version="1.1" width="1024" height="1024" xmlns="http://www.w3.org/2000/svg">
  <path d="M 0 0 C 158.4 0 316.8 0 480 0 C 480 10.56 480 21.12 480 32 C 490.56 32 501.12 32 512 32 C 512 74.24 512 116.48 512 160 C 501.44 160 490.88 160 480 160 C 480 202.24 480 244.48 480 288 C 469.44 288 458.88 288 448 288 C 448 309.12 448 330.24 448 352 C 437.44 352 426.88 352 416 352 C 416 383.68 416 415.36 416 448 C 405.44 448 394.88 448 384 448 C 384 469.12 384 490.24 384 512 C 373.44 512 362.88 512 352 512 C 352 533.12 352 554.24 352 576 C 341.44 576 330.88 576 320 576 C 320 586.56 320 597.12 320 608 C 309.44 608 298.88 608 288 608 C 288 618.56 288 629.12 288 640 C 298.56 640 309.12 640 320 640 C 320 650.56 320 661.12 320 672 C 330.56 672 341.12 672 352 672 C 352 693.12 352 714.24 352 736 C 341.44 736 330.88 736 320 736 C 320 746.56 320 757.12 320 768 C 309.44 768 298.88 768 288 768 C 288 778.56 288 789.12 288 800 C 277.44 800 266.88 800 256 800 C 256 810.56 256 821.12 256 832 C 234.88 832 213.76 832 192 832 C 192 821.44 192 810.88 192 800 C 181.44 800 170.88 800 160 800 C 160 789.44 160 778.88 160 768 C 170.56 768 181.12 768 192 768 C 192 757.44 192 746.88 192 736 C 202.56 736 213.12 736 224 736 C 224 714.88 224 693.76 224 672 C 213.44 672 202.88 672 192 672 C 192 661.44 192 650.88 192 640 C 181.44 640 170.88 640 160 640 C 160 608.32 160 576.64 160 544 C 170.56 544 181.12 544 192 544 C 192 533.44 192 522.88 192 512 C 181.44 512 170.88 512 160 512 C 160 490.88 160 469.76 160 448 C 149.44 448 138.88 448 128 448 C 128 426.88 128 405.76 128 384 C 117.44 384 106.88 384 96 384 C 96 362.88 96 341.76 96 320 C 85.44 320 74.88 320 64 320 C 64 309.44 64 221.92 64 192 C 42.88 192 21.76 192 0 192 C 0 181.44 0 170.88 0 160 C -10.56 160 -21.12 160 -32 160 C -32 152.08 -32 64.64 -32 32 C -21.44 32 -10.88 32 0 32 C 0 21.44 0 10.88 0 0 Z M 192 544 C 192 554.56 192 565.12 192 576 C 202.56 576 213.12 576 224 576 C 224 565.44 224 554.88 224 544 C 213.44 544 202.88 544 192 544 Z" fill="#AFB9CC" transform="translate(308,192)"/>
  <path d="M0 0 C105.6 0 211.2 0 320 0 C320 10.56 320 21.12 320 32 C309.44 32 298.88 32 288 32 C288 42.56 288 53.12 288 64 C277.44 64 266.88 64 256 64 C256 85.12 256 106.24 256 128 C245.44 128 234.88 128 224 128 C224 159.68 224 191.36 224 224 C213.44 224 202.88 224 192 224 C192 213.44 192 202.88 192 192 C181.44 192 170.88 192 160 192 C160 181.44 160 170.88 160 160 C149.44 160 138.88 160 128 160 C128 149.44 128 138.88 128 128 C117.44 128 106.88 128 96 128 C96 117.44 96 106.88 96 96 C85.44 96 74.88 96 64 96 C64 85.44 64 74.88 64 64 C53.44 64 42.88 64 32 64 C32 53.44 32 42.88 32 32 C21.44 32 10.88 32 0 32 C0 21.44 0 10.88 0 0 Z " fill="#969EAE" transform="translate(404,224)"/>
  <path d="M0 0 C158.4 0 316.8 0 480 0 C480 10.56 480 21.12 480 32 C321.6 32 163.2 32 0 32 C0 21.44 0 10.88 0 0 Z " fill="#000000" transform="translate(308,192)"/>
  <path d="M 0 0 C 42.24 0 84.48 0 128 0 C 128 10.56 128 21.12 128 32 C 117.44 32 106.88 32 96 32 C 96 42.56 96 53.12 96 64 C 85.44 64 74.88 64 64 64 C 64 74.56 64 85.12 64 96 C 74.56 96 85.12 96 96 96 C 96 106.56 96 117.12 96 128 C 64.32 128 32.64 128 0 128 C 0 120.08 0 32.64 0 0 Z" fill="#CDD7EA" transform="translate(276,224)"/>
  <path d="M0 0 C21.12 0 42.24 0 64 0 C64 21.12 64 42.24 64 64 C74.56 64 85.12 64 96 64 C96 95.68 96 127.36 96 160 C106.56 160 117.12 160 128 160 C128 181.12 128 202.24 128 224 C117.44 224 106.88 224 96 224 C96 213.44 96 202.88 96 192 C85.44 192 74.88 192 64 192 C64 170.88 64 149.76 64 128 C53.44 128 42.88 128 32 128 C32 106.88 32 85.76 32 64 C21.44 64 10.88 64 0 64 C0 42.88 0 21.76 0 0 Z " fill="#969EAE" transform="translate(404,512)"/>
  <path d="M0 0 C10.56 0 21.12 0 32 0 C32 31.68 32 63.36 32 96 C42.56 96 53.12 96 64 96 C64 106.56 64 117.12 64 128 C53.44 128 42.88 128 32 128 C32 138.56 32 149.12 32 160 C10.88 160 -10.24 160 -32 160 C-32 149.44 -32 138.88 -32 128 C-42.56 128 -53.12 128 -64 128 C-64 117.44 -64 106.88 -64 96 C-53.44 96 -42.88 96 -32 96 C-32 85.44 -32 74.88 -32 64 C-21.44 64 -10.88 64 0 64 C0 42.88 0 21.76 0 0 Z " fill="#AFB9CC" transform="translate(532,864)"/>
  <path d="M0 0 C42.24 0 84.48 0 128 0 C128 21.12 128 42.24 128 64 C117.44 64 106.88 64 96 64 C96 74.56 96 85.12 96 96 C85.44 96 74.88 96 64 96 C64 85.44 64 74.88 64 64 C53.44 64 42.88 64 32 64 C32 53.44 32 42.88 32 32 C21.44 32 10.88 32 0 32 C0 21.44 0 10.88 0 0 Z " fill="#767B84" transform="translate(500,224)"/>
  <path d="M0 0 C10.56 0 21.12 0 32 0 C32 42.24 32 84.48 32 128 C21.44 128 10.88 128 0 128 C0 149.12 0 170.24 0 192 C-10.56 192 -21.12 192 -32 192 C-32 160.32 -32 128.64 -32 96 C-21.44 96 -10.88 96 0 96 C0 64.32 0 32.64 0 0 Z " fill="#000000" transform="translate(756,352)"/>
  <path d="M0 0 C10.56 0 21.12 0 32 0 C32 10.56 32 21.12 32 32 C42.56 32 53.12 32 64 32 C64 53.12 64 74.24 64 96 C53.44 96 42.88 96 32 96 C32 106.56 32 117.12 32 128 C21.44 128 10.88 128 0 128 C0 85.76 0 43.52 0 0 Z " fill="#969EAE" transform="translate(596,832)"/>
  <path d="M0 0 C21.12 0 42.24 0 64 0 C64 42.24 64 84.48 64 128 C53.44 128 42.88 128 32 128 C32 106.88 32 85.76 32 64 C21.44 64 10.88 64 0 64 C0 42.88 0 21.76 0 0 Z " fill="#969EAE" transform="translate(404,512)"/>
  <path d="M 0 0 C 10.56 0 21.12 0 32 0 C 32 42.24 32 84.48 32 128 C 21.44 128 10.88 128 0 128 C 0 117.44 0 29.92 0 0 Z" fill="#000000" transform="translate(372,384)"/>
  <path d="M 0 0 C 10.56 0 21.12 0 32 0 C 32 42.24 32 84.48 32 128 C 21.44 128 10.88 128 0 128 C 0 120.08 0 32.64 0 0 Z" fill="#000000" transform="translate(276,224)"/>
  <path d="M0 0 C31.68 0 63.36 0 96 0 C96 10.56 96 21.12 96 32 C85.44 32 74.88 32 64 32 C64 42.56 64 53.12 64 64 C53.44 64 42.88 64 32 64 C32 53.44 32 42.88 32 32 C21.44 32 10.88 32 0 32 C0 21.44 0 10.88 0 0 Z " fill="#CDD7EA" transform="translate(436,480)"/>
  <path d="M0 0 C10.56 0 21.12 0 32 0 C32 31.68 32 63.36 32 96 C21.44 96 10.88 96 0 96 C0 85.44 0 74.88 0 64 C-10.56 64 -21.12 64 -32 64 C-32 53.44 -32 42.88 -32 32 C-21.44 32 -10.88 32 0 32 C0 21.44 0 10.88 0 0 Z " fill="#CDD7EA" transform="translate(724,320)"/>
  <path d="M0 0 C10.56 0 21.12 0 32 0 C32 42.24 32 84.48 32 128 C21.44 128 10.88 128 0 128 C0 85.76 0 43.52 0 0 Z " fill="#000000" transform="translate(788,224)"/>
  <path d="M0 0 C21.12 0 42.24 0 64 0 C64 10.56 64 21.12 64 32 C53.44 32 42.88 32 32 32 C32 42.56 32 53.12 32 64 C10.88 64 -10.24 64 -32 64 C-32 53.44 -32 42.88 -32 32 C-21.44 32 -10.88 32 0 32 C0 21.44 0 10.88 0 0 Z " fill="#CDD7EA" transform="translate(724,224)"/>
  <path d="M0 0 C10.56 0 21.12 0 32 0 C32 31.68 32 63.36 32 96 C21.44 96 10.88 96 0 96 C0 64.32 0 32.64 0 0 Z " fill="#000000" transform="translate(468,736)"/>
  <path d="M0 0 C10.56 0 21.12 0 32 0 C32 31.68 32 63.36 32 96 C21.44 96 10.88 96 0 96 C0 64.32 0 32.64 0 0 Z " fill="#000000" transform="translate(692,544)"/>
  <path d="M0 0 C10.56 0 21.12 0 32 0 C32 31.68 32 63.36 32 96 C21.44 96 10.88 96 0 96 C0 64.32 0 32.64 0 0 Z " fill="#969EAE" transform="translate(756,256)"/>
  <path d="M0 0 C21.12 0 42.24 0 64 0 C64 10.56 64 21.12 64 32 C42.88 32 21.76 32 0 32 C0 21.44 0 10.88 0 0 Z " fill="#000000" transform="translate(500,992)"/>
  <path d="M0 0 C21.12 0 42.24 0 64 0 C64 10.56 64 21.12 64 32 C42.88 32 21.76 32 0 32 C0 21.44 0 10.88 0 0 Z " fill="#AFB9CC" transform="translate(468,960)"/>
  <path d="M0 0 C10.56 0 21.12 0 32 0 C32 21.12 32 42.24 32 64 C21.44 64 10.88 64 0 64 C0 42.88 0 21.76 0 0 Z " fill="#000000" transform="translate(628,864)"/>
  <path d="M0 0 C10.56 0 21.12 0 32 0 C32 21.12 32 42.24 32 64 C21.44 64 10.88 64 0 64 C0 42.88 0 21.76 0 0 Z " fill="#000000" transform="translate(532,864)"/>
  <path d="M0 0 C10.56 0 21.12 0 32 0 C32 21.12 32 42.24 32 64 C21.44 64 10.88 64 0 64 C0 42.88 0 21.76 0 0 Z " fill="#000000" transform="translate(628,704)"/>
  <path d="M0 0 C10.56 0 21.12 0 32 0 C32 21.12 32 42.24 32 64 C21.44 64 10.88 64 0 64 C0 42.88 0 21.76 0 0 Z " fill="#CDD7EA" transform="translate(532,672)"/>
  <path d="M0 0 C10.56 0 21.12 0 32 0 C32 21.12 32 42.24 32 64 C21.44 64 10.88 64 0 64 C0 42.88 0 21.76 0 0 Z " fill="#000000" transform="translate(500,672)"/>
  <path d="M0 0 C10.56 0 21.12 0 32 0 C32 21.12 32 42.24 32 64 C21.44 64 10.88 64 0 64 C0 42.88 0 21.76 0 0 Z " fill="#000000" transform="translate(660,640)"/>
  <path d="M0 0 C10.56 0 21.12 0 32 0 C32 21.12 32 42.24 32 64 C21.44 64 10.88 64 0 64 C0 42.88 0 21.76 0 0 Z " fill="#000000" transform="translate(436,576)"/>
  <path d="M0 0 C21.12 0 42.24 0 64 0 C64 10.56 64 21.12 64 32 C42.88 32 21.76 32 0 32 C0 21.44 0 10.88 0 0 Z " fill="#CDD7EA" transform="translate(628,544)"/>
  <path d="M0 0 C10.56 0 21.12 0 32 0 C32 21.12 32 42.24 32 64 C21.44 64 10.88 64 0 64 C0 42.88 0 21.76 0 0 Z " fill="#000000" transform="translate(404,512)"/>
  <path d="M0 0 C10.56 0 21.12 0 32 0 C32 21.12 32 42.24 32 64 C21.44 64 10.88 64 0 64 C0 42.88 0 21.76 0 0 Z " fill="#969EAE" transform="translate(692,480)"/>
  <path d="M0 0 C10.56 0 21.12 0 32 0 C32 21.12 32 42.24 32 64 C21.44 64 10.88 64 0 64 C0 42.88 0 21.76 0 0 Z " fill="#969EAE" transform="translate(404,448)"/>
  <path d="M0 0 C10.56 0 21.12 0 32 0 C32 21.12 32 42.24 32 64 C21.44 64 10.88 64 0 64 C0 42.88 0 21.76 0 0 Z " fill="#CDD7EA" transform="translate(404,384)"/>
  <path d="M0 0 C21.12 0 42.24 0 64 0 C64 10.56 64 21.12 64 32 C42.88 32 21.76 32 0 32 C0 21.44 0 10.88 0 0 Z " fill="#000000" transform="translate(308,352)"/>
  <path d="M0 0 C10.56 0 21.12 0 32 0 C32 10.56 32 21.12 32 32 C21.44 32 10.88 32 0 32 C0 21.44 0 10.88 0 0 Z " fill="#BEC2CC" transform="translate(628,992)"/>
  <path d="M0 0 C10.56 0 21.12 0 32 0 C32 10.56 32 21.12 32 32 C21.44 32 10.88 32 0 32 C0 21.44 0 10.88 0 0 Z " fill="#000000" transform="translate(564,960)"/>
  <path d="M0 0 C10.56 0 21.12 0 32 0 C32 10.56 32 21.12 32 32 C21.44 32 10.88 32 0 32 C0 21.44 0 10.88 0 0 Z " fill="#969EAE" transform="translate(532,960)"/>
  <path d="M0 0 C10.56 0 21.12 0 32 0 C32 10.56 32 21.12 32 32 C21.44 32 10.88 32 0 32 C0 21.44 0 10.88 0 0 Z " fill="#000000" transform="translate(468,960)"/>
  <path d="M0 0 C10.56 0 21.12 0 32 0 C32 10.56 32 21.12 32 32 C21.44 32 10.88 32 0 32 C0 21.44 0 10.88 0 0 Z " fill="#BEC2CC" transform="translate(404,960)"/>
  <path d="M0 0 C10.56 0 21.12 0 32 0 C32 10.56 32 21.12 32 32 C21.44 32 10.88 32 0 32 C0 21.44 0 10.88 0 0 Z " fill="#969EAE" transform="translate(692,928)"/>
  <path d="M0 0 C10.56 0 21.12 0 32 0 C32 10.56 32 21.12 32 32 C21.44 32 10.88 32 0 32 C0 21.44 0 10.88 0 0 Z " fill="#000000" transform="translate(596,928)"/>
  <path d="M0 0 C10.56 0 21.12 0 32 0 C32 10.56 32 21.12 32 32 C21.44 32 10.88 32 0 32 C0 21.44 0 10.88 0 0 Z " fill="#969EAE" transform="translate(564,928)"/>
  <path d="M0 0 C10.56 0 21.12 0 32 0 C32 10.56 32 21.12 32 32 C21.44 32 10.88 32 0 32 C0 21.44 0 10.88 0 0 Z " fill="#000000" transform="translate(500,928)"/>
  <path d="M0 0 C10.56 0 21.12 0 32 0 C32 10.56 32 21.12 32 32 C21.44 32 10.88 32 0 32 C0 21.44 0 10.88 0 0 Z " fill="#969EAE" transform="translate(436,928)"/>
  <path d="M0 0 C10.56 0 21.12 0 32 0 C32 10.56 32 21.12 32 32 C21.44 32 10.88 32 0 32 C0 21.44 0 10.88 0 0 Z " fill="#C8D5EE" transform="translate(724,864)"/>
  <path d="M0 0 C10.56 0 21.12 0 32 0 C32 10.56 32 21.12 32 32 C21.44 32 10.88 32 0 32 C0 21.44 0 10.88 0 0 Z " fill="#BEC2CC" transform="translate(468,864)"/>
  <path d="M0 0 C10.56 0 21.12 0 32 0 C32 10.56 32 21.12 32 32 C21.44 32 10.88 32 0 32 C0 21.44 0 10.88 0 0 Z " fill="#C8D5EE" transform="translate(756,832)"/>
  <path d="M0 0 C10.56 0 21.12 0 32 0 C32 10.56 32 21.12 32 32 C21.44 32 10.88 32 0 32 C0 21.44 0 10.88 0 0 Z " fill="#000000" transform="translate(596,832)"/>
  <path d="M0 0 C10.56 0 21.12 0 32 0 C32 10.56 32 21.12 32 32 C21.44 32 10.88 32 0 32 C0 21.44 0 10.88 0 0 Z " fill="#000000" transform="translate(500,832)"/>
  <path d="M0 0 C10.56 0 21.12 0 32 0 C32 10.56 32 21.12 32 32 C21.44 32 10.88 32 0 32 C0 21.44 0 10.88 0 0 Z " fill="#969EAE" transform="translate(404,832)"/>
  <path d="M0 0 C10.56 0 21.12 0 32 0 C32 10.56 32 21.12 32 32 C21.44 32 10.88 32 0 32 C0 21.44 0 10.88 0 0 Z " fill="#C8D5EE" transform="translate(660,800)"/>
  <path d="M0 0 C10.56 0 21.12 0 32 0 C32 10.56 32 21.12 32 32 C21.44 32 10.88 32 0 32 C0 21.44 0 10.88 0 0 Z " fill="#000000" transform="translate(564,800)"/>
  <path d="M0 0 C10.56 0 21.12 0 32 0 C32 10.56 32 21.12 32 32 C21.44 32 10.88 32 0 32 C0 21.44 0 10.88 0 0 Z " fill="#BEC2CC" transform="translate(372,800)"/>
  <path d="M0 0 C10.56 0 21.12 0 32 0 C32 10.56 32 21.12 32 32 C21.44 32 10.88 32 0 32 C0 21.44 0 10.88 0 0 Z " fill="#C8D5EE" transform="translate(308,800)"/>
  <path d="M0 0 C10.56 0 21.12 0 32 0 C32 10.56 32 21.12 32 32 C21.44 32 10.88 32 0 32 C0 21.44 0 10.88 0 0 Z " fill="#C8D5EE" transform="translate(692,768)"/>
  <path d="M0 0 C10.56 0 21.12 0 32 0 C32 10.56 32 21.12 32 32 C21.44 32 10.88 32 0 32 C0 21.44 0 10.88 0 0 Z " fill="#000000" transform="translate(596,768)"/>
  <path d="M0 0 C10.56 0 21.12 0 32 0 C32 10.56 32 21.12 32 32 C21.44 32 10.88 32 0 32 C0 21.44 0 10.88 0 0 Z " fill="#969EAE" transform="translate(564,768)"/>
  <path d="M0 0 C10.56 0 21.12 0 32 0 C32 10.56 32 21.12 32 32 C21.44 32 10.88 32 0 32 C0 21.44 0 10.88 0 0 Z " fill="#C8D5EE" transform="translate(724,736)"/>
  <path d="M0 0 C10.56 0 21.12 0 32 0 C32 10.56 32 21.12 32 32 C21.44 32 10.88 32 0 32 C0 21.44 0 10.88 0 0 Z " fill="#969EAE" transform="translate(596,736)"/>
  <path d="M0 0 C10.56 0 21.12 0 32 0 C32 10.56 32 21.12 32 32 C21.44 32 10.88 32 0 32 C0 21.44 0 10.88 0 0 Z " fill="#BDC1C8" transform="translate(340,736)"/>
  <path d="M0 0 C10.56 0 21.12 0 32 0 C32 10.56 32 21.12 32 32 C21.44 32 10.88 32 0 32 C0 21.44 0 10.88 0 0 Z " fill="#C8D5EE" transform="translate(756,704)"/>
  <path d="M0 0 C10.56 0 21.12 0 32 0 C32 10.56 32 21.12 32 32 C21.44 32 10.88 32 0 32 C0 21.44 0 10.88 0 0 Z " fill="#BEC2CC" transform="translate(436,704)"/>
  <path d="M0 0 C10.56 0 21.12 0 32 0 C32 10.56 32 21.12 32 32 C21.44 32 10.88 32 0 32 C0 21.44 0 10.88 0 0 Z " fill="#969EAE" transform="translate(628,672)"/>
  <path d="M0 0 C10.56 0 21.12 0 32 0 C32 10.56 32 21.12 32 32 C21.44 32 10.88 32 0 32 C0 21.44 0 10.88 0 0 Z " fill="#969EAE" transform="translate(468,672)"/>
  <path d="M0 0 C10.56 0 21.12 0 32 0 C32 10.56 32 21.12 32 32 C21.44 32 10.88 32 0 32 C0 21.44 0 10.88 0 0 Z " fill="#C8D5EE" transform="translate(372,672)"/>
  <path d="M0 0 C10.56 0 21.12 0 32 0 C32 10.56 32 21.12 32 32 C21.44 32 10.88 32 0 32 C0 21.44 0 10.88 0 0 Z " fill="#BDC1C8" transform="translate(756,640)"/>
  <path d="M0 0 C10.56 0 21.12 0 32 0 C32 10.56 32 21.12 32 32 C21.44 32 10.88 32 0 32 C0 21.44 0 10.88 0 0 Z " fill="#000000" transform="translate(468,640)"/>
  <path d="M0 0 C10.56 0 21.12 0 32 0 C32 10.56 32 21.12 32 32 C21.44 32 10.88 32 0 32 C0 21.44 0 10.88 0 0 Z " fill="#969EAE" transform="translate(660,608)"/>
  <path d="M0 0 C10.56 0 21.12 0 32 0 C32 10.56 32 21.12 32 32 C21.44 32 10.88 32 0 32 C0 21.44 0 10.88 0 0 Z " fill="#C8D5EE" transform="translate(372,608)"/>
  <path d="M0 0 C10.56 0 21.12 0 32 0 C32 10.56 32 21.12 32 32 C21.44 32 10.88 32 0 32 C0 21.44 0 10.88 0 0 Z " fill="#C8D5EE" transform="translate(788,576)"/>
  <path d="M0 0 C10.56 0 21.12 0 32 0 C32 10.56 32 21.12 32 32 C21.44 32 10.88 32 0 32 C0 21.44 0 10.88 0 0 Z " fill="#CDD7EA" transform="translate(596,576)"/>
  <path d="M0 0 C10.56 0 21.12 0 32 0 C32 10.56 32 21.12 32 32 C21.44 32 10.88 32 0 32 C0 21.44 0 10.88 0 0 Z " fill="#BDC1C8" transform="translate(340,576)"/>
  <path d="M0 0 C10.56 0 21.12 0 32 0 C32 10.56 32 21.12 32 32 C21.44 32 10.88 32 0 32 C0 21.44 0 10.88 0 0 Z " fill="#C8D5EE" transform="translate(308,544)"/>
  <path d="M0 0 C10.56 0 21.12 0 32 0 C32 10.56 32 21.12 32 32 C21.44 32 10.88 32 0 32 C0 21.44 0 10.88 0 0 Z " fill="#BDC1C8" transform="translate(788,480)"/>
  <path d="M0 0 C10.56 0 21.12 0 32 0 C32 10.56 32 21.12 32 32 C21.44 32 10.88 32 0 32 C0 21.44 0 10.88 0 0 Z " fill="#C8D5EE" transform="translate(308,480)"/>
  <path d="M0 0 C10.56 0 21.12 0 32 0 C32 10.56 32 21.12 32 32 C21.44 32 10.88 32 0 32 C0 21.44 0 10.88 0 0 Z " fill="#C8D5EE" transform="translate(820,448)"/>
  <path d="M0 0 C10.56 0 21.12 0 32 0 C32 10.56 32 21.12 32 32 C21.44 32 10.88 32 0 32 C0 21.44 0 10.88 0 0 Z " fill="#CDD7EA" transform="translate(692,448)"/>
  <path d="M0 0 C10.56 0 21.12 0 32 0 C32 10.56 32 21.12 32 32 C21.44 32 10.88 32 0 32 C0 21.44 0 10.88 0 0 Z " fill="#BDC1C8" transform="translate(276,448)"/>
  <path d="M0 0 C10.56 0 21.12 0 32 0 C32 10.56 32 21.12 32 32 C21.44 32 10.88 32 0 32 C0 21.44 0 10.88 0 0 Z " fill="#969EAE" transform="translate(724,416)"/>
  <path d="M0 0 C10.56 0 21.12 0 32 0 C32 10.56 32 21.12 32 32 C21.44 32 10.88 32 0 32 C0 21.44 0 10.88 0 0 Z " fill="#C8D5EE" transform="translate(308,416)"/>
  <path d="M0 0 C10.56 0 21.12 0 32 0 C32 10.56 32 21.12 32 32 C21.44 32 10.88 32 0 32 C0 21.44 0 10.88 0 0 Z " fill="#C8D5EE" transform="translate(212,416)"/>
  <path d="M0 0 C10.56 0 21.12 0 32 0 C32 10.56 32 21.12 32 32 C21.44 32 10.88 32 0 32 C0 21.44 0 10.88 0 0 Z " fill="#BDC1C8" transform="translate(852,384)"/>
  <path d="M0 0 C10.56 0 21.12 0 32 0 C32 10.56 32 21.12 32 32 C21.44 32 10.88 32 0 32 C0 21.44 0 10.88 0 0 Z " fill="#BDC1C8" transform="translate(244,384)"/>
  <path d="M0 0 C10.56 0 21.12 0 32 0 C32 10.56 32 21.12 32 32 C21.44 32 10.88 32 0 32 C0 21.44 0 10.88 0 0 Z " fill="#CDD7EA" transform="translate(372,352)"/>
  <path d="M0 0 C10.56 0 21.12 0 32 0 C32 10.56 32 21.12 32 32 C21.44 32 10.88 32 0 32 C0 21.44 0 10.88 0 0 Z " fill="#BDC1C8" transform="translate(852,320)"/>
  <path d="M0 0 C10.56 0 21.12 0 32 0 C32 10.56 32 21.12 32 32 C21.44 32 10.88 32 0 32 C0 21.44 0 10.88 0 0 Z " fill="#C8D5EE" transform="translate(212,320)"/>
  <path d="M0 0 C10.56 0 21.12 0 32 0 C32 10.56 32 21.12 32 32 C21.44 32 10.88 32 0 32 C0 21.44 0 10.88 0 0 Z " fill="#C8D5EF" transform="translate(884,256)"/>
  <path d="M0 0 C10.56 0 21.12 0 32 0 C32 10.56 32 21.12 32 32 C21.44 32 10.88 32 0 32 C0 21.44 0 10.88 0 0 Z " fill="#BDC1C8" transform="translate(212,224)"/>
  <path d="M0 0 C10.56 0 21.12 0 32 0 C32 10.56 32 21.12 32 32 C21.44 32 10.88 32 0 32 C0 21.44 0 10.88 0 0 Z " fill="#BDC1C8" transform="translate(884,192)"/>
  <path d="M0 0 C10.56 0 21.12 0 32 0 C32 10.56 32 21.12 32 32 C21.44 32 10.88 32 0 32 C0 21.44 0 10.88 0 0 Z " fill="#C8D5EE" transform="translate(852,160)"/>
  <path d="M0 0 C10.56 0 21.12 0 32 0 C32 10.56 32 21.12 32 32 C21.44 32 10.88 32 0 32 C0 21.44 0 10.88 0 0 Z " fill="#C8D5EE" transform="translate(148,160)"/>
  <path d="M0 0 C10.56 0 21.12 0 32 0 C32 10.56 32 21.12 32 32 C21.44 32 10.88 32 0 32 C0 21.44 0 10.88 0 0 Z " fill="#C8D5EE" transform="translate(532,128)"/>
  <path d="M0 0 C10.56 0 21.12 0 32 0 C32 10.56 32 21.12 32 32 C21.44 32 10.88 32 0 32 C0 21.44 0 10.88 0 0 Z " fill="#C8D5EE" transform="translate(372,128)"/>
  <path d="M0 0 C10.56 0 21.12 0 32 0 C32 10.56 32 21.12 32 32 C21.44 32 10.88 32 0 32 C0 21.44 0 10.88 0 0 Z " fill="#C8D5EE" transform="translate(308,128)"/>
  <path d="M0 0 C10.56 0 21.12 0 32 0 C32 10.56 32 21.12 32 32 C21.44 32 10.88 32 0 32 C0 21.44 0 10.88 0 0 Z " fill="#C8D5EE" transform="translate(212,128)"/>
  <path d="M0 0 C10.56 0 21.12 0 32 0 C32 10.56 32 21.12 32 32 C21.44 32 10.88 32 0 32 C0 21.44 0 10.88 0 0 Z " fill="#BDC1C8" transform="translate(788,96)"/>
  <path d="M0 0 C10.56 0 21.12 0 32 0 C32 10.56 32 21.12 32 32 C21.44 32 10.88 32 0 32 C0 21.44 0 10.88 0 0 Z " fill="#BDC1C8" transform="translate(564,96)"/>
  <path d="M0 0 C10.56 0 21.12 0 32 0 C32 10.56 32 21.12 32 32 C21.44 32 10.88 32 0 32 C0 21.44 0 10.88 0 0 Z " fill="#C8D5EE" transform="translate(436,96)"/>
  <path d="M0 0 C10.56 0 21.12 0 32 0 C32 10.56 32 21.12 32 32 C21.44 32 10.88 32 0 32 C0 21.44 0 10.88 0 0 Z " fill="#C8D5EE" transform="translate(692,64)"/>
  <path d="M0 0 C10.56 0 21.12 0 32 0 C32 10.56 32 21.12 32 32 C21.44 32 10.88 32 0 32 C0 21.44 0 10.88 0 0 Z " fill="#C8D5EE" transform="translate(628,64)"/>
  <path d="M0 0 C10.56 0 21.12 0 32 0 C32 10.56 32 21.12 32 32 C21.44 32 10.88 32 0 32 C0 21.44 0 10.88 0 0 Z " fill="#C8D5EE" transform="translate(372,64)"/>
  <path d="M0 0 C10.56 0 21.12 0 32 0 C32 10.56 32 21.12 32 32 C21.44 32 10.88 32 0 32 C0 21.44 0 10.88 0 0 Z " fill="#C8D5EE" transform="translate(756,32)"/>
  <path d="M0 0 C10.56 0 21.12 0 32 0 C32 10.56 32 21.12 32 32 C21.44 32 10.88 32 0 32 C0 21.44 0 10.88 0 0 Z " fill="#C8D5EE" transform="translate(500,32)"/>
  <path d="M0 0 C10.56 0 21.12 0 32 0 C32 10.56 32 21.12 32 32 C21.44 32 10.88 32 0 32 C0 21.44 0 10.88 0 0 Z " fill="#C8D5EE" transform="translate(436,32)"/>
  <path d="M0 0 C10.56 0 21.12 0 32 0 C32 10.56 32 21.12 32 32 C21.44 32 10.88 32 0 32 C0 21.44 0 10.88 0 0 Z " fill="#C8D5EE" transform="translate(660,0)"/>
  <path d="M0 0 C10.56 0 21.12 0 32 0 C32 10.56 32 21.12 32 32 C21.44 32 10.88 32 0 32 C0 21.44 0 10.88 0 0 Z " fill="#BDC1C8" transform="translate(596,0)"/>
</svg>
